<svg width="24" height="24" viewBox="0 0 24 24" fill="none" xmlns="http://www.w3.org/2000/svg">
<g clip-path="url(#clip0_343_165)">
<path d="M11.476 15C11.2108 15 10.9564 15.1054 10.7689 15.2929C10.5814 15.4804 10.476 15.7348 10.476 16V19C10.476 19.7956 10.1599 20.5587 9.59732 21.1213C9.03471 21.6839 8.27165 22 7.476 22H5C4.20435 22 3.44129 21.6839 2.87868 21.1213C2.31607 20.5587 2 19.7956 2 19V5C2 4.20435 2.31607 3.44129 2.87868 2.87868C3.44129 2.31607 4.20435 2 5 2H7.476C8.27165 2 9.03471 2.31607 9.59732 2.87868C10.1599 3.44129 10.476 4.20435 10.476 5V8C10.476 8.26522 10.5814 8.51957 10.7689 8.70711C10.9564 8.89464 11.2108 9 11.476 9C11.7412 9 11.9956 8.89464 12.1831 8.70711C12.3706 8.51957 12.476 8.26522 12.476 8V5C12.4744 3.67441 11.9471 2.40356 11.0098 1.46622C10.0724 0.528882 8.80159 0.00158786 7.476 0H5C3.67441 0.00158786 2.40356 0.528882 1.46622 1.46622C0.528882 2.40356 0.00158786 3.67441 0 5L0 19C0.00158786 20.3256 0.528882 21.5964 1.46622 22.5338C2.40356 23.4711 3.67441 23.9984 5 24H7.476C8.80159 23.9984 10.0724 23.4711 11.0098 22.5338C11.9471 21.5964 12.4744 20.3256 12.476 19V16C12.476 15.7348 12.3706 15.4804 12.1831 15.2929C11.9956 15.1054 11.7412 15 11.476 15Z" fill="#646D7E"/>
<path d="M22.8672 9.87957L18.2812 5.29357C18.1889 5.19806 18.0786 5.12188 17.9566 5.06947C17.8346 5.01706 17.7033 4.98947 17.5706 4.98832C17.4378 4.98717 17.3061 5.01247 17.1832 5.06275C17.0603 5.11303 16.9487 5.18728 16.8548 5.28117C16.7609 5.37507 16.6866 5.48672 16.6363 5.60962C16.5861 5.73251 16.5608 5.86419 16.5619 5.99697C16.5631 6.12975 16.5906 6.26097 16.6431 6.38297C16.6955 6.50498 16.7716 6.61532 16.8672 6.70757L21.1302 10.9706L6.00015 11.0006C5.73494 11.0006 5.48058 11.1059 5.29305 11.2935C5.10551 11.481 5.00015 11.7354 5.00015 12.0006C5.00015 12.2658 5.10551 12.5201 5.29305 12.7077C5.48058 12.8952 5.73494 13.0006 6.00015 13.0006L21.1882 12.9706L16.8652 17.2936C16.7696 17.3858 16.6935 17.4962 16.6411 17.6182C16.5886 17.7402 16.5611 17.8714 16.5599 18.0042C16.5588 18.1369 16.5841 18.2686 16.6343 18.3915C16.6846 18.5144 16.7589 18.6261 16.8528 18.72C16.9467 18.8139 17.0583 18.8881 17.1812 18.9384C17.3041 18.9887 17.4358 19.014 17.5686 19.0128C17.7013 19.0117 17.8326 18.9841 17.9546 18.9317C18.0766 18.8793 18.1869 18.8031 18.2792 18.7076L22.8652 14.1216C23.4278 13.5593 23.7441 12.7965 23.7445 12.001C23.7449 11.2055 23.4293 10.4424 22.8672 9.87957Z" fill="#646D7E"/>
</g>
<defs>
<clipPath id="clip0_343_165">
<rect width="24" height="24" fill="white"/>
</clipPath>
</defs>
</svg>
