<svg width="24" height="24" viewBox="0 0 24 24" fill="none" xmlns="http://www.w3.org/2000/svg">
<path d="M22 1H10.037V4H8V1H6V4H3.963V1H2C1.46957 1 0.960859 1.21071 0.585786 1.58579C0.210714 1.96086 0 2.46957 0 3L0 5C0 5.53043 0.210714 6.03914 0.585786 6.41421C0.960859 6.78929 1.46957 7 2 7H22C22.5304 7 23.0391 6.78929 23.4142 6.41421C23.7893 6.03914 24 5.53043 24 5V3C24 2.46957 23.7893 1.96086 23.4142 1.58579C23.0391 1.21071 22.5304 1 22 1Z" fill="#06BAD1"/>
<path d="M22 9H10.037V12H8V9H6V12H3.963V9H2C1.46957 9 0.960859 9.21071 0.585786 9.58579C0.210714 9.96086 0 10.4696 0 11L0 13C0 13.5304 0.210714 14.0391 0.585786 14.4142C0.960859 14.7893 1.46957 15 2 15H22C22.5304 15 23.0391 14.7893 23.4142 14.4142C23.7893 14.0391 24 13.5304 24 13V11C24 10.4696 23.7893 9.96086 23.4142 9.58579C23.0391 9.21071 22.5304 9 22 9Z" fill="#06BAD1"/>
<path d="M22 17H10.037V20H8V17H6V20H3.963V17H2C1.46957 17 0.960859 17.2107 0.585786 17.5858C0.210714 17.9609 0 18.4696 0 19L0 21C0 21.5304 0.210714 22.0391 0.585786 22.4142C0.960859 22.7893 1.46957 23 2 23H22C22.5304 23 23.0391 22.7893 23.4142 22.4142C23.7893 22.0391 24 21.5304 24 21V19C24 18.4696 23.7893 17.9609 23.4142 17.5858C23.0391 17.2107 22.5304 17 22 17Z" fill="#06BAD1"/>
</svg>
