<svg width="325" height="1080" viewBox="0 0 325 1080" fill="none" xmlns="http://www.w3.org/2000/svg">
<mask id="path-1-outside-1_5_4376" maskUnits="userSpaceOnUse" x="-325" y="-2" width="650" height="1083" fill="black">
<rect fill="white" x="-325" y="-2" width="650" height="1083"/>
<path fill-rule="evenodd" clip-rule="evenodd" d="M220.621 908.225C217.946 908.225 215.528 909.307 213.76 911.046L172.158 882.714C172.47 881.759 172.687 880.751 172.687 879.693C172.687 876.813 171.417 874.254 169.434 872.462L247.604 720.985C248.712 721.425 249.91 721.683 251.179 721.683C256.577 721.681 260.949 717.311 260.949 711.914C260.949 711.586 260.887 711.272 260.853 710.947L291.223 701.001C292.093 702.242 293.26 703.243 294.603 703.963L221.381 908.306C221.128 908.286 220.885 908.227 220.623 908.227L220.621 908.225ZM149.348 1000.81C148.363 1000.81 147.429 1001 146.534 1001.27L123.238 962.245C125.028 960.474 126.136 958.021 126.136 955.303C126.138 952.408 124.853 949.835 122.85 948.043L159.809 888.91C160.789 889.239 161.82 889.46 162.915 889.46C165.419 889.458 167.679 888.489 169.411 886.939L211.238 915.428C211.015 916.252 210.852 917.103 210.852 917.998C210.852 920.238 211.633 922.277 212.9 923.92L151.483 1001.06C150.794 1000.91 150.081 1000.81 149.348 1000.81ZM48.0778 1062.9C47.6165 1062.49 47.1258 1062.14 46.5973 1061.83L76.2376 979.974C76.6807 980.035 77.1156 980.107 77.567 980.107C82.9652 980.107 87.341 975.735 87.341 970.34C87.341 969.303 87.1358 968.33 86.8354 967.389L107.874 960.054C109.544 963.034 112.701 965.074 116.362 965.074C117.224 965.074 118.048 964.926 118.844 964.724L142.239 1003.92C140.595 1005.66 139.572 1008 139.572 1010.58C139.572 1010.77 139.613 1010.95 139.623 1011.13L48.0745 1062.9L48.0778 1062.9ZM-130.512 1011.55C-129.86 1010.24 -129.463 1008.79 -129.463 1007.23C-129.463 1003.87 -131.155 1000.92 -133.726 999.155L-117.408 965.394C-116.783 965.522 -116.131 965.594 -115.47 965.594C-112.082 965.594 -109.103 963.871 -107.35 961.25L-83.5217 970.253C-83.5217 970.294 -83.5315 970.332 -83.5315 970.369C-83.5315 975.422 -79.6745 979.536 -74.7473 980.04L-41.7982 1062.4C-42.3267 1062.86 -42.8027 1063.36 -43.2261 1063.92L-130.514 1011.55L-130.512 1011.55ZM-207.056 914.123C-207.056 912.415 -207.533 910.836 -208.301 909.44L-171.364 882.633C-169.646 884.153 -167.409 885.1 -164.937 885.1C-163.766 885.1 -162.659 884.86 -161.623 884.483L-122.391 948.923C-124.149 950.689 -125.242 953.13 -125.242 955.822C-125.242 958.738 -123.934 961.331 -121.907 963.119L-138.536 997.519C-138.769 997.505 -138.996 997.45 -139.232 997.45C-141.404 997.45 -143.395 998.183 -145.015 999.379L-210.087 921.168C-208.233 919.388 -207.057 916.896 -207.057 914.125L-207.056 914.123ZM-236.878 111.496C-235.143 112.411 -233.131 112.825 -231.045 112.543L-178.364 225.183C-180.513 226.972 -181.903 229.632 -181.903 232.648C-181.903 233.429 -181.79 234.181 -181.616 234.913L-254.739 285.446C-256.021 284.831 -257.434 284.459 -258.949 284.459C-264.339 284.459 -268.716 288.837 -268.716 294.229C-268.716 294.311 -268.693 294.39 -268.69 294.475L-309.03 319.444C-309.621 319.069 -310.262 318.768 -310.932 318.528L-298.754 227.776C-293.798 227.303 -289.913 223.179 -289.913 218.102C-289.913 215.161 -291.236 212.559 -293.291 210.765L-236.88 111.496H-236.878ZM-10.5856 13.3097C-9.49741 16.1159 -7.17169 18.2081 -4.36508 19.0779L-0.598267 146.325C-4.41428 147.339 -7.31613 150.58 -7.77078 154.645L-62.7609 155.145C-64.6517 152.339 -67.9211 150.647 -71.4614 150.871L-118.209 52.8322C-115.534 50.7366 -114.001 47.343 -114.532 43.7409C-114.546 43.6589 -114.577 43.5834 -114.595 43.5013L-10.5872 13.3097H-10.5856ZM110.08 45.6248C110.519 48.6 112.279 51.0238 114.652 52.4843L75.1592 148.384C75.1494 148.384 75.1396 148.381 75.133 148.381C71.2349 148.38 67.8948 150.677 66.3257 153.974L11.5621 154.474C11.0582 150.549 8.23193 147.329 4.43887 146.31L0.677032 19.2469C3.77582 18.5364 6.22791 16.4227 7.43753 13.6559L110.022 43.4357C109.968 44.1545 109.968 44.8847 110.078 45.6248H110.08ZM219.84 101.133C219.082 102.524 218.61 104.091 218.61 105.783C218.61 108.814 220.025 111.492 222.19 113.286L173.974 219.799C173.524 219.733 173.079 219.663 172.611 219.663C170.368 219.663 168.324 220.449 166.678 221.72L84.5294 160.674C84.7494 159.865 84.9053 159.031 84.9053 158.153C84.9053 154.556 82.9373 151.448 80.0486 149.755L119.505 53.9432C120.057 53.9547 120.608 53.9481 121.171 53.8677C123.683 53.4952 125.803 52.1807 127.292 50.3559L219.838 101.133H219.84ZM291.292 219.667L262.494 282.394C262.131 282.353 261.772 282.286 261.399 282.286C259.172 282.286 257.137 283.065 255.49 284.321L181.806 232.635C182.152 231.627 182.385 230.562 182.385 229.432C182.385 226.312 180.893 223.565 178.614 221.778L226.776 115.395C227.306 115.48 227.836 115.556 228.384 115.556C230.177 115.556 231.825 115.04 233.269 114.2L291.177 204.385C288.943 206.175 287.484 208.894 287.484 211.974C287.484 215.117 288.989 217.879 291.294 219.666L291.292 219.667ZM308.992 320.615L270.733 294.794C270.989 293.919 271.176 293.015 271.176 292.053C271.176 288.838 269.597 286.008 267.2 284.23L295.942 221.615C296.349 221.67 296.748 221.735 297.168 221.738L310.54 319.798C309.995 320.025 309.488 320.3 308.994 320.614L308.992 320.615ZM300.749 456.534L243.429 423.099C243.921 421.637 244.115 420.05 243.852 418.421C243.292 415.022 241.04 412.341 238.099 411.061L261.488 301.819C264.065 301.798 266.395 300.77 268.128 299.115L305.573 324.386C304.884 325.729 304.454 327.229 304.454 328.84C304.454 333.153 307.267 336.773 311.144 338.066L306.829 453.901C304.477 454.052 302.356 455.006 300.748 456.534H300.749ZM297.417 528.831L244.894 511.321C244.907 511.096 244.963 510.878 244.963 510.645C244.963 509.637 244.763 508.682 244.477 507.767L300.771 470.706C302.21 472.061 304.057 472.962 306.112 473.244L304.175 525.206C301.437 525.445 299.042 526.794 297.416 528.829L297.417 528.831ZM293.352 632.504L237.326 647.845C236.629 647.134 235.813 646.561 234.932 646.089L300.541 543.528C301.45 543.999 302.419 544.34 303.462 544.504L300.521 623.457C296.49 624.559 293.508 628.154 293.352 632.504ZM163.896 870.024L136.12 771.03C139.899 769.678 142.617 766.102 142.617 761.863C142.617 759.417 141.686 757.211 140.211 755.498L223.385 661.52C224.831 662.982 226.742 663.96 228.865 664.29L244.126 705.182C242.455 706.935 241.41 709.3 241.41 711.917C241.41 714.188 242.216 716.254 243.524 717.915L164.973 870.147C164.628 870.075 164.259 870.057 163.898 870.024H163.896ZM-299.792 539.004L-228.315 646.588C-230.231 648.375 -231.45 650.902 -231.45 653.726C-231.45 656.199 -230.502 658.429 -228.987 660.153L-244.871 702.302C-245.377 702.22 -245.884 702.148 -246.412 702.148C-249.538 702.148 -252.287 703.636 -254.074 705.922L-289.185 695.17C-289.093 694.621 -289.017 694.066 -289.017 693.493C-289.017 688.395 -292.937 684.258 -297.918 683.808L-303.53 540.339C-302.174 540.147 -300.912 539.694 -299.792 539.007V539.004ZM-301.913 469.599L-240.758 506.852C-240.988 507.45 -241.154 508.069 -241.264 508.717L-298.491 523.371C-300.065 521.994 -302.067 521.128 -304.286 520.99L-306.226 471.457C-304.621 471.196 -303.159 470.545 -301.915 469.599H-301.913ZM-172.127 242.422C-171.474 242.422 -170.837 242.35 -170.218 242.227L-116.701 352.745C-119.171 354.519 -120.791 357.397 -120.791 360.668C-120.791 361.401 -120.695 362.117 -120.544 362.803L-220.472 411.23C-222.241 408.763 -225.12 407.144 -228.389 407.144C-228.834 407.144 -229.259 407.219 -229.696 407.273L-253.736 302.474C-250.998 300.742 -249.17 297.71 -249.17 294.233C-249.17 292.239 -249.774 290.391 -250.796 288.847L-179.198 239.368C-177.417 241.242 -174.916 242.422 -172.129 242.422H-172.127ZM-4.79504 336.486C-7.28983 338.112 -8.96234 340.848 -9.17734 343.993L-102.011 356.885C-103.486 353.364 -106.966 350.896 -111.022 350.896C-111.34 350.894 -111.644 350.961 -111.954 350.988L-165.711 239.969C-163.67 238.175 -162.355 235.577 -162.355 232.651C-162.355 231.082 -162.759 229.625 -163.415 228.311L-78.6125 166.441C-76.5248 169.193 -73.0781 170.784 -69.4196 170.241C-69.2424 170.218 -69.0815 170.153 -68.9009 170.115L-4.79343 336.486H-4.79504ZM105.062 495.538C106.715 496.829 108.773 497.628 111.035 497.628C115.941 497.628 119.96 494.005 120.661 489.293L177.937 493.153C178.172 498.337 182.421 502.479 187.665 502.479C191.224 502.479 194.304 500.554 196.013 497.715L225.529 509.572C225.484 509.928 225.422 510.284 225.422 510.648C225.424 512.498 225.962 514.208 226.853 515.68L202.792 539.703C201.843 539.397 200.845 539.187 199.79 539.187C195.869 539.187 192.51 541.506 190.956 544.842H128.152C126.988 540.748 123.261 537.732 118.793 537.732C116.225 537.732 113.899 538.747 112.152 540.375L92.4913 527.708C92.9148 526.624 93.1643 525.457 93.1643 524.228C93.1643 520.588 91.1504 517.452 88.201 515.768L105.062 495.539V495.538ZM46.4037 767.003C46.2346 765.971 45.867 765.006 45.3122 764.169L76.5363 729.701C77.2502 730.024 78.0315 730.206 78.8488 730.279L89.1497 769.557C88.0631 770.142 87.1391 770.981 86.4793 772.013L46.4037 767.003ZM-27.1594 770.589C-26.8886 769.824 -26.713 769.017 -26.713 768.167C-26.713 765.566 -28.0884 763.304 -30.1384 762.019L-24.5367 517.253C-20.4482 516.328 -17.374 512.839 -17.0113 508.562L22.8888 509.16C23.5371 512.42 25.8021 515.089 28.8172 516.306L35.3035 762.067C33.3028 763.36 31.9684 765.605 31.9684 768.167C31.9684 768.485 32.0242 768.789 32.0652 769.091L5.93079 784.643C4.88037 784.052 3.68393 783.683 2.38895 783.683C0.778809 783.683 -0.691833 784.224 -1.89655 785.102L-27.1577 770.589H-27.1594ZM-85.8687 766.142C-86.2216 765.188 -86.7534 764.323 -87.4476 763.611L-76.8547 729.353C-76.7923 729.356 -76.7316 729.373 -76.6692 729.373C-75.5121 729.373 -74.4387 729.082 -73.4687 728.605L-40.6607 765.27C-40.9545 765.95 -41.117 766.688 -41.1958 767.456L-85.8704 766.142H-85.8687ZM-108.071 540.172C-109.755 538.784 -111.89 537.916 -114.244 537.916C-118.642 537.916 -122.322 540.845 -123.546 544.842H-184.23C-184.962 540.169 -188.974 536.585 -193.853 536.585C-196.176 536.583 -198.276 537.425 -199.954 538.777L-223.346 515.422C-222.433 513.937 -221.88 512.209 -221.88 510.335C-221.88 510.1 -221.936 509.88 -221.952 509.647L-189.937 496.785C-188.15 499.058 -185.404 500.543 -182.289 500.543C-177.683 500.543 -173.851 497.349 -172.813 493.063L-115.259 489.184C-113.787 492.722 -110.306 495.208 -106.239 495.208C-104.829 495.208 -103.493 494.893 -102.283 494.358L-83.8828 516.431C-85.5914 518.187 -86.6598 520.585 -86.6598 523.232C-86.6582 524.226 -86.4678 525.168 -86.1921 526.071L-108.071 540.174V540.172ZM-111.022 370.439C-110.081 370.439 -109.195 370.265 -108.335 370.017L-74.6472 439.487C-75.7337 440.54 -76.5494 441.855 -77.0565 443.32L-218.717 417.914C-218.679 417.581 -218.614 417.262 -218.614 416.916C-218.614 416.596 -218.676 416.291 -218.711 415.979L-118.188 367.262C-116.403 369.205 -113.866 370.439 -111.022 370.439ZM-35.1542 761.008C-35.8616 761.125 -36.5247 761.338 -37.1451 761.642L-69.9744 724.95C-69.6001 724.076 -69.3933 723.115 -69.3933 722.1C-69.3933 719.382 -70.905 717.042 -73.1109 715.79L-29.8774 530.213L-35.1542 761.01V761.008ZM32.4641 497.484C28.1704 497.484 24.5645 500.274 23.2581 504.127L-17.9238 503.511C-19.5044 500.242 -22.8247 497.968 -26.6982 497.968C-27.5222 497.968 -28.3116 498.103 -29.0732 498.295L-60.8208 453.255C-59.882 452.277 -59.1648 451.097 -58.697 449.792L-5.25793 448.44C-3.65274 451.63 -0.378357 453.841 3.43768 453.841C7.15851 453.839 10.3524 451.734 12.0036 448.673L62.1569 450.601C62.1733 450.729 62.1601 450.854 62.1815 450.987C62.3587 452.088 62.7542 453.097 63.2598 454.026L34.1448 497.651C33.5917 497.556 33.0435 497.484 32.4674 497.484H32.4641ZM72.223 723.07C72.223 724.185 72.4888 725.221 72.9353 726.164L41.2073 761.197C40.9201 761.115 40.6246 761.046 40.3193 760.999L34.2941 532.582L75.5991 716.949C73.5704 718.242 72.223 720.488 72.223 723.068V723.07ZM224.49 419.263L80.0289 444.116C79.1246 442.711 77.8641 441.602 76.4132 440.822L109.461 370.855C109.687 370.872 109.904 370.923 110.13 370.923C113.5 370.923 116.466 369.223 118.222 366.635L224.572 418.672C224.547 418.867 224.506 419.064 224.49 419.263ZM100.397 361.538C100.525 364.739 102.165 367.55 104.65 369.237L71.3711 439.692C70.9969 439.706 70.6161 439.7 70.237 439.761C66.8067 440.324 64.1133 442.616 62.8429 445.588L13.1673 443.674C12.9655 438.648 8.98532 434.632 3.97934 434.353L3.7709 353.838C6.24762 352.963 8.26151 351.142 9.36447 348.779L100.399 361.536L100.397 361.538ZM-8.21555 348.946C-6.87625 351.669 -4.34207 353.679 -1.27121 354.255L-1.05948 435.441C-3.99905 436.977 -6.04245 439.94 -6.2706 443.425L-58.2588 444.743C-59.0893 440.184 -63.0596 436.721 -67.8571 436.721C-68.6777 436.72 -69.4656 436.856 -70.2288 437.046L-103.987 367.427C-102.566 365.949 -101.64 364.021 -101.368 361.882L-8.21555 348.946ZM-298.335 459.51L-234.81 424.225C-233.088 425.738 -230.858 426.685 -228.386 426.685C-225.164 426.685 -222.333 425.108 -220.554 422.702L-77.4374 448.366C-76.5626 452.864 -72.6103 456.264 -67.8538 456.264C-66.9134 456.264 -66.0254 456.091 -65.1604 455.843L-33.5063 500.746C-35.0327 502.238 -36.0405 504.225 -36.3343 506.445L-69.0602 517.424C-70.841 515.033 -73.6689 513.463 -76.881 513.463C-77.7837 513.463 -78.642 513.62 -79.4676 513.852L-98.3607 491.182C-97.1806 489.566 -96.4568 487.593 -96.4568 485.434C-96.4568 480.038 -100.836 475.663 -106.232 475.663C-111.199 475.663 -115.255 479.38 -115.878 484.175L-172.948 488.02C-174.146 483.973 -177.846 481.003 -182.284 481.003C-187.68 481.001 -192.053 485.378 -192.053 490.769C-192.053 491.282 -191.977 491.768 -191.905 492.259L-223.541 504.888C-225.294 502.281 -228.273 500.564 -231.649 500.564C-233.976 500.564 -236.087 501.412 -237.768 502.771L-298.777 465.61C-298.289 464.45 -298.018 463.178 -298.018 461.847C-298.018 461.037 -298.146 460.262 -298.33 459.51H-298.335ZM-164.933 865.56C-165.393 865.56 -165.828 865.634 -166.276 865.695L-239.148 718.394C-237.604 716.668 -236.64 714.415 -236.64 711.919C-236.64 708.863 -238.07 706.169 -240.267 704.378L-224.667 662.983C-223.72 663.289 -222.729 663.499 -221.678 663.499C-219.732 663.499 -217.931 662.914 -216.411 661.938L-138.566 754.899C-139.639 756.468 -140.275 758.362 -140.275 760.408C-140.275 763.544 -138.766 766.311 -136.467 768.093L-164.653 865.588C-164.748 865.583 -164.838 865.56 -164.933 865.558V865.56ZM-120.835 759.344C-121.372 754.456 -125.468 750.637 -130.502 750.637C-132.019 750.637 -133.44 751.016 -134.724 751.635L-213.005 658.146C-212.328 656.816 -211.906 655.325 -211.906 653.726C-211.906 648.329 -216.281 643.959 -221.678 643.959C-222.423 643.959 -223.144 644.057 -223.843 644.215L-296.267 535.206C-295.556 533.854 -295.116 532.338 -295.116 530.702C-295.116 529.694 -295.308 528.742 -295.594 527.83L-240.768 513.786C-239.365 517.472 -235.831 520.107 -231.654 520.107C-229.967 520.107 -228.402 519.636 -227.012 518.885L-202.964 542.894C-203.378 543.971 -203.624 545.131 -203.624 546.35C-203.624 551.749 -199.253 556.124 -193.855 556.124C-189.706 556.124 -186.182 553.528 -184.765 549.877H-123.752C-122.75 554.214 -118.887 557.457 -114.247 557.457C-108.845 557.455 -104.475 553.082 -104.475 547.685C-104.475 546.475 -104.724 545.331 -105.123 544.263L-83.5348 530.35C-81.7917 531.98 -79.4627 533.001 -76.8875 533.001C-71.4909 532.999 -67.1152 528.626 -67.1152 523.228C-67.1152 522.848 -67.1841 522.487 -67.2252 522.122L-35.7073 511.544C-34.9047 513.441 -33.5014 515.003 -31.7584 516.062L-78.0939 714.969C-81.4307 715.631 -83.9484 718.575 -83.9484 722.1C-83.9484 724.233 -83.0113 726.133 -81.5538 727.463L-92.0531 761.442C-92.2616 761.425 -92.4635 761.378 -92.6752 761.378C-95.0797 761.378 -97.197 762.559 -98.5182 764.359L-120.84 759.344H-120.835ZM-36.0454 796.383C-37.3306 794.3 -39.6087 792.897 -42.2331 792.897C-43.9762 792.897 -45.5535 793.535 -46.8074 794.554L-82.6731 771.275L-39.7679 772.538C-38.4401 774.291 -36.3523 775.441 -33.9856 775.441C-32.7021 775.441 -31.5121 775.082 -30.4633 774.498L-5.0708 789.093L-36.0438 796.384L-36.0454 796.383ZM51.1174 795.948C49.8011 794.663 48.0154 793.867 46.0311 793.867C43.5265 793.867 41.3173 795.134 40.0092 797.065L9.49246 789.434C9.42844 789.129 9.32178 788.84 9.22165 788.553L34.4073 773.564C35.6974 774.718 37.3781 775.441 39.2459 775.441C41.872 775.441 44.1469 774.042 45.4254 771.961L85.3238 776.946L51.1191 795.949L51.1174 795.948ZM296.774 540.075L229.665 644.966C224.59 645.316 220.573 649.502 220.573 654.665C220.575 655.403 220.667 656.117 220.82 656.81L135.994 752.654C135.003 752.314 133.955 752.091 132.844 752.091C127.451 752.091 123.075 756.466 123.075 761.862C123.075 761.982 123.105 762.092 123.108 762.215L97.9831 771.076C96.9852 769.969 95.6705 769.166 94.1704 768.833L83.7186 728.971C85.5602 727.653 86.7714 725.506 86.7714 723.066C86.773 719.399 84.0501 716.397 80.5213 715.895L35.8287 516.392C37.8508 515.647 39.5512 514.278 40.6952 512.494L73.7329 523.108C73.6935 523.478 73.6197 523.84 73.6197 524.224C73.6213 529.618 77.9954 533.993 83.392 533.993C85.7226 533.992 87.8366 533.142 89.514 531.78L109.5 544.649C109.219 545.558 109.023 546.501 109.023 547.497C109.023 552.896 113.398 557.268 118.795 557.268C123.369 557.268 127.174 554.116 128.242 549.874H190.109C190.58 554.831 194.712 558.722 199.79 558.722C205.185 558.722 209.562 554.35 209.562 548.951C209.562 546.478 208.612 544.248 207.095 542.525L230.497 519.164C231.897 519.936 233.481 520.417 235.193 520.417C238.57 520.417 241.546 518.706 243.302 516.105L295.402 533.467C295.335 533.934 295.259 534.404 295.259 534.891C295.259 536.8 295.825 538.565 296.776 540.072L296.774 540.075ZM298.14 466.409L241.807 503.498C240.064 501.887 237.756 500.879 235.191 500.879C231.964 500.879 229.125 502.461 227.345 504.873L197.425 492.848C197.425 492.799 197.438 492.756 197.438 492.707C197.438 487.311 193.059 482.936 187.665 482.936C183.866 482.936 180.611 485.125 178.993 488.284L120.091 484.223C118.647 480.63 115.145 478.09 111.035 478.09C105.641 478.089 101.262 482.464 101.262 487.861C101.262 489.113 101.52 490.299 101.95 491.401L82.6747 514.529C79.7647 514.744 77.2191 516.206 75.5778 518.412L42.1986 507.688C42.1986 507.542 42.2397 507.404 42.2397 507.253C42.2397 504.26 40.8659 501.618 38.7437 499.824L66.8296 457.753C68.745 458.898 71.0346 459.433 73.3981 459.046C78.34 458.234 81.7573 453.849 81.5341 448.968L225.44 424.215C227.268 428.024 231.409 430.362 235.788 429.642C237.674 429.337 239.324 428.488 240.652 427.317L298.133 460.836C297.866 461.723 297.68 462.64 297.68 463.613C297.68 464.589 297.867 465.518 298.14 466.409ZM252.384 288.294C251.903 289.459 251.629 290.727 251.629 292.055C251.629 295.705 253.651 298.847 256.615 300.524L233.106 410.329C232.944 410.347 232.786 410.334 232.624 410.36C230.1 410.775 227.984 412.14 226.522 414.015L119.835 361.809C119.853 361.587 119.904 361.377 119.904 361.15C119.904 358.525 118.856 356.155 117.172 354.399L170.712 239.015C171.326 239.135 171.963 239.207 172.613 239.207C175.05 239.207 177.26 238.278 178.97 236.803L252.384 288.294ZM75.1346 167.926C77.8148 167.926 80.2473 166.839 82.0133 165.085L163.584 225.703C163.112 226.854 162.841 228.112 162.841 229.433C162.841 232.366 164.159 234.963 166.204 236.755L112.819 351.802C111.962 351.555 111.072 351.38 110.129 351.38C106.38 351.378 103.17 353.51 101.528 356.608L10.208 343.811C9.98645 341.232 8.77356 338.956 6.93857 337.347L72.9172 167.652C73.6312 167.816 74.3648 167.926 75.1346 167.926ZM10.8711 159.52L65.446 159.023C65.6643 161.472 66.7525 163.654 68.4447 165.246L3.81851 331.463L4.72452 165.041C7.49338 164.199 9.74689 162.179 10.8695 159.52H10.8711ZM-6.99603 159.685C-5.76834 162.433 -3.336 164.534 -0.309418 165.233L-1.2236 331.737L-64.3742 167.88C-62.234 165.978 -61.0046 163.18 -61.136 160.175L-6.99603 159.683V159.685ZM-222.681 101.448C-222.842 100.361 -223.214 99.3652 -223.689 98.4397L-132.329 50.5397C-130.313 53.5871 -126.686 55.3857 -122.831 54.8408L-76.2639 152.484C-79.1903 154.443 -80.9268 157.902 -80.5329 161.603L-166.745 224.508C-168.29 223.481 -170.138 222.881 -172.127 222.881C-172.7 222.881 -173.253 222.958 -173.798 223.05L-226.4 110.575C-223.702 108.483 -222.144 105.069 -222.679 101.449L-222.681 101.448ZM-304.457 327.693C-304.457 326.082 -304.884 324.582 -305.578 323.239L-267.172 299.467C-265.435 302.188 -262.409 304.005 -258.947 304.005C-258.813 304.005 -258.693 303.972 -258.561 303.969L-234.405 409.272C-236.675 411.059 -238.157 413.801 -238.157 416.916C-238.157 418.006 -237.937 419.039 -237.61 420.014L-300.761 455.091C-302.356 453.427 -304.537 452.362 -306.978 452.154L-311.48 337.021C-307.428 335.831 -304.457 332.129 -304.455 327.691L-304.457 327.693ZM-211.824 905.772C-213.293 904.887 -214.99 904.352 -216.828 904.352C-217.908 904.351 -218.927 904.567 -219.897 904.891L-294.489 702.224C-293.28 701.626 -292.224 700.789 -291.363 699.77L-256.052 710.59C-256.109 711.033 -256.185 711.467 -256.185 711.92C-256.185 717.318 -251.806 721.689 -246.412 721.689C-245.352 721.688 -244.349 721.476 -243.396 721.168L-170.918 867.654C-173.207 869.441 -174.707 872.201 -174.707 875.329C-174.707 876.425 -174.487 877.453 -174.156 878.437L-211.822 905.772H-211.824ZM41.6833 1060.46C37.2567 1060.46 33.5605 1063.42 32.359 1067.45L-25.7709 1068.79C-26.2748 1063.86 -30.3862 1060.01 -35.448 1060.01C-36.0651 1060.01 -36.6691 1060.08 -37.2583 1060.19L-69.6527 979.214C-66.3143 977.652 -63.9869 974.296 -63.9869 970.373C-63.9853 968.787 -64.3956 967.315 -65.0669 965.991L-44.549 951.68C-42.86 953.081 -40.7198 953.954 -38.3563 953.954C-33.7984 953.954 -30.0038 950.826 -28.9189 946.609H27.7421C28.6546 951.059 32.5921 954.412 37.3158 954.412C40.3374 954.412 43.0029 953.012 44.7968 950.861L69.1504 965.471C68.315 966.912 67.798 968.554 67.798 970.343C67.798 973.476 69.3047 976.231 71.5959 978.017L41.7374 1060.47C41.7194 1060.46 41.7014 1060.46 41.6849 1060.46H41.6833ZM116.369 945.536C111.025 945.536 106.69 949.835 106.615 955.159L84.0107 963.044C82.2874 961.521 80.0536 960.572 77.5703 960.572C75.86 960.572 74.2745 961.053 72.8745 961.825L46.9255 946.261C47.0175 945.733 47.0897 945.199 47.0897 944.64C47.0897 939.246 42.714 934.871 37.3158 934.871C33.0024 934.871 29.3784 937.688 28.0867 941.573H-28.9813C-30.1302 937.454 -33.8707 934.418 -38.3563 934.418C-43.7496 934.418 -48.1286 938.793 -48.1286 944.19C-48.127 945.386 -47.8825 946.522 -47.4837 947.585L-68.4315 962.195C-69.9629 961.198 -71.7897 960.605 -73.7576 960.605C-77.3307 960.604 -80.4229 962.54 -82.1266 965.399L-105.756 956.476C-105.743 956.253 -105.691 956.05 -105.691 955.827C-105.691 950.431 -110.066 946.059 -115.465 946.059C-116.349 946.059 -117.19 946.21 -118.004 946.435L-157.489 881.593C-156.059 879.895 -155.16 877.727 -155.16 875.332C-155.16 871.819 -157.037 868.762 -159.822 867.037L-131.779 770.052C-131.357 770.106 -130.939 770.184 -130.499 770.184C-126.504 770.184 -123.08 767.778 -121.567 764.346L-99.8871 769.215C-99.5982 772.963 -96.4929 775.93 -92.667 775.93C-90.768 775.93 -89.0496 775.182 -87.7546 773.987L-49.376 798.897C-49.4483 799.313 -49.5041 799.734 -49.5041 800.175C-49.5041 804.191 -46.2478 807.448 -42.2282 807.448C-38.6108 807.448 -35.6285 804.796 -35.0688 801.335L-4.16479 794.06C-2.99619 796.524 -0.509644 798.237 2.39383 798.237C5.13971 798.237 7.50323 796.693 8.7424 794.443L38.852 801.965C39.264 805.592 42.307 808.416 46.041 808.416C50.0588 808.416 53.32 805.16 53.32 801.146C53.32 800.938 53.2708 800.736 53.2544 800.531L87.789 781.349C89.0775 782.49 90.7467 783.203 92.603 783.203C96.6176 783.203 99.8772 779.946 99.8772 775.93C99.8772 775.871 99.8607 775.817 99.8607 775.77L124.595 767.041C126.008 769.294 128.3 770.93 131.009 771.449L158.893 870.816C155.516 872.354 153.152 875.741 153.152 879.701C153.152 882.172 154.102 884.414 155.626 886.137L118.363 945.746C117.721 945.616 117.063 945.541 116.377 945.541L116.369 945.536ZM289.438 695.398C289.438 695.692 289.498 695.971 289.523 696.258L259.095 706.221C257.322 703.761 254.45 702.146 251.18 702.146C250.253 702.146 249.373 702.314 248.521 702.558L234.026 663.707C237.595 662.253 240.113 658.756 240.113 654.667C240.113 653.874 239.993 653.124 239.819 652.389L294.504 637.418C295.64 639.551 297.524 641.202 299.829 642.017L298.204 685.731C293.281 686.243 289.436 690.349 289.436 695.4L289.438 695.398ZM324 328.84C324 323.896 320.315 319.851 315.546 319.199L302.08 220.429C305.022 218.747 307.029 215.612 307.029 211.976C307.029 206.582 302.657 202.209 297.257 202.209C296.779 202.209 296.32 202.279 295.857 202.348L236.893 110.514C237.676 109.105 238.163 107.51 238.163 105.785C238.163 100.388 233.788 96.0126 228.389 96.0126C226.595 96.0126 224.928 96.5345 223.479 97.3829L129.358 45.7381C129.513 44.7781 129.572 43.7885 129.421 42.7744C128.634 37.4344 123.665 33.7471 118.325 34.5348C115.509 34.9516 113.175 36.5466 111.693 38.7309L8.19086 8.63603C8.17773 8.53593 8.19095 8.44403 8.17453 8.34885C7.38507 3.0073 2.41843 -0.681738 -2.9158 0.105956C-7.23734 0.744316 -10.4313 4.12649 -11.0977 8.21757L-116.75 38.8851C-118.861 36.3924 -122.151 34.991 -125.621 35.503C-130.665 36.2463 -134.189 40.7313 -133.9 45.7266L-227.217 94.6063C-229.116 93.4329 -231.398 92.8569 -233.773 93.2065C-239.112 93.9942 -242.8 98.9648 -242.014 104.301C-241.815 105.65 -241.346 106.891 -240.673 107.984L-297.805 208.52C-298.412 208.4 -299.036 208.331 -299.679 208.331C-305.076 208.331 -309.448 212.706 -309.448 218.104C-309.448 222.05 -307.098 225.427 -303.727 226.972L-315.953 318.095C-320.524 318.912 -324 322.885 -324 327.691C-324 332.296 -320.803 336.131 -316.512 337.165L-311.987 453.053C-315.276 454.623 -317.571 457.953 -317.571 461.847C-317.571 466.009 -314.952 469.539 -311.285 470.945L-309.291 522.025C-312.462 523.637 -314.658 526.899 -314.658 530.703C-314.658 534.781 -312.15 538.272 -308.598 539.734L-302.927 684.669C-306.244 686.23 -308.562 689.581 -308.562 693.492C-308.562 698.641 -304.562 702.821 -299.502 703.187L-224.202 907.774C-225.676 909.486 -226.602 911.686 -226.602 914.126C-226.602 919.516 -222.223 923.897 -216.826 923.897C-216.06 923.897 -215.32 923.781 -214.602 923.613L-148.223 1003.4C-148.724 1004.58 -149.001 1005.86 -149.001 1007.23C-149.001 1012.62 -144.626 1017 -139.229 1017C-137.263 1017 -135.434 1016.4 -133.896 1015.4L-45.1054 1068.67C-45.1464 1069.04 -45.2153 1069.4 -45.2153 1069.78C-45.2137 1075.17 -40.8363 1079.55 -35.4463 1079.55C-31.5023 1079.55 -28.1327 1077.21 -26.585 1073.85L32.1999 1072.5C33.2257 1076.79 37.0696 1080 41.6849 1080C47.0799 1080 51.4572 1075.63 51.4572 1070.23C51.4572 1069.13 51.2324 1068.09 50.891 1067.1L141.227 1016.01C142.981 1018.63 145.962 1020.36 149.353 1020.36C154.746 1020.36 159.122 1015.98 159.122 1010.58C159.122 1007.77 157.914 1005.25 156.01 1003.47L216.885 927.023C218.039 927.501 219.303 927.768 220.624 927.768C226.026 927.768 230.402 923.398 230.402 918.001C230.403 914.651 228.713 911.706 226.149 909.945L299.54 705.133C304.78 704.954 308.984 700.681 308.984 695.397C308.984 691.434 306.612 688.03 303.215 686.504L304.856 642.436C309.406 641.604 312.86 637.634 312.86 632.843C312.862 628.307 309.757 624.531 305.562 623.425L308.524 543.991C312.189 542.584 314.802 539.054 314.802 534.893C314.802 530.989 312.498 527.646 309.187 526.082L311.18 472.637C314.723 471.173 317.225 467.686 317.225 463.611C317.225 459.799 315.017 456.532 311.838 454.924L316.174 338.411C320.643 337.51 324 333.566 324 328.839V328.84Z"/>
</mask>
<path fill-rule="evenodd" clip-rule="evenodd" d="M220.621 908.225C217.946 908.225 215.528 909.307 213.76 911.046L172.158 882.714C172.47 881.759 172.687 880.751 172.687 879.693C172.687 876.813 171.417 874.254 169.434 872.462L247.604 720.985C248.712 721.425 249.91 721.683 251.179 721.683C256.577 721.681 260.949 717.311 260.949 711.914C260.949 711.586 260.887 711.272 260.853 710.947L291.223 701.001C292.093 702.242 293.26 703.243 294.603 703.963L221.381 908.306C221.128 908.286 220.885 908.227 220.623 908.227L220.621 908.225ZM149.348 1000.81C148.363 1000.81 147.429 1001 146.534 1001.27L123.238 962.245C125.028 960.474 126.136 958.021 126.136 955.303C126.138 952.408 124.853 949.835 122.85 948.043L159.809 888.91C160.789 889.239 161.82 889.46 162.915 889.46C165.419 889.458 167.679 888.489 169.411 886.939L211.238 915.428C211.015 916.252 210.852 917.103 210.852 917.998C210.852 920.238 211.633 922.277 212.9 923.92L151.483 1001.06C150.794 1000.91 150.081 1000.81 149.348 1000.81ZM48.0778 1062.9C47.6165 1062.49 47.1258 1062.14 46.5973 1061.83L76.2376 979.974C76.6807 980.035 77.1156 980.107 77.567 980.107C82.9652 980.107 87.341 975.735 87.341 970.34C87.341 969.303 87.1358 968.33 86.8354 967.389L107.874 960.054C109.544 963.034 112.701 965.074 116.362 965.074C117.224 965.074 118.048 964.926 118.844 964.724L142.239 1003.92C140.595 1005.66 139.572 1008 139.572 1010.58C139.572 1010.77 139.613 1010.95 139.623 1011.13L48.0745 1062.9L48.0778 1062.9ZM-130.512 1011.55C-129.86 1010.24 -129.463 1008.79 -129.463 1007.23C-129.463 1003.87 -131.155 1000.92 -133.726 999.155L-117.408 965.394C-116.783 965.522 -116.131 965.594 -115.47 965.594C-112.082 965.594 -109.103 963.871 -107.35 961.25L-83.5217 970.253C-83.5217 970.294 -83.5315 970.332 -83.5315 970.369C-83.5315 975.422 -79.6745 979.536 -74.7473 980.04L-41.7982 1062.4C-42.3267 1062.86 -42.8027 1063.36 -43.2261 1063.92L-130.514 1011.55L-130.512 1011.55ZM-207.056 914.123C-207.056 912.415 -207.533 910.836 -208.301 909.44L-171.364 882.633C-169.646 884.153 -167.409 885.1 -164.937 885.1C-163.766 885.1 -162.659 884.86 -161.623 884.483L-122.391 948.923C-124.149 950.689 -125.242 953.13 -125.242 955.822C-125.242 958.738 -123.934 961.331 -121.907 963.119L-138.536 997.519C-138.769 997.505 -138.996 997.45 -139.232 997.45C-141.404 997.45 -143.395 998.183 -145.015 999.379L-210.087 921.168C-208.233 919.388 -207.057 916.896 -207.057 914.125L-207.056 914.123ZM-236.878 111.496C-235.143 112.411 -233.131 112.825 -231.045 112.543L-178.364 225.183C-180.513 226.972 -181.903 229.632 -181.903 232.648C-181.903 233.429 -181.79 234.181 -181.616 234.913L-254.739 285.446C-256.021 284.831 -257.434 284.459 -258.949 284.459C-264.339 284.459 -268.716 288.837 -268.716 294.229C-268.716 294.311 -268.693 294.39 -268.69 294.475L-309.03 319.444C-309.621 319.069 -310.262 318.768 -310.932 318.528L-298.754 227.776C-293.798 227.303 -289.913 223.179 -289.913 218.102C-289.913 215.161 -291.236 212.559 -293.291 210.765L-236.88 111.496H-236.878ZM-10.5856 13.3097C-9.49741 16.1159 -7.17169 18.2081 -4.36508 19.0779L-0.598267 146.325C-4.41428 147.339 -7.31613 150.58 -7.77078 154.645L-62.7609 155.145C-64.6517 152.339 -67.9211 150.647 -71.4614 150.871L-118.209 52.8322C-115.534 50.7366 -114.001 47.343 -114.532 43.7409C-114.546 43.6589 -114.577 43.5834 -114.595 43.5013L-10.5872 13.3097H-10.5856ZM110.08 45.6248C110.519 48.6 112.279 51.0238 114.652 52.4843L75.1592 148.384C75.1494 148.384 75.1396 148.381 75.133 148.381C71.2349 148.38 67.8948 150.677 66.3257 153.974L11.5621 154.474C11.0582 150.549 8.23193 147.329 4.43887 146.31L0.677032 19.2469C3.77582 18.5364 6.22791 16.4227 7.43753 13.6559L110.022 43.4357C109.968 44.1545 109.968 44.8847 110.078 45.6248H110.08ZM219.84 101.133C219.082 102.524 218.61 104.091 218.61 105.783C218.61 108.814 220.025 111.492 222.19 113.286L173.974 219.799C173.524 219.733 173.079 219.663 172.611 219.663C170.368 219.663 168.324 220.449 166.678 221.72L84.5294 160.674C84.7494 159.865 84.9053 159.031 84.9053 158.153C84.9053 154.556 82.9373 151.448 80.0486 149.755L119.505 53.9432C120.057 53.9547 120.608 53.9481 121.171 53.8677C123.683 53.4952 125.803 52.1807 127.292 50.3559L219.838 101.133H219.84ZM291.292 219.667L262.494 282.394C262.131 282.353 261.772 282.286 261.399 282.286C259.172 282.286 257.137 283.065 255.49 284.321L181.806 232.635C182.152 231.627 182.385 230.562 182.385 229.432C182.385 226.312 180.893 223.565 178.614 221.778L226.776 115.395C227.306 115.48 227.836 115.556 228.384 115.556C230.177 115.556 231.825 115.04 233.269 114.2L291.177 204.385C288.943 206.175 287.484 208.894 287.484 211.974C287.484 215.117 288.989 217.879 291.294 219.666L291.292 219.667ZM308.992 320.615L270.733 294.794C270.989 293.919 271.176 293.015 271.176 292.053C271.176 288.838 269.597 286.008 267.2 284.23L295.942 221.615C296.349 221.67 296.748 221.735 297.168 221.738L310.54 319.798C309.995 320.025 309.488 320.3 308.994 320.614L308.992 320.615ZM300.749 456.534L243.429 423.099C243.921 421.637 244.115 420.05 243.852 418.421C243.292 415.022 241.04 412.341 238.099 411.061L261.488 301.819C264.065 301.798 266.395 300.77 268.128 299.115L305.573 324.386C304.884 325.729 304.454 327.229 304.454 328.84C304.454 333.153 307.267 336.773 311.144 338.066L306.829 453.901C304.477 454.052 302.356 455.006 300.748 456.534H300.749ZM297.417 528.831L244.894 511.321C244.907 511.096 244.963 510.878 244.963 510.645C244.963 509.637 244.763 508.682 244.477 507.767L300.771 470.706C302.21 472.061 304.057 472.962 306.112 473.244L304.175 525.206C301.437 525.445 299.042 526.794 297.416 528.829L297.417 528.831ZM293.352 632.504L237.326 647.845C236.629 647.134 235.813 646.561 234.932 646.089L300.541 543.528C301.45 543.999 302.419 544.34 303.462 544.504L300.521 623.457C296.49 624.559 293.508 628.154 293.352 632.504ZM163.896 870.024L136.12 771.03C139.899 769.678 142.617 766.102 142.617 761.863C142.617 759.417 141.686 757.211 140.211 755.498L223.385 661.52C224.831 662.982 226.742 663.96 228.865 664.29L244.126 705.182C242.455 706.935 241.41 709.3 241.41 711.917C241.41 714.188 242.216 716.254 243.524 717.915L164.973 870.147C164.628 870.075 164.259 870.057 163.898 870.024H163.896ZM-299.792 539.004L-228.315 646.588C-230.231 648.375 -231.45 650.902 -231.45 653.726C-231.45 656.199 -230.502 658.429 -228.987 660.153L-244.871 702.302C-245.377 702.22 -245.884 702.148 -246.412 702.148C-249.538 702.148 -252.287 703.636 -254.074 705.922L-289.185 695.17C-289.093 694.621 -289.017 694.066 -289.017 693.493C-289.017 688.395 -292.937 684.258 -297.918 683.808L-303.53 540.339C-302.174 540.147 -300.912 539.694 -299.792 539.007V539.004ZM-301.913 469.599L-240.758 506.852C-240.988 507.45 -241.154 508.069 -241.264 508.717L-298.491 523.371C-300.065 521.994 -302.067 521.128 -304.286 520.99L-306.226 471.457C-304.621 471.196 -303.159 470.545 -301.915 469.599H-301.913ZM-172.127 242.422C-171.474 242.422 -170.837 242.35 -170.218 242.227L-116.701 352.745C-119.171 354.519 -120.791 357.397 -120.791 360.668C-120.791 361.401 -120.695 362.117 -120.544 362.803L-220.472 411.23C-222.241 408.763 -225.12 407.144 -228.389 407.144C-228.834 407.144 -229.259 407.219 -229.696 407.273L-253.736 302.474C-250.998 300.742 -249.17 297.71 -249.17 294.233C-249.17 292.239 -249.774 290.391 -250.796 288.847L-179.198 239.368C-177.417 241.242 -174.916 242.422 -172.129 242.422H-172.127ZM-4.79504 336.486C-7.28983 338.112 -8.96234 340.848 -9.17734 343.993L-102.011 356.885C-103.486 353.364 -106.966 350.896 -111.022 350.896C-111.34 350.894 -111.644 350.961 -111.954 350.988L-165.711 239.969C-163.67 238.175 -162.355 235.577 -162.355 232.651C-162.355 231.082 -162.759 229.625 -163.415 228.311L-78.6125 166.441C-76.5248 169.193 -73.0781 170.784 -69.4196 170.241C-69.2424 170.218 -69.0815 170.153 -68.9009 170.115L-4.79343 336.486H-4.79504ZM105.062 495.538C106.715 496.829 108.773 497.628 111.035 497.628C115.941 497.628 119.96 494.005 120.661 489.293L177.937 493.153C178.172 498.337 182.421 502.479 187.665 502.479C191.224 502.479 194.304 500.554 196.013 497.715L225.529 509.572C225.484 509.928 225.422 510.284 225.422 510.648C225.424 512.498 225.962 514.208 226.853 515.68L202.792 539.703C201.843 539.397 200.845 539.187 199.79 539.187C195.869 539.187 192.51 541.506 190.956 544.842H128.152C126.988 540.748 123.261 537.732 118.793 537.732C116.225 537.732 113.899 538.747 112.152 540.375L92.4913 527.708C92.9148 526.624 93.1643 525.457 93.1643 524.228C93.1643 520.588 91.1504 517.452 88.201 515.768L105.062 495.539V495.538ZM46.4037 767.003C46.2346 765.971 45.867 765.006 45.3122 764.169L76.5363 729.701C77.2502 730.024 78.0315 730.206 78.8488 730.279L89.1497 769.557C88.0631 770.142 87.1391 770.981 86.4793 772.013L46.4037 767.003ZM-27.1594 770.589C-26.8886 769.824 -26.713 769.017 -26.713 768.167C-26.713 765.566 -28.0884 763.304 -30.1384 762.019L-24.5367 517.253C-20.4482 516.328 -17.374 512.839 -17.0113 508.562L22.8888 509.16C23.5371 512.42 25.8021 515.089 28.8172 516.306L35.3035 762.067C33.3028 763.36 31.9684 765.605 31.9684 768.167C31.9684 768.485 32.0242 768.789 32.0652 769.091L5.93079 784.643C4.88037 784.052 3.68393 783.683 2.38895 783.683C0.778809 783.683 -0.691833 784.224 -1.89655 785.102L-27.1577 770.589H-27.1594ZM-85.8687 766.142C-86.2216 765.188 -86.7534 764.323 -87.4476 763.611L-76.8547 729.353C-76.7923 729.356 -76.7316 729.373 -76.6692 729.373C-75.5121 729.373 -74.4387 729.082 -73.4687 728.605L-40.6607 765.27C-40.9545 765.95 -41.117 766.688 -41.1958 767.456L-85.8704 766.142H-85.8687ZM-108.071 540.172C-109.755 538.784 -111.89 537.916 -114.244 537.916C-118.642 537.916 -122.322 540.845 -123.546 544.842H-184.23C-184.962 540.169 -188.974 536.585 -193.853 536.585C-196.176 536.583 -198.276 537.425 -199.954 538.777L-223.346 515.422C-222.433 513.937 -221.88 512.209 -221.88 510.335C-221.88 510.1 -221.936 509.88 -221.952 509.647L-189.937 496.785C-188.15 499.058 -185.404 500.543 -182.289 500.543C-177.683 500.543 -173.851 497.349 -172.813 493.063L-115.259 489.184C-113.787 492.722 -110.306 495.208 -106.239 495.208C-104.829 495.208 -103.493 494.893 -102.283 494.358L-83.8828 516.431C-85.5914 518.187 -86.6598 520.585 -86.6598 523.232C-86.6582 524.226 -86.4678 525.168 -86.1921 526.071L-108.071 540.174V540.172ZM-111.022 370.439C-110.081 370.439 -109.195 370.265 -108.335 370.017L-74.6472 439.487C-75.7337 440.54 -76.5494 441.855 -77.0565 443.32L-218.717 417.914C-218.679 417.581 -218.614 417.262 -218.614 416.916C-218.614 416.596 -218.676 416.291 -218.711 415.979L-118.188 367.262C-116.403 369.205 -113.866 370.439 -111.022 370.439ZM-35.1542 761.008C-35.8616 761.125 -36.5247 761.338 -37.1451 761.642L-69.9744 724.95C-69.6001 724.076 -69.3933 723.115 -69.3933 722.1C-69.3933 719.382 -70.905 717.042 -73.1109 715.79L-29.8774 530.213L-35.1542 761.01V761.008ZM32.4641 497.484C28.1704 497.484 24.5645 500.274 23.2581 504.127L-17.9238 503.511C-19.5044 500.242 -22.8247 497.968 -26.6982 497.968C-27.5222 497.968 -28.3116 498.103 -29.0732 498.295L-60.8208 453.255C-59.882 452.277 -59.1648 451.097 -58.697 449.792L-5.25793 448.44C-3.65274 451.63 -0.378357 453.841 3.43768 453.841C7.15851 453.839 10.3524 451.734 12.0036 448.673L62.1569 450.601C62.1733 450.729 62.1601 450.854 62.1815 450.987C62.3587 452.088 62.7542 453.097 63.2598 454.026L34.1448 497.651C33.5917 497.556 33.0435 497.484 32.4674 497.484H32.4641ZM72.223 723.07C72.223 724.185 72.4888 725.221 72.9353 726.164L41.2073 761.197C40.9201 761.115 40.6246 761.046 40.3193 760.999L34.2941 532.582L75.5991 716.949C73.5704 718.242 72.223 720.488 72.223 723.068V723.07ZM224.49 419.263L80.0289 444.116C79.1246 442.711 77.8641 441.602 76.4132 440.822L109.461 370.855C109.687 370.872 109.904 370.923 110.13 370.923C113.5 370.923 116.466 369.223 118.222 366.635L224.572 418.672C224.547 418.867 224.506 419.064 224.49 419.263ZM100.397 361.538C100.525 364.739 102.165 367.55 104.65 369.237L71.3711 439.692C70.9969 439.706 70.6161 439.7 70.237 439.761C66.8067 440.324 64.1133 442.616 62.8429 445.588L13.1673 443.674C12.9655 438.648 8.98532 434.632 3.97934 434.353L3.7709 353.838C6.24762 352.963 8.26151 351.142 9.36447 348.779L100.399 361.536L100.397 361.538ZM-8.21555 348.946C-6.87625 351.669 -4.34207 353.679 -1.27121 354.255L-1.05948 435.441C-3.99905 436.977 -6.04245 439.94 -6.2706 443.425L-58.2588 444.743C-59.0893 440.184 -63.0596 436.721 -67.8571 436.721C-68.6777 436.72 -69.4656 436.856 -70.2288 437.046L-103.987 367.427C-102.566 365.949 -101.64 364.021 -101.368 361.882L-8.21555 348.946ZM-298.335 459.51L-234.81 424.225C-233.088 425.738 -230.858 426.685 -228.386 426.685C-225.164 426.685 -222.333 425.108 -220.554 422.702L-77.4374 448.366C-76.5626 452.864 -72.6103 456.264 -67.8538 456.264C-66.9134 456.264 -66.0254 456.091 -65.1604 455.843L-33.5063 500.746C-35.0327 502.238 -36.0405 504.225 -36.3343 506.445L-69.0602 517.424C-70.841 515.033 -73.6689 513.463 -76.881 513.463C-77.7837 513.463 -78.642 513.62 -79.4676 513.852L-98.3607 491.182C-97.1806 489.566 -96.4568 487.593 -96.4568 485.434C-96.4568 480.038 -100.836 475.663 -106.232 475.663C-111.199 475.663 -115.255 479.38 -115.878 484.175L-172.948 488.02C-174.146 483.973 -177.846 481.003 -182.284 481.003C-187.68 481.001 -192.053 485.378 -192.053 490.769C-192.053 491.282 -191.977 491.768 -191.905 492.259L-223.541 504.888C-225.294 502.281 -228.273 500.564 -231.649 500.564C-233.976 500.564 -236.087 501.412 -237.768 502.771L-298.777 465.61C-298.289 464.45 -298.018 463.178 -298.018 461.847C-298.018 461.037 -298.146 460.262 -298.33 459.51H-298.335ZM-164.933 865.56C-165.393 865.56 -165.828 865.634 -166.276 865.695L-239.148 718.394C-237.604 716.668 -236.64 714.415 -236.64 711.919C-236.64 708.863 -238.07 706.169 -240.267 704.378L-224.667 662.983C-223.72 663.289 -222.729 663.499 -221.678 663.499C-219.732 663.499 -217.931 662.914 -216.411 661.938L-138.566 754.899C-139.639 756.468 -140.275 758.362 -140.275 760.408C-140.275 763.544 -138.766 766.311 -136.467 768.093L-164.653 865.588C-164.748 865.583 -164.838 865.56 -164.933 865.558V865.56ZM-120.835 759.344C-121.372 754.456 -125.468 750.637 -130.502 750.637C-132.019 750.637 -133.44 751.016 -134.724 751.635L-213.005 658.146C-212.328 656.816 -211.906 655.325 -211.906 653.726C-211.906 648.329 -216.281 643.959 -221.678 643.959C-222.423 643.959 -223.144 644.057 -223.843 644.215L-296.267 535.206C-295.556 533.854 -295.116 532.338 -295.116 530.702C-295.116 529.694 -295.308 528.742 -295.594 527.83L-240.768 513.786C-239.365 517.472 -235.831 520.107 -231.654 520.107C-229.967 520.107 -228.402 519.636 -227.012 518.885L-202.964 542.894C-203.378 543.971 -203.624 545.131 -203.624 546.35C-203.624 551.749 -199.253 556.124 -193.855 556.124C-189.706 556.124 -186.182 553.528 -184.765 549.877H-123.752C-122.75 554.214 -118.887 557.457 -114.247 557.457C-108.845 557.455 -104.475 553.082 -104.475 547.685C-104.475 546.475 -104.724 545.331 -105.123 544.263L-83.5348 530.35C-81.7917 531.98 -79.4627 533.001 -76.8875 533.001C-71.4909 532.999 -67.1152 528.626 -67.1152 523.228C-67.1152 522.848 -67.1841 522.487 -67.2252 522.122L-35.7073 511.544C-34.9047 513.441 -33.5014 515.003 -31.7584 516.062L-78.0939 714.969C-81.4307 715.631 -83.9484 718.575 -83.9484 722.1C-83.9484 724.233 -83.0113 726.133 -81.5538 727.463L-92.0531 761.442C-92.2616 761.425 -92.4635 761.378 -92.6752 761.378C-95.0797 761.378 -97.197 762.559 -98.5182 764.359L-120.84 759.344H-120.835ZM-36.0454 796.383C-37.3306 794.3 -39.6087 792.897 -42.2331 792.897C-43.9762 792.897 -45.5535 793.535 -46.8074 794.554L-82.6731 771.275L-39.7679 772.538C-38.4401 774.291 -36.3523 775.441 -33.9856 775.441C-32.7021 775.441 -31.5121 775.082 -30.4633 774.498L-5.0708 789.093L-36.0438 796.384L-36.0454 796.383ZM51.1174 795.948C49.8011 794.663 48.0154 793.867 46.0311 793.867C43.5265 793.867 41.3173 795.134 40.0092 797.065L9.49246 789.434C9.42844 789.129 9.32178 788.84 9.22165 788.553L34.4073 773.564C35.6974 774.718 37.3781 775.441 39.2459 775.441C41.872 775.441 44.1469 774.042 45.4254 771.961L85.3238 776.946L51.1191 795.949L51.1174 795.948ZM296.774 540.075L229.665 644.966C224.59 645.316 220.573 649.502 220.573 654.665C220.575 655.403 220.667 656.117 220.82 656.81L135.994 752.654C135.003 752.314 133.955 752.091 132.844 752.091C127.451 752.091 123.075 756.466 123.075 761.862C123.075 761.982 123.105 762.092 123.108 762.215L97.9831 771.076C96.9852 769.969 95.6705 769.166 94.1704 768.833L83.7186 728.971C85.5602 727.653 86.7714 725.506 86.7714 723.066C86.773 719.399 84.0501 716.397 80.5213 715.895L35.8287 516.392C37.8508 515.647 39.5512 514.278 40.6952 512.494L73.7329 523.108C73.6935 523.478 73.6197 523.84 73.6197 524.224C73.6213 529.618 77.9954 533.993 83.392 533.993C85.7226 533.992 87.8366 533.142 89.514 531.78L109.5 544.649C109.219 545.558 109.023 546.501 109.023 547.497C109.023 552.896 113.398 557.268 118.795 557.268C123.369 557.268 127.174 554.116 128.242 549.874H190.109C190.58 554.831 194.712 558.722 199.79 558.722C205.185 558.722 209.562 554.35 209.562 548.951C209.562 546.478 208.612 544.248 207.095 542.525L230.497 519.164C231.897 519.936 233.481 520.417 235.193 520.417C238.57 520.417 241.546 518.706 243.302 516.105L295.402 533.467C295.335 533.934 295.259 534.404 295.259 534.891C295.259 536.8 295.825 538.565 296.776 540.072L296.774 540.075ZM298.14 466.409L241.807 503.498C240.064 501.887 237.756 500.879 235.191 500.879C231.964 500.879 229.125 502.461 227.345 504.873L197.425 492.848C197.425 492.799 197.438 492.756 197.438 492.707C197.438 487.311 193.059 482.936 187.665 482.936C183.866 482.936 180.611 485.125 178.993 488.284L120.091 484.223C118.647 480.63 115.145 478.09 111.035 478.09C105.641 478.089 101.262 482.464 101.262 487.861C101.262 489.113 101.52 490.299 101.95 491.401L82.6747 514.529C79.7647 514.744 77.2191 516.206 75.5778 518.412L42.1986 507.688C42.1986 507.542 42.2397 507.404 42.2397 507.253C42.2397 504.26 40.8659 501.618 38.7437 499.824L66.8296 457.753C68.745 458.898 71.0346 459.433 73.3981 459.046C78.34 458.234 81.7573 453.849 81.5341 448.968L225.44 424.215C227.268 428.024 231.409 430.362 235.788 429.642C237.674 429.337 239.324 428.488 240.652 427.317L298.133 460.836C297.866 461.723 297.68 462.64 297.68 463.613C297.68 464.589 297.867 465.518 298.14 466.409ZM252.384 288.294C251.903 289.459 251.629 290.727 251.629 292.055C251.629 295.705 253.651 298.847 256.615 300.524L233.106 410.329C232.944 410.347 232.786 410.334 232.624 410.36C230.1 410.775 227.984 412.14 226.522 414.015L119.835 361.809C119.853 361.587 119.904 361.377 119.904 361.15C119.904 358.525 118.856 356.155 117.172 354.399L170.712 239.015C171.326 239.135 171.963 239.207 172.613 239.207C175.05 239.207 177.26 238.278 178.97 236.803L252.384 288.294ZM75.1346 167.926C77.8148 167.926 80.2473 166.839 82.0133 165.085L163.584 225.703C163.112 226.854 162.841 228.112 162.841 229.433C162.841 232.366 164.159 234.963 166.204 236.755L112.819 351.802C111.962 351.555 111.072 351.38 110.129 351.38C106.38 351.378 103.17 353.51 101.528 356.608L10.208 343.811C9.98645 341.232 8.77356 338.956 6.93857 337.347L72.9172 167.652C73.6312 167.816 74.3648 167.926 75.1346 167.926ZM10.8711 159.52L65.446 159.023C65.6643 161.472 66.7525 163.654 68.4447 165.246L3.81851 331.463L4.72452 165.041C7.49338 164.199 9.74689 162.179 10.8695 159.52H10.8711ZM-6.99603 159.685C-5.76834 162.433 -3.336 164.534 -0.309418 165.233L-1.2236 331.737L-64.3742 167.88C-62.234 165.978 -61.0046 163.18 -61.136 160.175L-6.99603 159.683V159.685ZM-222.681 101.448C-222.842 100.361 -223.214 99.3652 -223.689 98.4397L-132.329 50.5397C-130.313 53.5871 -126.686 55.3857 -122.831 54.8408L-76.2639 152.484C-79.1903 154.443 -80.9268 157.902 -80.5329 161.603L-166.745 224.508C-168.29 223.481 -170.138 222.881 -172.127 222.881C-172.7 222.881 -173.253 222.958 -173.798 223.05L-226.4 110.575C-223.702 108.483 -222.144 105.069 -222.679 101.449L-222.681 101.448ZM-304.457 327.693C-304.457 326.082 -304.884 324.582 -305.578 323.239L-267.172 299.467C-265.435 302.188 -262.409 304.005 -258.947 304.005C-258.813 304.005 -258.693 303.972 -258.561 303.969L-234.405 409.272C-236.675 411.059 -238.157 413.801 -238.157 416.916C-238.157 418.006 -237.937 419.039 -237.61 420.014L-300.761 455.091C-302.356 453.427 -304.537 452.362 -306.978 452.154L-311.48 337.021C-307.428 335.831 -304.457 332.129 -304.455 327.691L-304.457 327.693ZM-211.824 905.772C-213.293 904.887 -214.99 904.352 -216.828 904.352C-217.908 904.351 -218.927 904.567 -219.897 904.891L-294.489 702.224C-293.28 701.626 -292.224 700.789 -291.363 699.77L-256.052 710.59C-256.109 711.033 -256.185 711.467 -256.185 711.92C-256.185 717.318 -251.806 721.689 -246.412 721.689C-245.352 721.688 -244.349 721.476 -243.396 721.168L-170.918 867.654C-173.207 869.441 -174.707 872.201 -174.707 875.329C-174.707 876.425 -174.487 877.453 -174.156 878.437L-211.822 905.772H-211.824ZM41.6833 1060.46C37.2567 1060.46 33.5605 1063.42 32.359 1067.45L-25.7709 1068.79C-26.2748 1063.86 -30.3862 1060.01 -35.448 1060.01C-36.0651 1060.01 -36.6691 1060.08 -37.2583 1060.19L-69.6527 979.214C-66.3143 977.652 -63.9869 974.296 -63.9869 970.373C-63.9853 968.787 -64.3956 967.315 -65.0669 965.991L-44.549 951.68C-42.86 953.081 -40.7198 953.954 -38.3563 953.954C-33.7984 953.954 -30.0038 950.826 -28.9189 946.609H27.7421C28.6546 951.059 32.5921 954.412 37.3158 954.412C40.3374 954.412 43.0029 953.012 44.7968 950.861L69.1504 965.471C68.315 966.912 67.798 968.554 67.798 970.343C67.798 973.476 69.3047 976.231 71.5959 978.017L41.7374 1060.47C41.7194 1060.46 41.7014 1060.46 41.6849 1060.46H41.6833ZM116.369 945.536C111.025 945.536 106.69 949.835 106.615 955.159L84.0107 963.044C82.2874 961.521 80.0536 960.572 77.5703 960.572C75.86 960.572 74.2745 961.053 72.8745 961.825L46.9255 946.261C47.0175 945.733 47.0897 945.199 47.0897 944.64C47.0897 939.246 42.714 934.871 37.3158 934.871C33.0024 934.871 29.3784 937.688 28.0867 941.573H-28.9813C-30.1302 937.454 -33.8707 934.418 -38.3563 934.418C-43.7496 934.418 -48.1286 938.793 -48.1286 944.19C-48.127 945.386 -47.8825 946.522 -47.4837 947.585L-68.4315 962.195C-69.9629 961.198 -71.7897 960.605 -73.7576 960.605C-77.3307 960.604 -80.4229 962.54 -82.1266 965.399L-105.756 956.476C-105.743 956.253 -105.691 956.05 -105.691 955.827C-105.691 950.431 -110.066 946.059 -115.465 946.059C-116.349 946.059 -117.19 946.21 -118.004 946.435L-157.489 881.593C-156.059 879.895 -155.16 877.727 -155.16 875.332C-155.16 871.819 -157.037 868.762 -159.822 867.037L-131.779 770.052C-131.357 770.106 -130.939 770.184 -130.499 770.184C-126.504 770.184 -123.08 767.778 -121.567 764.346L-99.8871 769.215C-99.5982 772.963 -96.4929 775.93 -92.667 775.93C-90.768 775.93 -89.0496 775.182 -87.7546 773.987L-49.376 798.897C-49.4483 799.313 -49.5041 799.734 -49.5041 800.175C-49.5041 804.191 -46.2478 807.448 -42.2282 807.448C-38.6108 807.448 -35.6285 804.796 -35.0688 801.335L-4.16479 794.06C-2.99619 796.524 -0.509644 798.237 2.39383 798.237C5.13971 798.237 7.50323 796.693 8.7424 794.443L38.852 801.965C39.264 805.592 42.307 808.416 46.041 808.416C50.0588 808.416 53.32 805.16 53.32 801.146C53.32 800.938 53.2708 800.736 53.2544 800.531L87.789 781.349C89.0775 782.49 90.7467 783.203 92.603 783.203C96.6176 783.203 99.8772 779.946 99.8772 775.93C99.8772 775.871 99.8607 775.817 99.8607 775.77L124.595 767.041C126.008 769.294 128.3 770.93 131.009 771.449L158.893 870.816C155.516 872.354 153.152 875.741 153.152 879.701C153.152 882.172 154.102 884.414 155.626 886.137L118.363 945.746C117.721 945.616 117.063 945.541 116.377 945.541L116.369 945.536ZM289.438 695.398C289.438 695.692 289.498 695.971 289.523 696.258L259.095 706.221C257.322 703.761 254.45 702.146 251.18 702.146C250.253 702.146 249.373 702.314 248.521 702.558L234.026 663.707C237.595 662.253 240.113 658.756 240.113 654.667C240.113 653.874 239.993 653.124 239.819 652.389L294.504 637.418C295.64 639.551 297.524 641.202 299.829 642.017L298.204 685.731C293.281 686.243 289.436 690.349 289.436 695.4L289.438 695.398ZM324 328.84C324 323.896 320.315 319.851 315.546 319.199L302.08 220.429C305.022 218.747 307.029 215.612 307.029 211.976C307.029 206.582 302.657 202.209 297.257 202.209C296.779 202.209 296.32 202.279 295.857 202.348L236.893 110.514C237.676 109.105 238.163 107.51 238.163 105.785C238.163 100.388 233.788 96.0126 228.389 96.0126C226.595 96.0126 224.928 96.5345 223.479 97.3829L129.358 45.7381C129.513 44.7781 129.572 43.7885 129.421 42.7744C128.634 37.4344 123.665 33.7471 118.325 34.5348C115.509 34.9516 113.175 36.5466 111.693 38.7309L8.19086 8.63603C8.17773 8.53593 8.19095 8.44403 8.17453 8.34885C7.38507 3.0073 2.41843 -0.681738 -2.9158 0.105956C-7.23734 0.744316 -10.4313 4.12649 -11.0977 8.21757L-116.75 38.8851C-118.861 36.3924 -122.151 34.991 -125.621 35.503C-130.665 36.2463 -134.189 40.7313 -133.9 45.7266L-227.217 94.6063C-229.116 93.4329 -231.398 92.8569 -233.773 93.2065C-239.112 93.9942 -242.8 98.9648 -242.014 104.301C-241.815 105.65 -241.346 106.891 -240.673 107.984L-297.805 208.52C-298.412 208.4 -299.036 208.331 -299.679 208.331C-305.076 208.331 -309.448 212.706 -309.448 218.104C-309.448 222.05 -307.098 225.427 -303.727 226.972L-315.953 318.095C-320.524 318.912 -324 322.885 -324 327.691C-324 332.296 -320.803 336.131 -316.512 337.165L-311.987 453.053C-315.276 454.623 -317.571 457.953 -317.571 461.847C-317.571 466.009 -314.952 469.539 -311.285 470.945L-309.291 522.025C-312.462 523.637 -314.658 526.899 -314.658 530.703C-314.658 534.781 -312.15 538.272 -308.598 539.734L-302.927 684.669C-306.244 686.23 -308.562 689.581 -308.562 693.492C-308.562 698.641 -304.562 702.821 -299.502 703.187L-224.202 907.774C-225.676 909.486 -226.602 911.686 -226.602 914.126C-226.602 919.516 -222.223 923.897 -216.826 923.897C-216.06 923.897 -215.32 923.781 -214.602 923.613L-148.223 1003.4C-148.724 1004.58 -149.001 1005.86 -149.001 1007.23C-149.001 1012.62 -144.626 1017 -139.229 1017C-137.263 1017 -135.434 1016.4 -133.896 1015.4L-45.1054 1068.67C-45.1464 1069.04 -45.2153 1069.4 -45.2153 1069.78C-45.2137 1075.17 -40.8363 1079.55 -35.4463 1079.55C-31.5023 1079.55 -28.1327 1077.21 -26.585 1073.85L32.1999 1072.5C33.2257 1076.79 37.0696 1080 41.6849 1080C47.0799 1080 51.4572 1075.63 51.4572 1070.23C51.4572 1069.13 51.2324 1068.09 50.891 1067.1L141.227 1016.01C142.981 1018.63 145.962 1020.36 149.353 1020.36C154.746 1020.36 159.122 1015.98 159.122 1010.58C159.122 1007.77 157.914 1005.25 156.01 1003.47L216.885 927.023C218.039 927.501 219.303 927.768 220.624 927.768C226.026 927.768 230.402 923.398 230.402 918.001C230.403 914.651 228.713 911.706 226.149 909.945L299.54 705.133C304.78 704.954 308.984 700.681 308.984 695.397C308.984 691.434 306.612 688.03 303.215 686.504L304.856 642.436C309.406 641.604 312.86 637.634 312.86 632.843C312.862 628.307 309.757 624.531 305.562 623.425L308.524 543.991C312.189 542.584 314.802 539.054 314.802 534.893C314.802 530.989 312.498 527.646 309.187 526.082L311.18 472.637C314.723 471.173 317.225 467.686 317.225 463.611C317.225 459.799 315.017 456.532 311.838 454.924L316.174 338.411C320.643 337.51 324 333.566 324 328.839V328.84Z" fill="#06BAD1"/>
<path fill-rule="evenodd" clip-rule="evenodd" d="M220.621 908.225C217.946 908.225 215.528 909.307 213.76 911.046L172.158 882.714C172.47 881.759 172.687 880.751 172.687 879.693C172.687 876.813 171.417 874.254 169.434 872.462L247.604 720.985C248.712 721.425 249.91 721.683 251.179 721.683C256.577 721.681 260.949 717.311 260.949 711.914C260.949 711.586 260.887 711.272 260.853 710.947L291.223 701.001C292.093 702.242 293.26 703.243 294.603 703.963L221.381 908.306C221.128 908.286 220.885 908.227 220.623 908.227L220.621 908.225ZM149.348 1000.81C148.363 1000.81 147.429 1001 146.534 1001.27L123.238 962.245C125.028 960.474 126.136 958.021 126.136 955.303C126.138 952.408 124.853 949.835 122.85 948.043L159.809 888.91C160.789 889.239 161.82 889.46 162.915 889.46C165.419 889.458 167.679 888.489 169.411 886.939L211.238 915.428C211.015 916.252 210.852 917.103 210.852 917.998C210.852 920.238 211.633 922.277 212.9 923.92L151.483 1001.06C150.794 1000.91 150.081 1000.81 149.348 1000.81ZM48.0778 1062.9C47.6165 1062.49 47.1258 1062.14 46.5973 1061.83L76.2376 979.974C76.6807 980.035 77.1156 980.107 77.567 980.107C82.9652 980.107 87.341 975.735 87.341 970.34C87.341 969.303 87.1358 968.33 86.8354 967.389L107.874 960.054C109.544 963.034 112.701 965.074 116.362 965.074C117.224 965.074 118.048 964.926 118.844 964.724L142.239 1003.92C140.595 1005.66 139.572 1008 139.572 1010.58C139.572 1010.77 139.613 1010.95 139.623 1011.13L48.0745 1062.9L48.0778 1062.9ZM-130.512 1011.55C-129.86 1010.24 -129.463 1008.79 -129.463 1007.23C-129.463 1003.87 -131.155 1000.92 -133.726 999.155L-117.408 965.394C-116.783 965.522 -116.131 965.594 -115.47 965.594C-112.082 965.594 -109.103 963.871 -107.35 961.25L-83.5217 970.253C-83.5217 970.294 -83.5315 970.332 -83.5315 970.369C-83.5315 975.422 -79.6745 979.536 -74.7473 980.04L-41.7982 1062.4C-42.3267 1062.86 -42.8027 1063.36 -43.2261 1063.92L-130.514 1011.55L-130.512 1011.55ZM-207.056 914.123C-207.056 912.415 -207.533 910.836 -208.301 909.44L-171.364 882.633C-169.646 884.153 -167.409 885.1 -164.937 885.1C-163.766 885.1 -162.659 884.86 -161.623 884.483L-122.391 948.923C-124.149 950.689 -125.242 953.13 -125.242 955.822C-125.242 958.738 -123.934 961.331 -121.907 963.119L-138.536 997.519C-138.769 997.505 -138.996 997.45 -139.232 997.45C-141.404 997.45 -143.395 998.183 -145.015 999.379L-210.087 921.168C-208.233 919.388 -207.057 916.896 -207.057 914.125L-207.056 914.123ZM-236.878 111.496C-235.143 112.411 -233.131 112.825 -231.045 112.543L-178.364 225.183C-180.513 226.972 -181.903 229.632 -181.903 232.648C-181.903 233.429 -181.79 234.181 -181.616 234.913L-254.739 285.446C-256.021 284.831 -257.434 284.459 -258.949 284.459C-264.339 284.459 -268.716 288.837 -268.716 294.229C-268.716 294.311 -268.693 294.39 -268.69 294.475L-309.03 319.444C-309.621 319.069 -310.262 318.768 -310.932 318.528L-298.754 227.776C-293.798 227.303 -289.913 223.179 -289.913 218.102C-289.913 215.161 -291.236 212.559 -293.291 210.765L-236.88 111.496H-236.878ZM-10.5856 13.3097C-9.49741 16.1159 -7.17169 18.2081 -4.36508 19.0779L-0.598267 146.325C-4.41428 147.339 -7.31613 150.58 -7.77078 154.645L-62.7609 155.145C-64.6517 152.339 -67.9211 150.647 -71.4614 150.871L-118.209 52.8322C-115.534 50.7366 -114.001 47.343 -114.532 43.7409C-114.546 43.6589 -114.577 43.5834 -114.595 43.5013L-10.5872 13.3097H-10.5856ZM110.08 45.6248C110.519 48.6 112.279 51.0238 114.652 52.4843L75.1592 148.384C75.1494 148.384 75.1396 148.381 75.133 148.381C71.2349 148.38 67.8948 150.677 66.3257 153.974L11.5621 154.474C11.0582 150.549 8.23193 147.329 4.43887 146.31L0.677032 19.2469C3.77582 18.5364 6.22791 16.4227 7.43753 13.6559L110.022 43.4357C109.968 44.1545 109.968 44.8847 110.078 45.6248H110.08ZM219.84 101.133C219.082 102.524 218.61 104.091 218.61 105.783C218.61 108.814 220.025 111.492 222.19 113.286L173.974 219.799C173.524 219.733 173.079 219.663 172.611 219.663C170.368 219.663 168.324 220.449 166.678 221.72L84.5294 160.674C84.7494 159.865 84.9053 159.031 84.9053 158.153C84.9053 154.556 82.9373 151.448 80.0486 149.755L119.505 53.9432C120.057 53.9547 120.608 53.9481 121.171 53.8677C123.683 53.4952 125.803 52.1807 127.292 50.3559L219.838 101.133H219.84ZM291.292 219.667L262.494 282.394C262.131 282.353 261.772 282.286 261.399 282.286C259.172 282.286 257.137 283.065 255.49 284.321L181.806 232.635C182.152 231.627 182.385 230.562 182.385 229.432C182.385 226.312 180.893 223.565 178.614 221.778L226.776 115.395C227.306 115.48 227.836 115.556 228.384 115.556C230.177 115.556 231.825 115.04 233.269 114.2L291.177 204.385C288.943 206.175 287.484 208.894 287.484 211.974C287.484 215.117 288.989 217.879 291.294 219.666L291.292 219.667ZM308.992 320.615L270.733 294.794C270.989 293.919 271.176 293.015 271.176 292.053C271.176 288.838 269.597 286.008 267.2 284.23L295.942 221.615C296.349 221.67 296.748 221.735 297.168 221.738L310.54 319.798C309.995 320.025 309.488 320.3 308.994 320.614L308.992 320.615ZM300.749 456.534L243.429 423.099C243.921 421.637 244.115 420.05 243.852 418.421C243.292 415.022 241.04 412.341 238.099 411.061L261.488 301.819C264.065 301.798 266.395 300.77 268.128 299.115L305.573 324.386C304.884 325.729 304.454 327.229 304.454 328.84C304.454 333.153 307.267 336.773 311.144 338.066L306.829 453.901C304.477 454.052 302.356 455.006 300.748 456.534H300.749ZM297.417 528.831L244.894 511.321C244.907 511.096 244.963 510.878 244.963 510.645C244.963 509.637 244.763 508.682 244.477 507.767L300.771 470.706C302.21 472.061 304.057 472.962 306.112 473.244L304.175 525.206C301.437 525.445 299.042 526.794 297.416 528.829L297.417 528.831ZM293.352 632.504L237.326 647.845C236.629 647.134 235.813 646.561 234.932 646.089L300.541 543.528C301.45 543.999 302.419 544.34 303.462 544.504L300.521 623.457C296.49 624.559 293.508 628.154 293.352 632.504ZM163.896 870.024L136.12 771.03C139.899 769.678 142.617 766.102 142.617 761.863C142.617 759.417 141.686 757.211 140.211 755.498L223.385 661.52C224.831 662.982 226.742 663.96 228.865 664.29L244.126 705.182C242.455 706.935 241.41 709.3 241.41 711.917C241.41 714.188 242.216 716.254 243.524 717.915L164.973 870.147C164.628 870.075 164.259 870.057 163.898 870.024H163.896ZM-299.792 539.004L-228.315 646.588C-230.231 648.375 -231.45 650.902 -231.45 653.726C-231.45 656.199 -230.502 658.429 -228.987 660.153L-244.871 702.302C-245.377 702.22 -245.884 702.148 -246.412 702.148C-249.538 702.148 -252.287 703.636 -254.074 705.922L-289.185 695.17C-289.093 694.621 -289.017 694.066 -289.017 693.493C-289.017 688.395 -292.937 684.258 -297.918 683.808L-303.53 540.339C-302.174 540.147 -300.912 539.694 -299.792 539.007V539.004ZM-301.913 469.599L-240.758 506.852C-240.988 507.45 -241.154 508.069 -241.264 508.717L-298.491 523.371C-300.065 521.994 -302.067 521.128 -304.286 520.99L-306.226 471.457C-304.621 471.196 -303.159 470.545 -301.915 469.599H-301.913ZM-172.127 242.422C-171.474 242.422 -170.837 242.35 -170.218 242.227L-116.701 352.745C-119.171 354.519 -120.791 357.397 -120.791 360.668C-120.791 361.401 -120.695 362.117 -120.544 362.803L-220.472 411.23C-222.241 408.763 -225.12 407.144 -228.389 407.144C-228.834 407.144 -229.259 407.219 -229.696 407.273L-253.736 302.474C-250.998 300.742 -249.17 297.71 -249.17 294.233C-249.17 292.239 -249.774 290.391 -250.796 288.847L-179.198 239.368C-177.417 241.242 -174.916 242.422 -172.129 242.422H-172.127ZM-4.79504 336.486C-7.28983 338.112 -8.96234 340.848 -9.17734 343.993L-102.011 356.885C-103.486 353.364 -106.966 350.896 -111.022 350.896C-111.34 350.894 -111.644 350.961 -111.954 350.988L-165.711 239.969C-163.67 238.175 -162.355 235.577 -162.355 232.651C-162.355 231.082 -162.759 229.625 -163.415 228.311L-78.6125 166.441C-76.5248 169.193 -73.0781 170.784 -69.4196 170.241C-69.2424 170.218 -69.0815 170.153 -68.9009 170.115L-4.79343 336.486H-4.79504ZM105.062 495.538C106.715 496.829 108.773 497.628 111.035 497.628C115.941 497.628 119.96 494.005 120.661 489.293L177.937 493.153C178.172 498.337 182.421 502.479 187.665 502.479C191.224 502.479 194.304 500.554 196.013 497.715L225.529 509.572C225.484 509.928 225.422 510.284 225.422 510.648C225.424 512.498 225.962 514.208 226.853 515.68L202.792 539.703C201.843 539.397 200.845 539.187 199.79 539.187C195.869 539.187 192.51 541.506 190.956 544.842H128.152C126.988 540.748 123.261 537.732 118.793 537.732C116.225 537.732 113.899 538.747 112.152 540.375L92.4913 527.708C92.9148 526.624 93.1643 525.457 93.1643 524.228C93.1643 520.588 91.1504 517.452 88.201 515.768L105.062 495.539V495.538ZM46.4037 767.003C46.2346 765.971 45.867 765.006 45.3122 764.169L76.5363 729.701C77.2502 730.024 78.0315 730.206 78.8488 730.279L89.1497 769.557C88.0631 770.142 87.1391 770.981 86.4793 772.013L46.4037 767.003ZM-27.1594 770.589C-26.8886 769.824 -26.713 769.017 -26.713 768.167C-26.713 765.566 -28.0884 763.304 -30.1384 762.019L-24.5367 517.253C-20.4482 516.328 -17.374 512.839 -17.0113 508.562L22.8888 509.16C23.5371 512.42 25.8021 515.089 28.8172 516.306L35.3035 762.067C33.3028 763.36 31.9684 765.605 31.9684 768.167C31.9684 768.485 32.0242 768.789 32.0652 769.091L5.93079 784.643C4.88037 784.052 3.68393 783.683 2.38895 783.683C0.778809 783.683 -0.691833 784.224 -1.89655 785.102L-27.1577 770.589H-27.1594ZM-85.8687 766.142C-86.2216 765.188 -86.7534 764.323 -87.4476 763.611L-76.8547 729.353C-76.7923 729.356 -76.7316 729.373 -76.6692 729.373C-75.5121 729.373 -74.4387 729.082 -73.4687 728.605L-40.6607 765.27C-40.9545 765.95 -41.117 766.688 -41.1958 767.456L-85.8704 766.142H-85.8687ZM-108.071 540.172C-109.755 538.784 -111.89 537.916 -114.244 537.916C-118.642 537.916 -122.322 540.845 -123.546 544.842H-184.23C-184.962 540.169 -188.974 536.585 -193.853 536.585C-196.176 536.583 -198.276 537.425 -199.954 538.777L-223.346 515.422C-222.433 513.937 -221.88 512.209 -221.88 510.335C-221.88 510.1 -221.936 509.88 -221.952 509.647L-189.937 496.785C-188.15 499.058 -185.404 500.543 -182.289 500.543C-177.683 500.543 -173.851 497.349 -172.813 493.063L-115.259 489.184C-113.787 492.722 -110.306 495.208 -106.239 495.208C-104.829 495.208 -103.493 494.893 -102.283 494.358L-83.8828 516.431C-85.5914 518.187 -86.6598 520.585 -86.6598 523.232C-86.6582 524.226 -86.4678 525.168 -86.1921 526.071L-108.071 540.174V540.172ZM-111.022 370.439C-110.081 370.439 -109.195 370.265 -108.335 370.017L-74.6472 439.487C-75.7337 440.54 -76.5494 441.855 -77.0565 443.32L-218.717 417.914C-218.679 417.581 -218.614 417.262 -218.614 416.916C-218.614 416.596 -218.676 416.291 -218.711 415.979L-118.188 367.262C-116.403 369.205 -113.866 370.439 -111.022 370.439ZM-35.1542 761.008C-35.8616 761.125 -36.5247 761.338 -37.1451 761.642L-69.9744 724.95C-69.6001 724.076 -69.3933 723.115 -69.3933 722.1C-69.3933 719.382 -70.905 717.042 -73.1109 715.79L-29.8774 530.213L-35.1542 761.01V761.008ZM32.4641 497.484C28.1704 497.484 24.5645 500.274 23.2581 504.127L-17.9238 503.511C-19.5044 500.242 -22.8247 497.968 -26.6982 497.968C-27.5222 497.968 -28.3116 498.103 -29.0732 498.295L-60.8208 453.255C-59.882 452.277 -59.1648 451.097 -58.697 449.792L-5.25793 448.44C-3.65274 451.63 -0.378357 453.841 3.43768 453.841C7.15851 453.839 10.3524 451.734 12.0036 448.673L62.1569 450.601C62.1733 450.729 62.1601 450.854 62.1815 450.987C62.3587 452.088 62.7542 453.097 63.2598 454.026L34.1448 497.651C33.5917 497.556 33.0435 497.484 32.4674 497.484H32.4641ZM72.223 723.07C72.223 724.185 72.4888 725.221 72.9353 726.164L41.2073 761.197C40.9201 761.115 40.6246 761.046 40.3193 760.999L34.2941 532.582L75.5991 716.949C73.5704 718.242 72.223 720.488 72.223 723.068V723.07ZM224.49 419.263L80.0289 444.116C79.1246 442.711 77.8641 441.602 76.4132 440.822L109.461 370.855C109.687 370.872 109.904 370.923 110.13 370.923C113.5 370.923 116.466 369.223 118.222 366.635L224.572 418.672C224.547 418.867 224.506 419.064 224.49 419.263ZM100.397 361.538C100.525 364.739 102.165 367.55 104.65 369.237L71.3711 439.692C70.9969 439.706 70.6161 439.7 70.237 439.761C66.8067 440.324 64.1133 442.616 62.8429 445.588L13.1673 443.674C12.9655 438.648 8.98532 434.632 3.97934 434.353L3.7709 353.838C6.24762 352.963 8.26151 351.142 9.36447 348.779L100.399 361.536L100.397 361.538ZM-8.21555 348.946C-6.87625 351.669 -4.34207 353.679 -1.27121 354.255L-1.05948 435.441C-3.99905 436.977 -6.04245 439.94 -6.2706 443.425L-58.2588 444.743C-59.0893 440.184 -63.0596 436.721 -67.8571 436.721C-68.6777 436.72 -69.4656 436.856 -70.2288 437.046L-103.987 367.427C-102.566 365.949 -101.64 364.021 -101.368 361.882L-8.21555 348.946ZM-298.335 459.51L-234.81 424.225C-233.088 425.738 -230.858 426.685 -228.386 426.685C-225.164 426.685 -222.333 425.108 -220.554 422.702L-77.4374 448.366C-76.5626 452.864 -72.6103 456.264 -67.8538 456.264C-66.9134 456.264 -66.0254 456.091 -65.1604 455.843L-33.5063 500.746C-35.0327 502.238 -36.0405 504.225 -36.3343 506.445L-69.0602 517.424C-70.841 515.033 -73.6689 513.463 -76.881 513.463C-77.7837 513.463 -78.642 513.62 -79.4676 513.852L-98.3607 491.182C-97.1806 489.566 -96.4568 487.593 -96.4568 485.434C-96.4568 480.038 -100.836 475.663 -106.232 475.663C-111.199 475.663 -115.255 479.38 -115.878 484.175L-172.948 488.02C-174.146 483.973 -177.846 481.003 -182.284 481.003C-187.68 481.001 -192.053 485.378 -192.053 490.769C-192.053 491.282 -191.977 491.768 -191.905 492.259L-223.541 504.888C-225.294 502.281 -228.273 500.564 -231.649 500.564C-233.976 500.564 -236.087 501.412 -237.768 502.771L-298.777 465.61C-298.289 464.45 -298.018 463.178 -298.018 461.847C-298.018 461.037 -298.146 460.262 -298.33 459.51H-298.335ZM-164.933 865.56C-165.393 865.56 -165.828 865.634 -166.276 865.695L-239.148 718.394C-237.604 716.668 -236.64 714.415 -236.64 711.919C-236.64 708.863 -238.07 706.169 -240.267 704.378L-224.667 662.983C-223.72 663.289 -222.729 663.499 -221.678 663.499C-219.732 663.499 -217.931 662.914 -216.411 661.938L-138.566 754.899C-139.639 756.468 -140.275 758.362 -140.275 760.408C-140.275 763.544 -138.766 766.311 -136.467 768.093L-164.653 865.588C-164.748 865.583 -164.838 865.56 -164.933 865.558V865.56ZM-120.835 759.344C-121.372 754.456 -125.468 750.637 -130.502 750.637C-132.019 750.637 -133.44 751.016 -134.724 751.635L-213.005 658.146C-212.328 656.816 -211.906 655.325 -211.906 653.726C-211.906 648.329 -216.281 643.959 -221.678 643.959C-222.423 643.959 -223.144 644.057 -223.843 644.215L-296.267 535.206C-295.556 533.854 -295.116 532.338 -295.116 530.702C-295.116 529.694 -295.308 528.742 -295.594 527.83L-240.768 513.786C-239.365 517.472 -235.831 520.107 -231.654 520.107C-229.967 520.107 -228.402 519.636 -227.012 518.885L-202.964 542.894C-203.378 543.971 -203.624 545.131 -203.624 546.35C-203.624 551.749 -199.253 556.124 -193.855 556.124C-189.706 556.124 -186.182 553.528 -184.765 549.877H-123.752C-122.75 554.214 -118.887 557.457 -114.247 557.457C-108.845 557.455 -104.475 553.082 -104.475 547.685C-104.475 546.475 -104.724 545.331 -105.123 544.263L-83.5348 530.35C-81.7917 531.98 -79.4627 533.001 -76.8875 533.001C-71.4909 532.999 -67.1152 528.626 -67.1152 523.228C-67.1152 522.848 -67.1841 522.487 -67.2252 522.122L-35.7073 511.544C-34.9047 513.441 -33.5014 515.003 -31.7584 516.062L-78.0939 714.969C-81.4307 715.631 -83.9484 718.575 -83.9484 722.1C-83.9484 724.233 -83.0113 726.133 -81.5538 727.463L-92.0531 761.442C-92.2616 761.425 -92.4635 761.378 -92.6752 761.378C-95.0797 761.378 -97.197 762.559 -98.5182 764.359L-120.84 759.344H-120.835ZM-36.0454 796.383C-37.3306 794.3 -39.6087 792.897 -42.2331 792.897C-43.9762 792.897 -45.5535 793.535 -46.8074 794.554L-82.6731 771.275L-39.7679 772.538C-38.4401 774.291 -36.3523 775.441 -33.9856 775.441C-32.7021 775.441 -31.5121 775.082 -30.4633 774.498L-5.0708 789.093L-36.0438 796.384L-36.0454 796.383ZM51.1174 795.948C49.8011 794.663 48.0154 793.867 46.0311 793.867C43.5265 793.867 41.3173 795.134 40.0092 797.065L9.49246 789.434C9.42844 789.129 9.32178 788.84 9.22165 788.553L34.4073 773.564C35.6974 774.718 37.3781 775.441 39.2459 775.441C41.872 775.441 44.1469 774.042 45.4254 771.961L85.3238 776.946L51.1191 795.949L51.1174 795.948ZM296.774 540.075L229.665 644.966C224.59 645.316 220.573 649.502 220.573 654.665C220.575 655.403 220.667 656.117 220.82 656.81L135.994 752.654C135.003 752.314 133.955 752.091 132.844 752.091C127.451 752.091 123.075 756.466 123.075 761.862C123.075 761.982 123.105 762.092 123.108 762.215L97.9831 771.076C96.9852 769.969 95.6705 769.166 94.1704 768.833L83.7186 728.971C85.5602 727.653 86.7714 725.506 86.7714 723.066C86.773 719.399 84.0501 716.397 80.5213 715.895L35.8287 516.392C37.8508 515.647 39.5512 514.278 40.6952 512.494L73.7329 523.108C73.6935 523.478 73.6197 523.84 73.6197 524.224C73.6213 529.618 77.9954 533.993 83.392 533.993C85.7226 533.992 87.8366 533.142 89.514 531.78L109.5 544.649C109.219 545.558 109.023 546.501 109.023 547.497C109.023 552.896 113.398 557.268 118.795 557.268C123.369 557.268 127.174 554.116 128.242 549.874H190.109C190.58 554.831 194.712 558.722 199.79 558.722C205.185 558.722 209.562 554.35 209.562 548.951C209.562 546.478 208.612 544.248 207.095 542.525L230.497 519.164C231.897 519.936 233.481 520.417 235.193 520.417C238.57 520.417 241.546 518.706 243.302 516.105L295.402 533.467C295.335 533.934 295.259 534.404 295.259 534.891C295.259 536.8 295.825 538.565 296.776 540.072L296.774 540.075ZM298.14 466.409L241.807 503.498C240.064 501.887 237.756 500.879 235.191 500.879C231.964 500.879 229.125 502.461 227.345 504.873L197.425 492.848C197.425 492.799 197.438 492.756 197.438 492.707C197.438 487.311 193.059 482.936 187.665 482.936C183.866 482.936 180.611 485.125 178.993 488.284L120.091 484.223C118.647 480.63 115.145 478.09 111.035 478.09C105.641 478.089 101.262 482.464 101.262 487.861C101.262 489.113 101.52 490.299 101.95 491.401L82.6747 514.529C79.7647 514.744 77.2191 516.206 75.5778 518.412L42.1986 507.688C42.1986 507.542 42.2397 507.404 42.2397 507.253C42.2397 504.26 40.8659 501.618 38.7437 499.824L66.8296 457.753C68.745 458.898 71.0346 459.433 73.3981 459.046C78.34 458.234 81.7573 453.849 81.5341 448.968L225.44 424.215C227.268 428.024 231.409 430.362 235.788 429.642C237.674 429.337 239.324 428.488 240.652 427.317L298.133 460.836C297.866 461.723 297.68 462.64 297.68 463.613C297.68 464.589 297.867 465.518 298.14 466.409ZM252.384 288.294C251.903 289.459 251.629 290.727 251.629 292.055C251.629 295.705 253.651 298.847 256.615 300.524L233.106 410.329C232.944 410.347 232.786 410.334 232.624 410.36C230.1 410.775 227.984 412.14 226.522 414.015L119.835 361.809C119.853 361.587 119.904 361.377 119.904 361.15C119.904 358.525 118.856 356.155 117.172 354.399L170.712 239.015C171.326 239.135 171.963 239.207 172.613 239.207C175.05 239.207 177.26 238.278 178.97 236.803L252.384 288.294ZM75.1346 167.926C77.8148 167.926 80.2473 166.839 82.0133 165.085L163.584 225.703C163.112 226.854 162.841 228.112 162.841 229.433C162.841 232.366 164.159 234.963 166.204 236.755L112.819 351.802C111.962 351.555 111.072 351.38 110.129 351.38C106.38 351.378 103.17 353.51 101.528 356.608L10.208 343.811C9.98645 341.232 8.77356 338.956 6.93857 337.347L72.9172 167.652C73.6312 167.816 74.3648 167.926 75.1346 167.926ZM10.8711 159.52L65.446 159.023C65.6643 161.472 66.7525 163.654 68.4447 165.246L3.81851 331.463L4.72452 165.041C7.49338 164.199 9.74689 162.179 10.8695 159.52H10.8711ZM-6.99603 159.685C-5.76834 162.433 -3.336 164.534 -0.309418 165.233L-1.2236 331.737L-64.3742 167.88C-62.234 165.978 -61.0046 163.18 -61.136 160.175L-6.99603 159.683V159.685ZM-222.681 101.448C-222.842 100.361 -223.214 99.3652 -223.689 98.4397L-132.329 50.5397C-130.313 53.5871 -126.686 55.3857 -122.831 54.8408L-76.2639 152.484C-79.1903 154.443 -80.9268 157.902 -80.5329 161.603L-166.745 224.508C-168.29 223.481 -170.138 222.881 -172.127 222.881C-172.7 222.881 -173.253 222.958 -173.798 223.05L-226.4 110.575C-223.702 108.483 -222.144 105.069 -222.679 101.449L-222.681 101.448ZM-304.457 327.693C-304.457 326.082 -304.884 324.582 -305.578 323.239L-267.172 299.467C-265.435 302.188 -262.409 304.005 -258.947 304.005C-258.813 304.005 -258.693 303.972 -258.561 303.969L-234.405 409.272C-236.675 411.059 -238.157 413.801 -238.157 416.916C-238.157 418.006 -237.937 419.039 -237.61 420.014L-300.761 455.091C-302.356 453.427 -304.537 452.362 -306.978 452.154L-311.48 337.021C-307.428 335.831 -304.457 332.129 -304.455 327.691L-304.457 327.693ZM-211.824 905.772C-213.293 904.887 -214.99 904.352 -216.828 904.352C-217.908 904.351 -218.927 904.567 -219.897 904.891L-294.489 702.224C-293.28 701.626 -292.224 700.789 -291.363 699.77L-256.052 710.59C-256.109 711.033 -256.185 711.467 -256.185 711.92C-256.185 717.318 -251.806 721.689 -246.412 721.689C-245.352 721.688 -244.349 721.476 -243.396 721.168L-170.918 867.654C-173.207 869.441 -174.707 872.201 -174.707 875.329C-174.707 876.425 -174.487 877.453 -174.156 878.437L-211.822 905.772H-211.824ZM41.6833 1060.46C37.2567 1060.46 33.5605 1063.42 32.359 1067.45L-25.7709 1068.79C-26.2748 1063.86 -30.3862 1060.01 -35.448 1060.01C-36.0651 1060.01 -36.6691 1060.08 -37.2583 1060.19L-69.6527 979.214C-66.3143 977.652 -63.9869 974.296 -63.9869 970.373C-63.9853 968.787 -64.3956 967.315 -65.0669 965.991L-44.549 951.68C-42.86 953.081 -40.7198 953.954 -38.3563 953.954C-33.7984 953.954 -30.0038 950.826 -28.9189 946.609H27.7421C28.6546 951.059 32.5921 954.412 37.3158 954.412C40.3374 954.412 43.0029 953.012 44.7968 950.861L69.1504 965.471C68.315 966.912 67.798 968.554 67.798 970.343C67.798 973.476 69.3047 976.231 71.5959 978.017L41.7374 1060.47C41.7194 1060.46 41.7014 1060.46 41.6849 1060.46H41.6833ZM116.369 945.536C111.025 945.536 106.69 949.835 106.615 955.159L84.0107 963.044C82.2874 961.521 80.0536 960.572 77.5703 960.572C75.86 960.572 74.2745 961.053 72.8745 961.825L46.9255 946.261C47.0175 945.733 47.0897 945.199 47.0897 944.64C47.0897 939.246 42.714 934.871 37.3158 934.871C33.0024 934.871 29.3784 937.688 28.0867 941.573H-28.9813C-30.1302 937.454 -33.8707 934.418 -38.3563 934.418C-43.7496 934.418 -48.1286 938.793 -48.1286 944.19C-48.127 945.386 -47.8825 946.522 -47.4837 947.585L-68.4315 962.195C-69.9629 961.198 -71.7897 960.605 -73.7576 960.605C-77.3307 960.604 -80.4229 962.54 -82.1266 965.399L-105.756 956.476C-105.743 956.253 -105.691 956.05 -105.691 955.827C-105.691 950.431 -110.066 946.059 -115.465 946.059C-116.349 946.059 -117.19 946.21 -118.004 946.435L-157.489 881.593C-156.059 879.895 -155.16 877.727 -155.16 875.332C-155.16 871.819 -157.037 868.762 -159.822 867.037L-131.779 770.052C-131.357 770.106 -130.939 770.184 -130.499 770.184C-126.504 770.184 -123.08 767.778 -121.567 764.346L-99.8871 769.215C-99.5982 772.963 -96.4929 775.93 -92.667 775.93C-90.768 775.93 -89.0496 775.182 -87.7546 773.987L-49.376 798.897C-49.4483 799.313 -49.5041 799.734 -49.5041 800.175C-49.5041 804.191 -46.2478 807.448 -42.2282 807.448C-38.6108 807.448 -35.6285 804.796 -35.0688 801.335L-4.16479 794.06C-2.99619 796.524 -0.509644 798.237 2.39383 798.237C5.13971 798.237 7.50323 796.693 8.7424 794.443L38.852 801.965C39.264 805.592 42.307 808.416 46.041 808.416C50.0588 808.416 53.32 805.16 53.32 801.146C53.32 800.938 53.2708 800.736 53.2544 800.531L87.789 781.349C89.0775 782.49 90.7467 783.203 92.603 783.203C96.6176 783.203 99.8772 779.946 99.8772 775.93C99.8772 775.871 99.8607 775.817 99.8607 775.77L124.595 767.041C126.008 769.294 128.3 770.93 131.009 771.449L158.893 870.816C155.516 872.354 153.152 875.741 153.152 879.701C153.152 882.172 154.102 884.414 155.626 886.137L118.363 945.746C117.721 945.616 117.063 945.541 116.377 945.541L116.369 945.536ZM289.438 695.398C289.438 695.692 289.498 695.971 289.523 696.258L259.095 706.221C257.322 703.761 254.45 702.146 251.18 702.146C250.253 702.146 249.373 702.314 248.521 702.558L234.026 663.707C237.595 662.253 240.113 658.756 240.113 654.667C240.113 653.874 239.993 653.124 239.819 652.389L294.504 637.418C295.64 639.551 297.524 641.202 299.829 642.017L298.204 685.731C293.281 686.243 289.436 690.349 289.436 695.4L289.438 695.398ZM324 328.84C324 323.896 320.315 319.851 315.546 319.199L302.08 220.429C305.022 218.747 307.029 215.612 307.029 211.976C307.029 206.582 302.657 202.209 297.257 202.209C296.779 202.209 296.32 202.279 295.857 202.348L236.893 110.514C237.676 109.105 238.163 107.51 238.163 105.785C238.163 100.388 233.788 96.0126 228.389 96.0126C226.595 96.0126 224.928 96.5345 223.479 97.3829L129.358 45.7381C129.513 44.7781 129.572 43.7885 129.421 42.7744C128.634 37.4344 123.665 33.7471 118.325 34.5348C115.509 34.9516 113.175 36.5466 111.693 38.7309L8.19086 8.63603C8.17773 8.53593 8.19095 8.44403 8.17453 8.34885C7.38507 3.0073 2.41843 -0.681738 -2.9158 0.105956C-7.23734 0.744316 -10.4313 4.12649 -11.0977 8.21757L-116.75 38.8851C-118.861 36.3924 -122.151 34.991 -125.621 35.503C-130.665 36.2463 -134.189 40.7313 -133.9 45.7266L-227.217 94.6063C-229.116 93.4329 -231.398 92.8569 -233.773 93.2065C-239.112 93.9942 -242.8 98.9648 -242.014 104.301C-241.815 105.65 -241.346 106.891 -240.673 107.984L-297.805 208.52C-298.412 208.4 -299.036 208.331 -299.679 208.331C-305.076 208.331 -309.448 212.706 -309.448 218.104C-309.448 222.05 -307.098 225.427 -303.727 226.972L-315.953 318.095C-320.524 318.912 -324 322.885 -324 327.691C-324 332.296 -320.803 336.131 -316.512 337.165L-311.987 453.053C-315.276 454.623 -317.571 457.953 -317.571 461.847C-317.571 466.009 -314.952 469.539 -311.285 470.945L-309.291 522.025C-312.462 523.637 -314.658 526.899 -314.658 530.703C-314.658 534.781 -312.15 538.272 -308.598 539.734L-302.927 684.669C-306.244 686.23 -308.562 689.581 -308.562 693.492C-308.562 698.641 -304.562 702.821 -299.502 703.187L-224.202 907.774C-225.676 909.486 -226.602 911.686 -226.602 914.126C-226.602 919.516 -222.223 923.897 -216.826 923.897C-216.06 923.897 -215.32 923.781 -214.602 923.613L-148.223 1003.4C-148.724 1004.58 -149.001 1005.86 -149.001 1007.23C-149.001 1012.62 -144.626 1017 -139.229 1017C-137.263 1017 -135.434 1016.4 -133.896 1015.4L-45.1054 1068.67C-45.1464 1069.04 -45.2153 1069.4 -45.2153 1069.78C-45.2137 1075.17 -40.8363 1079.55 -35.4463 1079.55C-31.5023 1079.55 -28.1327 1077.21 -26.585 1073.85L32.1999 1072.5C33.2257 1076.79 37.0696 1080 41.6849 1080C47.0799 1080 51.4572 1075.63 51.4572 1070.23C51.4572 1069.13 51.2324 1068.09 50.891 1067.1L141.227 1016.01C142.981 1018.63 145.962 1020.36 149.353 1020.36C154.746 1020.36 159.122 1015.98 159.122 1010.58C159.122 1007.77 157.914 1005.25 156.01 1003.47L216.885 927.023C218.039 927.501 219.303 927.768 220.624 927.768C226.026 927.768 230.402 923.398 230.402 918.001C230.403 914.651 228.713 911.706 226.149 909.945L299.54 705.133C304.78 704.954 308.984 700.681 308.984 695.397C308.984 691.434 306.612 688.03 303.215 686.504L304.856 642.436C309.406 641.604 312.86 637.634 312.86 632.843C312.862 628.307 309.757 624.531 305.562 623.425L308.524 543.991C312.189 542.584 314.802 539.054 314.802 534.893C314.802 530.989 312.498 527.646 309.187 526.082L311.18 472.637C314.723 471.173 317.225 467.686 317.225 463.611C317.225 459.799 315.017 456.532 311.838 454.924L316.174 338.411C320.643 337.51 324 333.566 324 328.839V328.84Z" stroke="#06BAD1" stroke-width="2" mask="url(#path-1-outside-1_5_4376)"/>
<path d="M64.458 826.328C68.7526 826.328 72.2324 829.819 72.2324 834.106C72.2324 834.709 72.1414 835.279 72.0117 835.821L118.203 862.595C119.247 862.066 120.415 861.734 121.684 861.733V861.731C125.979 861.733 129.459 865.21 129.459 869.507C129.459 873.802 125.977 877.279 121.684 877.279C120.738 877.279 119.838 877.103 119.006 876.798L80.4609 910.021C80.4689 910.082 80.4771 910.155 80.4766 910.235L80.4668 910.636C80.2583 914.748 76.8569 918.008 72.7012 918.01H72.7002C70.0548 918.01 67.7365 916.682 66.334 914.668L-64.792 916.945C-66.035 919.579 -68.7108 921.405 -71.8223 921.405C-76.1179 921.405 -79.5984 917.921 -79.5986 913.631C-79.5986 913.16 -79.5495 912.704 -79.4697 912.263L-121.087 876.11C-122.04 876.535 -123.084 876.792 -124.206 876.792C-128.498 876.792 -131.98 873.31 -131.98 869.019C-131.98 864.724 -128.497 861.244 -124.206 861.244C-122.324 861.244 -120.615 861.93 -119.276 863.036L-66.3438 836.574C-65.6752 832.962 -62.5388 830.213 -58.7285 830.213C-55.1868 830.213 -52.221 832.591 -51.2822 835.833L-7.12891 846.549C-5.77012 844.328 -3.3404 842.821 -0.529297 842.822L-0.256836 842.827C2.4098 842.92 4.70461 844.369 6.03125 846.487L56.6807 833.991C56.7423 829.754 60.2057 826.328 64.458 826.328ZM7.45801 883.571C6.08294 885.287 4.00646 886.417 1.65234 886.491L1.40918 886.495C-0.994248 886.495 -3.12691 885.383 -4.55078 883.675L-59.4111 910.811L61.0449 908.722L7.45801 883.571ZM-76.1143 907.18C-74.8863 906.355 -73.4174 905.86 -71.8213 905.86C-69.8967 905.86 -68.147 906.573 -66.792 907.729L-13.5986 881.409L-115.628 872.851L-76.1143 907.18ZM15.7031 880.768L67.1006 904.891C68.4027 903.523 70.1902 902.612 72.2051 902.481V902.462H72.7051C74.6458 902.462 76.4173 903.179 77.7793 904.358L114.363 872.824L15.7031 880.768ZM-52.0254 841.868C-53.3675 844.182 -55.8485 845.762 -58.7266 845.762C-61.2768 845.762 -63.5354 844.533 -64.9512 842.63L-113.619 866.959L-5.83496 875.999C-5.25202 874.437 -4.1858 873.12 -2.80762 872.224C-2.99623 867.693 -3.23263 862.097 -3.40234 857.782C-5.67411 856.875 -7.42559 854.949 -8.0498 852.545L-52.0254 841.868ZM7.01562 852.465C6.43273 854.805 4.79287 856.712 2.63672 857.676C2.78328 861.432 2.98979 866.349 3.19336 871.164C5.47317 871.705 7.36754 873.238 8.38086 875.296L113.468 866.831L68.4775 840.753C67.3071 841.468 65.9308 841.881 64.46 841.881H64.458C62.3276 841.881 60.4194 841.017 59.0176 839.64L7.01562 852.465Z" fill="#06BAD1" stroke="#06BAD1"/>
</svg>
