<svg width="14" height="22" viewBox="0 0 14 22" fill="none" xmlns="http://www.w3.org/2000/svg">
<mask id="path-1-outside-1_595_4331" maskUnits="userSpaceOnUse" x="0" y="0" width="14" height="22" fill="black">
<rect fill="white" width="14" height="22"/>
<path fill-rule="evenodd" clip-rule="evenodd" d="M11.0839 17.819C11.0344 17.819 10.9896 17.839 10.9569 17.8712L10.1866 17.3466C10.1924 17.3289 10.1964 17.3102 10.1964 17.2906C10.1964 17.2373 10.1729 17.1899 10.1362 17.1567L11.5835 14.3516C11.604 14.3597 11.6262 14.3645 11.6497 14.3645C11.7497 14.3645 11.8306 14.2835 11.8306 14.1836C11.8306 14.1775 11.8295 14.1717 11.8288 14.1657L12.3911 13.9815C12.4072 14.0045 12.4289 14.023 12.4537 14.0364L11.098 17.8205C11.0933 17.8201 11.0888 17.819 11.0839 17.819L11.0839 17.819ZM9.76425 19.5335C9.74602 19.5335 9.72872 19.5371 9.71216 19.542L9.28082 18.8193C9.31397 18.7866 9.33448 18.7411 9.33448 18.6908C9.33451 18.6372 9.31072 18.5895 9.27364 18.5564L9.95795 17.4613C9.97609 17.4674 9.99518 17.4715 10.0154 17.4715C10.0618 17.4715 10.1037 17.4535 10.1357 17.4248L10.9102 17.9524C10.906 17.9676 10.903 17.9834 10.903 18C10.903 18.0414 10.9175 18.0792 10.941 18.1096L9.80379 19.5382C9.79102 19.5354 9.77783 19.5335 9.76425 19.5335ZM7.88919 20.6833C7.88065 20.6758 7.87157 20.6692 7.86178 20.6635L8.41058 19.1477C8.41879 19.1488 8.42684 19.1501 8.4352 19.1501C8.53515 19.1501 8.61617 19.0692 8.61617 18.9693C8.61617 18.95 8.61237 18.932 8.60681 18.9146L8.99634 18.7788C9.02728 18.834 9.08571 18.8717 9.15351 18.8717C9.16947 18.8717 9.18472 18.869 9.19946 18.8653L9.63263 19.5911C9.60218 19.6234 9.58325 19.6666 9.58325 19.7145C9.58325 19.718 9.58401 19.7212 9.58419 19.7246L7.88913 20.6833L7.88919 20.6833ZM4.58252 19.7324C4.59458 19.7081 4.60194 19.6812 4.60194 19.6523C4.60194 19.5901 4.57061 19.5355 4.52302 19.5029L4.82515 18.8777C4.83673 18.88 4.84879 18.8814 4.86104 18.8814C4.92376 18.8814 4.97892 18.8495 5.01137 18.8009L5.45257 18.9676C5.45257 18.9684 5.45238 18.9691 5.45238 18.9698C5.45238 19.0634 5.5238 19.1396 5.61503 19.1489L6.2251 20.6741C6.21531 20.6826 6.2065 20.6919 6.19866 20.7022L4.58249 19.7323L4.58252 19.7324ZM3.16528 17.9282C3.16528 17.8966 3.15643 17.8673 3.14221 17.8415L3.82612 17.3451C3.85794 17.3732 3.89936 17.3907 3.94513 17.3907C3.9668 17.3907 3.98731 17.3863 4.00649 17.3793L4.73289 18.5726C4.70034 18.6053 4.6801 18.6506 4.6801 18.7004C4.6801 18.7544 4.70432 18.8024 4.74185 18.8355L4.43394 19.4726C4.42963 19.4723 4.42543 19.4713 4.42106 19.4713C4.38085 19.4713 4.34399 19.4849 4.314 19.507L3.10915 18.0587C3.14349 18.0257 3.16525 17.9796 3.16525 17.9282L3.16528 17.9282ZM2.6131 3.06474C2.64522 3.08169 2.68248 3.08935 2.7211 3.08412L3.69651 5.17005C3.65673 5.20318 3.63099 5.25244 3.63099 5.3083C3.63099 5.32276 3.63309 5.33668 3.63631 5.35023L2.2824 6.28605C2.25867 6.27465 2.2325 6.26775 2.20445 6.26775C2.10466 6.26775 2.02361 6.34883 2.02361 6.44869C2.02361 6.45021 2.02403 6.45167 2.02409 6.45325L1.27718 6.91562C1.26624 6.90869 1.25436 6.9031 1.24196 6.89867L1.46745 5.21807C1.5592 5.20932 1.63113 5.13295 1.63113 5.03892C1.63113 4.98447 1.60663 4.93627 1.56859 4.90305L2.61307 3.06474H2.6131ZM6.80301 1.24648C6.82316 1.29844 6.86622 1.33719 6.91819 1.35329L6.98793 3.70972C6.91728 3.7285 6.86355 3.78852 6.85513 3.8638L5.83696 3.87306C5.80195 3.8211 5.74142 3.78977 5.67587 3.7939L4.81032 1.97837C4.85985 1.93957 4.88824 1.87672 4.87839 1.81002C4.87815 1.8085 4.87757 1.8071 4.87724 1.80558L6.80298 1.24648H6.80301ZM9.03718 1.8449C9.04533 1.9 9.0779 1.94489 9.12185 1.97193L8.39062 3.74786C8.39043 3.74786 8.39025 3.7478 8.39013 3.7478C8.31796 3.74777 8.25611 3.79031 8.22706 3.85137L7.21309 3.86064C7.20376 3.78794 7.15143 3.72832 7.0812 3.70945L7.01155 1.35642C7.06892 1.34327 7.11432 1.30412 7.13672 1.25289L9.03612 1.80436C9.03512 1.81768 9.03512 1.8312 9.03715 1.8449H9.03718ZM11.0694 2.87283C11.0554 2.8986 11.0467 2.92762 11.0467 2.95895C11.0467 3.01508 11.0729 3.06468 11.113 3.09789L10.2202 5.07035C10.2119 5.06913 10.2037 5.06782 10.195 5.06782C10.1534 5.06782 10.1156 5.08238 10.0851 5.10593L8.56411 3.97545C8.56818 3.96046 8.57107 3.94503 8.57107 3.92877C8.57107 3.86215 8.53463 3.8046 8.48115 3.77324L9.21171 1.99895C9.22192 1.99916 9.23213 1.99904 9.24256 1.99755C9.28905 1.99065 9.32831 1.96631 9.35588 1.93252L11.0694 2.87283H11.0694ZM12.3924 5.06792L11.8592 6.22952C11.8525 6.22876 11.8458 6.22752 11.8389 6.22752C11.7977 6.22752 11.76 6.24195 11.7295 6.2652L10.3652 5.30805C10.3716 5.28939 10.376 5.26967 10.376 5.24873C10.376 5.19096 10.3483 5.14009 10.3061 5.107L11.1979 3.13694C11.2077 3.13852 11.2175 3.13992 11.2277 3.13992C11.2608 3.13992 11.2913 3.13038 11.3181 3.11482L12.3903 4.7849C12.3489 4.81805 12.3219 4.86841 12.3219 4.92545C12.3219 4.98365 12.3498 5.03479 12.3924 5.06788L12.3924 5.06792ZM12.7201 6.93732L12.0118 6.45914C12.0165 6.44295 12.02 6.4262 12.02 6.40839C12.02 6.34886 11.9907 6.29644 11.9463 6.26353L12.4785 5.10399C12.486 5.10499 12.4934 5.10621 12.5012 5.10627L12.7488 6.92219C12.7387 6.92638 12.7293 6.93149 12.7202 6.93729L12.7201 6.93732ZM12.5675 9.45433L11.5062 8.83517C11.5153 8.80809 11.5189 8.77871 11.514 8.74853C11.5037 8.6856 11.462 8.63594 11.4075 8.61224L11.8406 6.58924C11.8883 6.58885 11.9314 6.56982 11.9635 6.53916L12.6568 7.00716C12.6441 7.03201 12.6361 7.05979 12.6361 7.08963C12.6361 7.1695 12.6882 7.23654 12.76 7.26048L12.6801 9.40558C12.6365 9.40838 12.5973 9.42603 12.5675 9.45433H12.5675ZM12.5058 10.7932L11.5333 10.4689C11.5336 10.4647 11.5346 10.4607 11.5346 10.4564C11.5346 10.4377 11.5309 10.42 11.5256 10.4031L12.5679 9.71677C12.5946 9.74187 12.6288 9.75855 12.6668 9.76378L12.6309 10.726C12.5803 10.7305 12.5359 10.7555 12.5058 10.7931L12.5058 10.7932ZM12.4306 12.713L11.3932 12.9971C11.3803 12.984 11.3652 12.9734 11.3489 12.9646L12.5637 11.0653C12.5805 11.0741 12.5984 11.0804 12.6178 11.0834L12.5633 12.5455C12.4887 12.5659 12.4334 12.6325 12.4306 12.713ZM10.0336 17.1116L9.51934 15.2783C9.5893 15.2533 9.63962 15.1871 9.63962 15.1086C9.63962 15.0633 9.62239 15.0224 9.59507 14.9907L11.1351 13.2504C11.1619 13.2774 11.1972 13.2956 11.2366 13.3017L11.5191 14.0589C11.4882 14.0914 11.4688 14.1352 11.4688 14.1837C11.4688 14.2257 11.4837 14.264 11.508 14.2947L10.0536 17.1138C10.0472 17.1125 10.0403 17.1122 10.0337 17.1116H10.0336ZM1.44821 10.9815L2.77164 12.9738C2.73618 13.0069 2.7136 13.0537 2.7136 13.106C2.7136 13.1518 2.73116 13.1931 2.75921 13.225L2.4651 14.0056C2.45574 14.0041 2.44635 14.0027 2.43657 14.0027C2.37871 14.0027 2.3278 14.0303 2.29471 14.0726L1.64462 13.8735C1.64632 13.8633 1.64772 13.8531 1.64772 13.8425C1.64772 13.748 1.57515 13.6714 1.48292 13.6631L1.37902 11.0063C1.40412 11.0027 1.42749 10.9943 1.44821 10.9816V10.9815ZM1.40895 9.69629L2.54126 10.3862C2.53701 10.3972 2.53394 10.4087 2.5319 10.4207L1.47231 10.6921C1.44317 10.6666 1.40609 10.6505 1.36501 10.648L1.32909 9.73069C1.35881 9.72586 1.38588 9.71379 1.40892 9.69629H1.40895ZM3.81199 5.4893C3.82409 5.4893 3.83588 5.48796 3.84734 5.48568L4.83825 7.53232C4.79251 7.56517 4.76252 7.61847 4.76252 7.67904C4.76252 7.69262 4.76428 7.70587 4.76707 7.71857L2.91687 8.61537C2.88411 8.56969 2.83081 8.5397 2.77027 8.5397C2.76204 8.5397 2.75417 8.54109 2.74608 8.5421L2.30097 6.60137C2.35166 6.56931 2.38551 6.51315 2.38551 6.44875C2.38551 6.41183 2.37433 6.37761 2.3554 6.34901L3.68108 5.43274C3.71405 5.46745 3.76036 5.4893 3.81196 5.4893H3.81199ZM6.91023 7.23122C6.86404 7.26133 6.83307 7.31199 6.82909 7.37025L5.11023 7.60899C5.08291 7.54377 5.01849 7.49807 4.94339 7.49807C4.9375 7.49804 4.93188 7.49928 4.92613 7.49977L3.93079 5.44386C3.96859 5.41065 3.99293 5.36254 3.99293 5.30836C3.99293 5.2793 3.98546 5.25232 3.9733 5.22798L5.54346 4.08223C5.58212 4.1332 5.64594 4.16268 5.71367 4.15262C5.71696 4.15219 5.71993 4.15098 5.72328 4.15028L6.91026 7.23122H6.91023ZM8.94428 10.1766C8.97488 10.2005 9.01299 10.2153 9.05487 10.2153C9.1457 10.2153 9.22013 10.1482 9.2331 10.061L10.2936 10.1325C10.2979 10.2285 10.3766 10.3052 10.4737 10.3052C10.5396 10.3052 10.5966 10.2695 10.6283 10.2169L11.1748 10.4365C11.174 10.4431 11.1728 10.4497 11.1728 10.4564C11.1728 10.4907 11.1828 10.5224 11.1993 10.5496L10.7538 10.9945C10.7362 10.9888 10.7177 10.985 10.6982 10.985C10.6256 10.985 10.5634 11.0279 10.5347 11.0897H9.3718C9.35026 11.0139 9.28124 10.958 9.19852 10.958C9.15096 10.958 9.1079 10.9768 9.07556 11.007L8.71153 10.7724C8.71937 10.7523 8.72399 10.7307 8.72399 10.7079C8.72399 10.6405 8.6867 10.5824 8.63209 10.5513L8.94428 10.1767V10.1766ZM7.85819 15.2038C7.85506 15.1846 7.84826 15.1668 7.83799 15.1513L8.41611 14.513C8.42933 14.519 8.4438 14.5223 8.45893 14.5237L8.64966 15.251C8.62954 15.2619 8.61243 15.2774 8.60021 15.2965L7.85819 15.2038ZM6.49614 15.2702C6.50115 15.256 6.50441 15.2411 6.50441 15.2253C6.50441 15.1771 6.47894 15.1353 6.44098 15.1115L6.5447 10.5788C6.6204 10.5616 6.67732 10.497 6.68404 10.4178L7.42281 10.4289C7.43481 10.4893 7.47675 10.5387 7.53257 10.5612L7.65267 15.1124C7.61563 15.1363 7.59092 15.1779 7.59092 15.2253C7.59092 15.2312 7.59195 15.2368 7.59271 15.2424L7.10882 15.5304C7.08937 15.5195 7.06722 15.5126 7.04324 15.5126C7.01343 15.5126 6.9862 15.5227 6.96389 15.5389L6.49617 15.2702H6.49614ZM5.40911 15.1878C5.40258 15.1702 5.39273 15.1541 5.37988 15.1409L5.57601 14.5065C5.57716 14.5066 5.57829 14.5069 5.57944 14.5069C5.60087 14.5069 5.62074 14.5015 5.6387 14.4927L6.24616 15.1717C6.24072 15.1843 6.23771 15.1979 6.23625 15.2122L5.40908 15.1878H5.40911ZM4.99803 11.0032C4.96685 10.9775 4.92732 10.9614 4.88374 10.9614C4.80229 10.9614 4.73416 11.0156 4.71149 11.0897H3.5879C3.57435 11.0031 3.50008 10.9368 3.40973 10.9368C3.36673 10.9367 3.32783 10.9523 3.29677 10.9774L2.86366 10.5449C2.88056 10.5173 2.8908 10.4853 2.8908 10.4506C2.8908 10.4463 2.88977 10.4422 2.88946 10.4379L3.48224 10.1997C3.51533 10.2418 3.56617 10.2693 3.62385 10.2693C3.70913 10.2693 3.78008 10.2102 3.79929 10.1308L4.86493 10.059C4.89219 10.1245 4.95664 10.1705 5.03195 10.1705C5.05805 10.1705 5.08279 10.1647 5.10519 10.1548L5.44588 10.5635C5.41425 10.5961 5.39446 10.6405 5.39446 10.6895C5.39449 10.7079 5.39802 10.7253 5.40312 10.742L4.99803 11.0032V11.0032ZM4.94339 7.85997C4.96081 7.85997 4.97722 7.85675 4.99314 7.85217L5.61688 9.13864C5.59677 9.15815 5.58166 9.18249 5.57227 9.20963L2.94936 8.73914C2.95006 8.73297 2.95127 8.72708 2.95127 8.72066C2.95127 8.71474 2.95012 8.70909 2.94948 8.70331L4.81071 7.80114C4.84375 7.83712 4.89073 7.85997 4.94339 7.85997ZM6.34811 15.0928C6.33502 15.0949 6.32274 15.0989 6.31125 15.1045L5.7034 14.425C5.71033 14.4088 5.71416 14.391 5.71416 14.3722C5.71416 14.3219 5.68617 14.2786 5.64533 14.2554L6.44582 10.8188L6.34811 15.0928V15.0928ZM7.6001 10.2127C7.5206 10.2127 7.45383 10.2643 7.42964 10.3357L6.66714 10.3243C6.63788 10.2637 6.5764 10.2216 6.50468 10.2216C6.48942 10.2216 6.47481 10.2241 6.46071 10.2277L5.87288 9.39361C5.89027 9.3755 5.90355 9.35365 5.91221 9.32949L6.90166 9.30445C6.93138 9.36352 6.992 9.40446 7.06266 9.40446C7.13155 9.40443 7.19069 9.36544 7.22126 9.30876L8.14987 9.34447C8.15018 9.34684 8.14993 9.34915 8.15033 9.35161C8.15361 9.372 8.16093 9.39069 8.17029 9.40789L7.63122 10.2158C7.62098 10.214 7.61082 10.2127 7.60016 10.2127H7.6001ZM8.33625 14.3902C8.33625 14.4108 8.34117 14.43 8.34944 14.4475L7.76198 15.0962C7.75666 15.0947 7.75119 15.0934 7.74554 15.0926L7.63398 10.8626L8.39876 14.2768C8.3612 14.3008 8.33625 14.3424 8.33625 14.3901V14.3902ZM11.1555 8.76412L8.48078 9.22437C8.46404 9.19836 8.4407 9.17781 8.41384 9.16338L9.02573 7.86769C9.02992 7.868 9.03393 7.86894 9.03813 7.86894C9.10052 7.86894 9.15543 7.83746 9.18794 7.78953L11.1571 8.75318C11.1566 8.7568 11.1558 8.76044 11.1555 8.76412ZM8.85792 7.69514C8.86029 7.75443 8.89065 7.80649 8.93665 7.83773L8.32048 9.14244C8.31355 9.14271 8.3065 9.14259 8.29948 9.14372C8.23597 9.15414 8.1861 9.19659 8.16257 9.25163L7.24281 9.21619C7.23907 9.12311 7.16538 9.04875 7.07269 9.04358L7.06883 7.55256C7.11469 7.53636 7.15198 7.50263 7.1724 7.45886L8.85795 7.69511L8.85792 7.69514ZM6.84689 7.46196C6.87169 7.51238 6.91861 7.54961 6.97547 7.56027L6.97939 9.06373C6.92497 9.09218 6.88713 9.14703 6.88291 9.21158L5.92032 9.23598C5.90494 9.15156 5.83143 9.08743 5.7426 9.08743C5.72741 9.0874 5.71282 9.08993 5.69869 9.09345L5.07364 7.80421C5.09996 7.77683 5.1171 7.74112 5.12214 7.70152L6.84689 7.46196ZM1.4752 9.50945L2.65139 8.85602C2.68327 8.88404 2.72457 8.90157 2.77034 8.90157C2.82999 8.90157 2.88241 8.87237 2.91535 8.82782L5.56522 9.30308C5.58142 9.38638 5.6546 9.44934 5.74266 9.44934C5.76008 9.44934 5.77652 9.44612 5.79253 9.44153L6.37862 10.2731C6.35036 10.3007 6.3317 10.3375 6.32626 10.3786L5.72033 10.5819C5.68736 10.5376 5.635 10.5086 5.57552 10.5086C5.55881 10.5086 5.54292 10.5115 5.52763 10.5158L5.17782 10.096C5.19967 10.066 5.21307 10.0295 5.21307 9.98951C5.21307 9.88959 5.13199 9.80858 5.03207 9.80858C4.94011 9.80858 4.86502 9.87741 4.85347 9.96621L3.7968 10.0374C3.77462 9.96247 3.70612 9.90746 3.62394 9.90746C3.52402 9.90743 3.44307 9.98848 3.44307 10.0883C3.44307 10.0978 3.44446 10.1068 3.4458 10.1159L2.86005 10.3498C2.82759 10.3015 2.77243 10.2697 2.70992 10.2697C2.66683 10.2697 2.62775 10.2854 2.59663 10.3106L1.46702 9.62241C1.47605 9.60092 1.48106 9.57737 1.48106 9.55273C1.48106 9.53771 1.47869 9.52337 1.47529 9.50945H1.4752ZM3.94519 17.0289C3.93668 17.0289 3.92863 17.0303 3.92033 17.0314L2.57107 14.3036C2.59967 14.2716 2.61751 14.2299 2.61751 14.1837C2.61751 14.1271 2.59104 14.0772 2.55035 14.044L2.8392 13.2775C2.85673 13.2831 2.87509 13.287 2.89454 13.287C2.93058 13.287 2.96392 13.2762 2.99206 13.2581L4.4334 14.9796C4.41352 15.0087 4.40176 15.0437 4.40176 15.0816C4.40176 15.1397 4.42969 15.1909 4.47227 15.2239L3.95039 17.0294C3.94863 17.0293 3.94695 17.0289 3.94519 17.0289V17.0289ZM4.76169 15.0619C4.75176 14.9714 4.6759 14.9007 4.5827 14.9007C4.55462 14.9007 4.5283 14.9077 4.50454 14.9192L3.05511 13.1879C3.06767 13.1633 3.07548 13.1356 3.07548 13.106C3.07548 13.0061 2.99446 12.9252 2.89454 12.9252C2.88074 12.9252 2.8674 12.927 2.85445 12.9299L1.51349 10.9112C1.52665 10.8862 1.53479 10.8581 1.53479 10.8278C1.53479 10.8091 1.53124 10.7915 1.52595 10.7746L2.54108 10.5146C2.56706 10.5828 2.63249 10.6316 2.70983 10.6316C2.74107 10.6316 2.77003 10.6229 2.79577 10.609L3.24104 11.0536C3.23338 11.0735 3.22882 11.095 3.22882 11.1176C3.22882 11.2176 3.30975 11.2986 3.4097 11.2986C3.48652 11.2986 3.55177 11.2505 3.578 11.1829H4.70769C4.72623 11.2632 4.79777 11.3233 4.88368 11.3233C4.98369 11.3232 5.06462 11.2423 5.06462 11.1423C5.06462 11.1199 5.06 11.0987 5.05261 11.0789L5.45232 10.8213C5.4846 10.8515 5.52772 10.8704 5.5754 10.8704C5.67532 10.8704 5.75634 10.7894 5.75634 10.6894C5.75634 10.6824 5.75506 10.6757 5.7543 10.6689L6.33787 10.473C6.35273 10.5082 6.37872 10.5371 6.41099 10.5567L5.55306 14.2402C5.49128 14.2524 5.44467 14.3069 5.44467 14.3722C5.44467 14.4117 5.46202 14.4469 5.489 14.4715L5.2946 15.1008C5.29074 15.1005 5.28701 15.0996 5.28309 15.0996C5.23856 15.0996 5.19936 15.1215 5.1749 15.1548L4.7616 15.0619H4.76169ZM6.33161 15.7478C6.30782 15.7093 6.26564 15.6833 6.21704 15.6833C6.18477 15.6833 6.15557 15.6951 6.13235 15.714L5.46828 15.2829L6.26269 15.3063C6.28727 15.3387 6.32593 15.36 6.36975 15.36C6.39352 15.36 6.41555 15.3534 6.43497 15.3426L6.90512 15.6128L6.33164 15.7479L6.33161 15.7478ZM7.94547 15.7398C7.9211 15.716 7.88804 15.7012 7.8513 15.7012C7.80492 15.7012 7.76402 15.7247 7.7398 15.7605L7.17477 15.6192C7.17358 15.6135 7.17161 15.6082 7.16975 15.6028L7.63608 15.3253C7.65996 15.3466 7.69108 15.36 7.72567 15.36C7.77429 15.36 7.81641 15.3341 7.84008 15.2956L8.57882 15.3879L7.9455 15.7398L7.94547 15.7398ZM12.4939 11.0014L11.2514 12.9438C11.1574 12.9503 11.083 13.0278 11.083 13.1234C11.0831 13.1371 11.0848 13.1503 11.0876 13.1631L9.517 14.938C9.49865 14.9317 9.47926 14.9276 9.45868 14.9276C9.35882 14.9276 9.27781 15.0086 9.27781 15.1086C9.27781 15.1108 9.27835 15.1128 9.27841 15.1151L8.81321 15.2792C8.79474 15.2587 8.77039 15.2438 8.74262 15.2376L8.5491 14.4995C8.5832 14.4751 8.60562 14.4353 8.60562 14.3901C8.60565 14.3222 8.55524 14.2666 8.4899 14.2573L7.6624 10.5628C7.69984 10.549 7.73132 10.5237 7.7525 10.4906L8.36421 10.6872C8.36348 10.694 8.36211 10.7007 8.36211 10.7079C8.36214 10.8077 8.44313 10.8888 8.54305 10.8888C8.5862 10.8887 8.62534 10.873 8.6564 10.8478L9.02645 11.0861C9.02126 11.1029 9.01761 11.1204 9.01761 11.1388C9.01761 11.2388 9.09863 11.3198 9.19855 11.3198C9.28325 11.3198 9.35369 11.2614 9.37347 11.1828H10.519C10.5277 11.2747 10.6042 11.3467 10.6982 11.3467C10.7981 11.3467 10.8791 11.2657 10.8791 11.1658C10.8791 11.12 10.8616 11.0787 10.8335 11.0468L11.2668 10.6141C11.2927 10.6285 11.322 10.6374 11.3537 10.6374C11.4162 10.6374 11.4713 10.6057 11.5039 10.5575L12.4685 10.879C12.4673 10.8877 12.4659 10.8964 12.4659 10.9054C12.4659 10.9407 12.4764 10.9734 12.4939 11.0013L12.4939 11.0014ZM12.5192 9.63721L11.4762 10.324C11.4439 10.2942 11.4012 10.2755 11.3537 10.2755C11.2939 10.2755 11.2414 10.3048 11.2084 10.3495L10.6544 10.1268C10.6544 10.1259 10.6547 10.1251 10.6547 10.1242C10.6547 10.0243 10.5736 9.94326 10.4737 9.94326C10.4034 9.94326 10.3431 9.9838 10.3131 10.0423L9.22256 9.96709C9.19582 9.90056 9.13096 9.85352 9.05487 9.85352C8.95501 9.85349 8.87393 9.93451 8.87393 10.0345C8.87393 10.0576 8.8787 10.0796 8.88666 10.1L8.52977 10.5283C8.47589 10.5323 8.42876 10.5594 8.39837 10.6002L7.78034 10.4016C7.78034 10.3989 7.7811 10.3964 7.7811 10.3936C7.7811 10.3381 7.75566 10.2892 7.71637 10.256L8.23639 9.47691C8.27185 9.49812 8.31425 9.50802 8.35801 9.50085C8.44951 9.48581 8.51278 9.40461 8.50865 9.31423L11.1731 8.85584C11.207 8.92637 11.2837 8.96968 11.3647 8.95633C11.3997 8.95068 11.4302 8.93497 11.4548 8.91327L12.5191 9.53401C12.5141 9.55042 12.5107 9.5674 12.5107 9.58543C12.5107 9.60351 12.5142 9.62071 12.5192 9.63721ZM11.672 6.33877C11.6631 6.36035 11.658 6.38384 11.658 6.40842C11.658 6.47601 11.6955 6.53421 11.7504 6.56526L11.3151 8.59868C11.3121 8.59902 11.3092 8.59877 11.3061 8.59926C11.2594 8.60695 11.2202 8.63223 11.1932 8.66694L9.21782 7.70016C9.21815 7.69605 9.21909 7.69216 9.21909 7.68797C9.21909 7.63935 9.19968 7.59547 9.1685 7.56295L10.1598 5.42621C10.1712 5.42843 10.183 5.42976 10.195 5.42976C10.2401 5.42976 10.2811 5.41256 10.3127 5.38524L11.672 6.33877ZM8.39016 4.10974C8.43979 4.10974 8.48483 4.08962 8.51752 4.05713L10.0278 5.17969C10.0191 5.20099 10.0141 5.2243 10.0141 5.24876C10.0141 5.30307 10.0385 5.35118 10.0763 5.38436L9.0879 7.51484C9.07204 7.51028 9.05557 7.50703 9.03809 7.50703C8.96868 7.507 8.90924 7.54648 8.87885 7.60385L7.18802 7.36688C7.18391 7.3191 7.16146 7.27695 7.12748 7.24717L8.34911 4.10466C8.36233 4.1077 8.37591 4.10974 8.39016 4.10974ZM7.20029 3.95408L8.21077 3.94487C8.21482 3.99022 8.23496 4.03063 8.26629 4.06011L7.06971 7.1382L7.08649 4.05631C7.13775 4.04072 7.17948 4.00331 7.20026 3.95408H7.20029ZM6.86947 3.95712C6.89221 4.00802 6.93724 4.04692 6.99328 4.05987L6.97635 7.14327L5.80709 4.10889C5.84672 4.07366 5.86948 4.02185 5.86705 3.96621L6.86947 3.95709V3.95712ZM2.87597 2.87866C2.87299 2.85854 2.86609 2.8401 2.85731 2.82296L4.54888 1.93592C4.58619 1.99235 4.65336 2.02566 4.72474 2.01557L5.58695 3.82377C5.53276 3.86006 5.50061 3.92412 5.50791 3.99265L3.91164 5.15756C3.88304 5.13854 3.84883 5.12742 3.81199 5.12742C3.80139 5.12742 3.79115 5.12885 3.78106 5.13055L2.80711 3.04769C2.85707 3.00894 2.88591 2.94573 2.876 2.87869L2.87597 2.87866ZM1.36185 7.06839C1.36185 7.03855 1.35395 7.01077 1.34109 6.98591L2.0522 6.54569C2.08436 6.59608 2.14039 6.62972 2.20448 6.62972C2.20698 6.62972 2.2092 6.62911 2.21163 6.62905L2.6589 8.57911C2.61687 8.61221 2.58943 8.66298 2.58943 8.72066C2.58943 8.74084 2.5935 8.75999 2.59955 8.77804L1.43028 9.42761C1.40074 9.3968 1.36036 9.37708 1.31517 9.37322L1.23181 7.24113C1.30684 7.21909 1.36185 7.15053 1.36188 7.06836L1.36185 7.06839ZM3.077 17.7736C3.0498 17.7572 3.01837 17.7473 2.98434 17.7473C2.96434 17.7472 2.94547 17.7512 2.92751 17.7572L1.5464 14.0041C1.5688 13.9931 1.58834 13.9776 1.60429 13.9587L2.25809 14.1591C2.25703 14.1673 2.25563 14.1753 2.25563 14.1837C2.25563 14.2837 2.33671 14.3646 2.43657 14.3646C2.4562 14.3646 2.47477 14.3607 2.49242 14.355L3.83439 17.0677C3.792 17.1008 3.76422 17.1519 3.76422 17.2098C3.76422 17.2301 3.76829 17.2491 3.77443 17.2674L3.07703 17.7736H3.077ZM7.77079 20.6381C7.68883 20.6381 7.6204 20.693 7.59815 20.7676L6.52185 20.7924C6.51252 20.7011 6.43639 20.6297 6.34267 20.6297C6.33125 20.6297 6.32006 20.6311 6.30915 20.6331L5.70936 19.1336C5.77117 19.1047 5.81426 19.0425 5.81426 18.9699C5.81429 18.9405 5.8067 18.9132 5.79427 18.8887L6.17417 18.6237C6.20544 18.6497 6.24506 18.6658 6.28882 18.6658C6.37322 18.6658 6.44348 18.6079 6.46356 18.5298H7.51267C7.52956 18.6122 7.60247 18.6743 7.68993 18.6743C7.74588 18.6743 7.79523 18.6484 7.82844 18.6085L8.27936 18.8791C8.26389 18.9058 8.25432 18.9362 8.25432 18.9693C8.25432 19.0273 8.28222 19.0784 8.32464 19.1114L7.7718 20.6383C7.77146 20.6382 7.77113 20.6382 7.77083 20.6381H7.77079ZM9.15364 18.5099C9.05469 18.5099 8.97443 18.5895 8.97303 18.6881L8.55451 18.8341C8.5226 18.8059 8.48124 18.7884 8.43526 18.7884C8.40359 18.7884 8.37424 18.7973 8.34832 18.8116L7.86786 18.5234C7.86956 18.5136 7.8709 18.5037 7.8709 18.4933C7.8709 18.3934 7.78988 18.3124 7.68993 18.3124C7.61006 18.3124 7.54297 18.3646 7.51905 18.4365H6.46241C6.44113 18.3603 6.37188 18.304 6.28882 18.304C6.18896 18.304 6.10789 18.385 6.10789 18.485C6.10792 18.5072 6.11244 18.5282 6.11983 18.5479L5.73197 18.8184C5.70361 18.8 5.66979 18.789 5.63335 18.789C5.5672 18.789 5.50994 18.8248 5.4784 18.8778L5.04088 18.7125C5.04112 18.7084 5.0421 18.7046 5.0421 18.7005C5.0421 18.6006 4.96108 18.5196 4.86113 18.5196C4.84475 18.5196 4.82919 18.5224 4.81412 18.5266L4.08304 17.3258C4.10951 17.2943 4.12616 17.2542 4.12616 17.2099C4.12616 17.1448 4.0914 17.0882 4.03982 17.0562L4.55906 15.2602C4.56687 15.2612 4.57462 15.2627 4.58276 15.2627C4.65673 15.2627 4.72012 15.2181 4.74814 15.1546L5.14955 15.2447C5.1549 15.3141 5.2124 15.3691 5.28324 15.3691C5.3184 15.3691 5.35022 15.3552 5.37419 15.3331L6.08479 15.7944C6.08345 15.8021 6.08242 15.8099 6.08242 15.8181C6.08242 15.8924 6.14271 15.9527 6.21713 15.9527C6.28411 15.9527 6.33933 15.9036 6.34969 15.8395L6.9219 15.7048C6.94353 15.7504 6.98957 15.7822 7.04333 15.7822C7.09417 15.7822 7.13794 15.7536 7.16088 15.7119L7.71837 15.8512C7.726 15.9184 7.78234 15.9707 7.85148 15.9707C7.92587 15.9707 7.98626 15.9104 7.98626 15.836C7.98626 15.8322 7.98534 15.8284 7.98504 15.8246L8.62446 15.4694C8.64832 15.4905 8.67923 15.5038 8.7136 15.5038C8.78793 15.5038 8.84828 15.4434 8.84828 15.3691C8.84828 15.368 8.84798 15.367 8.84798 15.3661L9.30595 15.2045C9.33211 15.2462 9.37454 15.2765 9.42471 15.2861L9.94099 17.1262C9.87845 17.1547 9.83469 17.2174 9.83469 17.2908C9.83469 17.3365 9.85229 17.378 9.88049 17.4099L9.19056 18.5138C9.17868 18.5114 9.16649 18.51 9.15379 18.51L9.15364 18.5099ZM12.3581 13.8778C12.3581 13.8832 12.3592 13.8884 12.3597 13.8937L11.7963 14.0782C11.7634 14.0326 11.7103 14.0027 11.6497 14.0027C11.6326 14.0027 11.6163 14.0058 11.6005 14.0103L11.3321 13.2909C11.3982 13.2639 11.4448 13.1992 11.4448 13.1235C11.4448 13.1088 11.4426 13.0949 11.4394 13.0813L12.4519 12.804C12.4729 12.8435 12.5078 12.8741 12.5505 12.8892L12.5204 13.6987C12.4293 13.7082 12.358 13.7842 12.358 13.8778L12.3581 13.8778ZM12.998 7.08963C12.998 6.99807 12.9298 6.92316 12.8415 6.9111L12.5922 5.08202C12.6466 5.05087 12.6838 4.99282 12.6838 4.92548C12.6838 4.82559 12.6028 4.7446 12.5029 4.7446C12.494 4.7446 12.4855 4.74591 12.4769 4.74719L11.3852 3.04656C11.3997 3.02046 11.4087 2.99092 11.4087 2.95898C11.4087 2.85903 11.3277 2.77801 11.2277 2.77801C11.1945 2.77801 11.1637 2.78768 11.1368 2.80339L9.39414 1.847C9.39699 1.82922 9.39809 1.8109 9.39529 1.79212C9.38074 1.69323 9.28872 1.62495 9.18986 1.63953C9.13771 1.64725 9.0945 1.67679 9.06706 1.71724L7.15067 1.15993C7.15042 1.15807 7.15067 1.15637 7.15036 1.15461C7.13575 1.05569 7.04379 0.987375 6.94502 1.00196C6.86501 1.01378 6.80587 1.07642 6.79353 1.15218L4.83733 1.72009C4.79825 1.67393 4.73732 1.64798 4.67308 1.65746C4.57969 1.67123 4.51445 1.75428 4.51979 1.84679L2.79197 2.75197C2.75681 2.73024 2.71457 2.71957 2.6706 2.72605C2.57174 2.74063 2.50346 2.83268 2.51801 2.93151C2.52169 2.95649 2.53038 2.97946 2.54284 2.9997L1.48501 4.86148C1.47377 4.85926 1.46222 4.85799 1.45031 4.85799C1.35039 4.85799 1.26943 4.939 1.26943 5.03895C1.26943 5.11204 1.31295 5.17458 1.37537 5.20318L1.149 6.89064C1.06436 6.90578 1 6.97935 1 7.06836C1 7.15363 1.0592 7.22465 1.13864 7.2438L1.22242 9.38987C1.16152 9.41895 1.11904 9.48061 1.11904 9.55273C1.11904 9.62979 1.16754 9.69516 1.23543 9.72121L1.27235 10.6671C1.21364 10.697 1.17298 10.7574 1.17298 10.8278C1.17298 10.9034 1.21941 10.968 1.28517 10.9951L1.39017 13.6791C1.32875 13.708 1.28584 13.77 1.28584 13.8424C1.28584 13.9378 1.3599 14.0152 1.45359 14.022L2.8478 17.8106C2.82051 17.8423 2.80337 17.8831 2.80337 17.9283C2.80337 18.0281 2.88445 18.1092 2.98437 18.1092C2.99856 18.1092 3.01227 18.107 3.02555 18.1039L4.25459 19.5815C4.24532 19.6033 4.24018 19.6271 4.24018 19.6524C4.24018 19.7522 4.3212 19.8333 4.42112 19.8333C4.45753 19.8333 4.49138 19.8223 4.51986 19.8037L6.16386 20.7902C6.1631 20.797 6.16183 20.8037 6.16183 20.8107C6.16186 20.9106 6.24291 20.9916 6.3427 20.9916C6.41573 20.9916 6.47812 20.9482 6.50678 20.8861L7.5952 20.8611C7.6142 20.9406 7.68537 21 7.77083 21C7.87072 21 7.95176 20.919 7.95176 20.8191C7.95176 20.7987 7.9476 20.7794 7.94128 20.7611L9.61388 19.8151C9.64637 19.8636 9.70156 19.8955 9.76434 19.8955C9.8642 19.8955 9.94522 19.8144 9.94522 19.7145C9.94522 19.6624 9.92285 19.6158 9.8876 19.5828L11.0147 18.1671C11.0361 18.1759 11.0595 18.1809 11.084 18.1809C11.184 18.1809 11.265 18.1 11.265 18C11.265 17.938 11.2337 17.8834 11.1863 17.8508L12.5451 14.058C12.6422 14.0547 12.72 13.9756 12.72 13.8777C12.72 13.8043 12.6761 13.7413 12.6132 13.713L12.6436 12.897C12.7278 12.8816 12.7918 12.808 12.7918 12.7193C12.7918 12.6353 12.7343 12.5654 12.6566 12.5449L12.7115 11.0739C12.7793 11.0479 12.8277 10.9825 12.8277 10.9054C12.8277 10.8331 12.7851 10.7712 12.7238 10.7423L12.7606 9.75254C12.8263 9.72543 12.8726 9.66085 12.8726 9.5854C12.8726 9.5148 12.8317 9.4543 12.7728 9.42451L12.8531 7.26686C12.9359 7.25018 12.998 7.17715 12.998 7.0896V7.08963Z"/>
</mask>
<path fill-rule="evenodd" clip-rule="evenodd" d="M11.0839 17.819C11.0344 17.819 10.9896 17.839 10.9569 17.8712L10.1866 17.3466C10.1924 17.3289 10.1964 17.3102 10.1964 17.2906C10.1964 17.2373 10.1729 17.1899 10.1362 17.1567L11.5835 14.3516C11.604 14.3597 11.6262 14.3645 11.6497 14.3645C11.7497 14.3645 11.8306 14.2835 11.8306 14.1836C11.8306 14.1775 11.8295 14.1717 11.8288 14.1657L12.3911 13.9815C12.4072 14.0045 12.4289 14.023 12.4537 14.0364L11.098 17.8205C11.0933 17.8201 11.0888 17.819 11.0839 17.819L11.0839 17.819ZM9.76425 19.5335C9.74602 19.5335 9.72872 19.5371 9.71216 19.542L9.28082 18.8193C9.31397 18.7866 9.33448 18.7411 9.33448 18.6908C9.33451 18.6372 9.31072 18.5895 9.27364 18.5564L9.95795 17.4613C9.97609 17.4674 9.99518 17.4715 10.0154 17.4715C10.0618 17.4715 10.1037 17.4535 10.1357 17.4248L10.9102 17.9524C10.906 17.9676 10.903 17.9834 10.903 18C10.903 18.0414 10.9175 18.0792 10.941 18.1096L9.80379 19.5382C9.79102 19.5354 9.77783 19.5335 9.76425 19.5335ZM7.88919 20.6833C7.88065 20.6758 7.87157 20.6692 7.86178 20.6635L8.41058 19.1477C8.41879 19.1488 8.42684 19.1501 8.4352 19.1501C8.53515 19.1501 8.61617 19.0692 8.61617 18.9693C8.61617 18.95 8.61237 18.932 8.60681 18.9146L8.99634 18.7788C9.02728 18.834 9.08571 18.8717 9.15351 18.8717C9.16947 18.8717 9.18472 18.869 9.19946 18.8653L9.63263 19.5911C9.60218 19.6234 9.58325 19.6666 9.58325 19.7145C9.58325 19.718 9.58401 19.7212 9.58419 19.7246L7.88913 20.6833L7.88919 20.6833ZM4.58252 19.7324C4.59458 19.7081 4.60194 19.6812 4.60194 19.6523C4.60194 19.5901 4.57061 19.5355 4.52302 19.5029L4.82515 18.8777C4.83673 18.88 4.84879 18.8814 4.86104 18.8814C4.92376 18.8814 4.97892 18.8495 5.01137 18.8009L5.45257 18.9676C5.45257 18.9684 5.45238 18.9691 5.45238 18.9698C5.45238 19.0634 5.5238 19.1396 5.61503 19.1489L6.2251 20.6741C6.21531 20.6826 6.2065 20.6919 6.19866 20.7022L4.58249 19.7323L4.58252 19.7324ZM3.16528 17.9282C3.16528 17.8966 3.15643 17.8673 3.14221 17.8415L3.82612 17.3451C3.85794 17.3732 3.89936 17.3907 3.94513 17.3907C3.9668 17.3907 3.98731 17.3863 4.00649 17.3793L4.73289 18.5726C4.70034 18.6053 4.6801 18.6506 4.6801 18.7004C4.6801 18.7544 4.70432 18.8024 4.74185 18.8355L4.43394 19.4726C4.42963 19.4723 4.42543 19.4713 4.42106 19.4713C4.38085 19.4713 4.34399 19.4849 4.314 19.507L3.10915 18.0587C3.14349 18.0257 3.16525 17.9796 3.16525 17.9282L3.16528 17.9282ZM2.6131 3.06474C2.64522 3.08169 2.68248 3.08935 2.7211 3.08412L3.69651 5.17005C3.65673 5.20318 3.63099 5.25244 3.63099 5.3083C3.63099 5.32276 3.63309 5.33668 3.63631 5.35023L2.2824 6.28605C2.25867 6.27465 2.2325 6.26775 2.20445 6.26775C2.10466 6.26775 2.02361 6.34883 2.02361 6.44869C2.02361 6.45021 2.02403 6.45167 2.02409 6.45325L1.27718 6.91562C1.26624 6.90869 1.25436 6.9031 1.24196 6.89867L1.46745 5.21807C1.5592 5.20932 1.63113 5.13295 1.63113 5.03892C1.63113 4.98447 1.60663 4.93627 1.56859 4.90305L2.61307 3.06474H2.6131ZM6.80301 1.24648C6.82316 1.29844 6.86622 1.33719 6.91819 1.35329L6.98793 3.70972C6.91728 3.7285 6.86355 3.78852 6.85513 3.8638L5.83696 3.87306C5.80195 3.8211 5.74142 3.78977 5.67587 3.7939L4.81032 1.97837C4.85985 1.93957 4.88824 1.87672 4.87839 1.81002C4.87815 1.8085 4.87757 1.8071 4.87724 1.80558L6.80298 1.24648H6.80301ZM9.03718 1.8449C9.04533 1.9 9.0779 1.94489 9.12185 1.97193L8.39062 3.74786C8.39043 3.74786 8.39025 3.7478 8.39013 3.7478C8.31796 3.74777 8.25611 3.79031 8.22706 3.85137L7.21309 3.86064C7.20376 3.78794 7.15143 3.72832 7.0812 3.70945L7.01155 1.35642C7.06892 1.34327 7.11432 1.30412 7.13672 1.25289L9.03612 1.80436C9.03512 1.81768 9.03512 1.8312 9.03715 1.8449H9.03718ZM11.0694 2.87283C11.0554 2.8986 11.0467 2.92762 11.0467 2.95895C11.0467 3.01508 11.0729 3.06468 11.113 3.09789L10.2202 5.07035C10.2119 5.06913 10.2037 5.06782 10.195 5.06782C10.1534 5.06782 10.1156 5.08238 10.0851 5.10593L8.56411 3.97545C8.56818 3.96046 8.57107 3.94503 8.57107 3.92877C8.57107 3.86215 8.53463 3.8046 8.48115 3.77324L9.21171 1.99895C9.22192 1.99916 9.23213 1.99904 9.24256 1.99755C9.28905 1.99065 9.32831 1.96631 9.35588 1.93252L11.0694 2.87283H11.0694ZM12.3924 5.06792L11.8592 6.22952C11.8525 6.22876 11.8458 6.22752 11.8389 6.22752C11.7977 6.22752 11.76 6.24195 11.7295 6.2652L10.3652 5.30805C10.3716 5.28939 10.376 5.26967 10.376 5.24873C10.376 5.19096 10.3483 5.14009 10.3061 5.107L11.1979 3.13694C11.2077 3.13852 11.2175 3.13992 11.2277 3.13992C11.2608 3.13992 11.2913 3.13038 11.3181 3.11482L12.3903 4.7849C12.3489 4.81805 12.3219 4.86841 12.3219 4.92545C12.3219 4.98365 12.3498 5.03479 12.3924 5.06788L12.3924 5.06792ZM12.7201 6.93732L12.0118 6.45914C12.0165 6.44295 12.02 6.4262 12.02 6.40839C12.02 6.34886 11.9907 6.29644 11.9463 6.26353L12.4785 5.10399C12.486 5.10499 12.4934 5.10621 12.5012 5.10627L12.7488 6.92219C12.7387 6.92638 12.7293 6.93149 12.7202 6.93729L12.7201 6.93732ZM12.5675 9.45433L11.5062 8.83517C11.5153 8.80809 11.5189 8.77871 11.514 8.74853C11.5037 8.6856 11.462 8.63594 11.4075 8.61224L11.8406 6.58924C11.8883 6.58885 11.9314 6.56982 11.9635 6.53916L12.6568 7.00716C12.6441 7.03201 12.6361 7.05979 12.6361 7.08963C12.6361 7.1695 12.6882 7.23654 12.76 7.26048L12.6801 9.40558C12.6365 9.40838 12.5973 9.42603 12.5675 9.45433H12.5675ZM12.5058 10.7932L11.5333 10.4689C11.5336 10.4647 11.5346 10.4607 11.5346 10.4564C11.5346 10.4377 11.5309 10.42 11.5256 10.4031L12.5679 9.71677C12.5946 9.74187 12.6288 9.75855 12.6668 9.76378L12.6309 10.726C12.5803 10.7305 12.5359 10.7555 12.5058 10.7931L12.5058 10.7932ZM12.4306 12.713L11.3932 12.9971C11.3803 12.984 11.3652 12.9734 11.3489 12.9646L12.5637 11.0653C12.5805 11.0741 12.5984 11.0804 12.6178 11.0834L12.5633 12.5455C12.4887 12.5659 12.4334 12.6325 12.4306 12.713ZM10.0336 17.1116L9.51934 15.2783C9.5893 15.2533 9.63962 15.1871 9.63962 15.1086C9.63962 15.0633 9.62239 15.0224 9.59507 14.9907L11.1351 13.2504C11.1619 13.2774 11.1972 13.2956 11.2366 13.3017L11.5191 14.0589C11.4882 14.0914 11.4688 14.1352 11.4688 14.1837C11.4688 14.2257 11.4837 14.264 11.508 14.2947L10.0536 17.1138C10.0472 17.1125 10.0403 17.1122 10.0337 17.1116H10.0336ZM1.44821 10.9815L2.77164 12.9738C2.73618 13.0069 2.7136 13.0537 2.7136 13.106C2.7136 13.1518 2.73116 13.1931 2.75921 13.225L2.4651 14.0056C2.45574 14.0041 2.44635 14.0027 2.43657 14.0027C2.37871 14.0027 2.3278 14.0303 2.29471 14.0726L1.64462 13.8735C1.64632 13.8633 1.64772 13.8531 1.64772 13.8425C1.64772 13.748 1.57515 13.6714 1.48292 13.6631L1.37902 11.0063C1.40412 11.0027 1.42749 10.9943 1.44821 10.9816V10.9815ZM1.40895 9.69629L2.54126 10.3862C2.53701 10.3972 2.53394 10.4087 2.5319 10.4207L1.47231 10.6921C1.44317 10.6666 1.40609 10.6505 1.36501 10.648L1.32909 9.73069C1.35881 9.72586 1.38588 9.71379 1.40892 9.69629H1.40895ZM3.81199 5.4893C3.82409 5.4893 3.83588 5.48796 3.84734 5.48568L4.83825 7.53232C4.79251 7.56517 4.76252 7.61847 4.76252 7.67904C4.76252 7.69262 4.76428 7.70587 4.76707 7.71857L2.91687 8.61537C2.88411 8.56969 2.83081 8.5397 2.77027 8.5397C2.76204 8.5397 2.75417 8.54109 2.74608 8.5421L2.30097 6.60137C2.35166 6.56931 2.38551 6.51315 2.38551 6.44875C2.38551 6.41183 2.37433 6.37761 2.3554 6.34901L3.68108 5.43274C3.71405 5.46745 3.76036 5.4893 3.81196 5.4893H3.81199ZM6.91023 7.23122C6.86404 7.26133 6.83307 7.31199 6.82909 7.37025L5.11023 7.60899C5.08291 7.54377 5.01849 7.49807 4.94339 7.49807C4.9375 7.49804 4.93188 7.49928 4.92613 7.49977L3.93079 5.44386C3.96859 5.41065 3.99293 5.36254 3.99293 5.30836C3.99293 5.2793 3.98546 5.25232 3.9733 5.22798L5.54346 4.08223C5.58212 4.1332 5.64594 4.16268 5.71367 4.15262C5.71696 4.15219 5.71993 4.15098 5.72328 4.15028L6.91026 7.23122H6.91023ZM8.94428 10.1766C8.97488 10.2005 9.01299 10.2153 9.05487 10.2153C9.1457 10.2153 9.22013 10.1482 9.2331 10.061L10.2936 10.1325C10.2979 10.2285 10.3766 10.3052 10.4737 10.3052C10.5396 10.3052 10.5966 10.2695 10.6283 10.2169L11.1748 10.4365C11.174 10.4431 11.1728 10.4497 11.1728 10.4564C11.1728 10.4907 11.1828 10.5224 11.1993 10.5496L10.7538 10.9945C10.7362 10.9888 10.7177 10.985 10.6982 10.985C10.6256 10.985 10.5634 11.0279 10.5347 11.0897H9.3718C9.35026 11.0139 9.28124 10.958 9.19852 10.958C9.15096 10.958 9.1079 10.9768 9.07556 11.007L8.71153 10.7724C8.71937 10.7523 8.72399 10.7307 8.72399 10.7079C8.72399 10.6405 8.6867 10.5824 8.63209 10.5513L8.94428 10.1767V10.1766ZM7.85819 15.2038C7.85506 15.1846 7.84826 15.1668 7.83799 15.1513L8.41611 14.513C8.42933 14.519 8.4438 14.5223 8.45893 14.5237L8.64966 15.251C8.62954 15.2619 8.61243 15.2774 8.60021 15.2965L7.85819 15.2038ZM6.49614 15.2702C6.50115 15.256 6.50441 15.2411 6.50441 15.2253C6.50441 15.1771 6.47894 15.1353 6.44098 15.1115L6.5447 10.5788C6.6204 10.5616 6.67732 10.497 6.68404 10.4178L7.42281 10.4289C7.43481 10.4893 7.47675 10.5387 7.53257 10.5612L7.65267 15.1124C7.61563 15.1363 7.59092 15.1779 7.59092 15.2253C7.59092 15.2312 7.59195 15.2368 7.59271 15.2424L7.10882 15.5304C7.08937 15.5195 7.06722 15.5126 7.04324 15.5126C7.01343 15.5126 6.9862 15.5227 6.96389 15.5389L6.49617 15.2702H6.49614ZM5.40911 15.1878C5.40258 15.1702 5.39273 15.1541 5.37988 15.1409L5.57601 14.5065C5.57716 14.5066 5.57829 14.5069 5.57944 14.5069C5.60087 14.5069 5.62074 14.5015 5.6387 14.4927L6.24616 15.1717C6.24072 15.1843 6.23771 15.1979 6.23625 15.2122L5.40908 15.1878H5.40911ZM4.99803 11.0032C4.96685 10.9775 4.92732 10.9614 4.88374 10.9614C4.80229 10.9614 4.73416 11.0156 4.71149 11.0897H3.5879C3.57435 11.0031 3.50008 10.9368 3.40973 10.9368C3.36673 10.9367 3.32783 10.9523 3.29677 10.9774L2.86366 10.5449C2.88056 10.5173 2.8908 10.4853 2.8908 10.4506C2.8908 10.4463 2.88977 10.4422 2.88946 10.4379L3.48224 10.1997C3.51533 10.2418 3.56617 10.2693 3.62385 10.2693C3.70913 10.2693 3.78008 10.2102 3.79929 10.1308L4.86493 10.059C4.89219 10.1245 4.95664 10.1705 5.03195 10.1705C5.05805 10.1705 5.08279 10.1647 5.10519 10.1548L5.44588 10.5635C5.41425 10.5961 5.39446 10.6405 5.39446 10.6895C5.39449 10.7079 5.39802 10.7253 5.40312 10.742L4.99803 11.0032V11.0032ZM4.94339 7.85997C4.96081 7.85997 4.97722 7.85675 4.99314 7.85217L5.61688 9.13864C5.59677 9.15815 5.58166 9.18249 5.57227 9.20963L2.94936 8.73914C2.95006 8.73297 2.95127 8.72708 2.95127 8.72066C2.95127 8.71474 2.95012 8.70909 2.94948 8.70331L4.81071 7.80114C4.84375 7.83712 4.89073 7.85997 4.94339 7.85997ZM6.34811 15.0928C6.33502 15.0949 6.32274 15.0989 6.31125 15.1045L5.7034 14.425C5.71033 14.4088 5.71416 14.391 5.71416 14.3722C5.71416 14.3219 5.68617 14.2786 5.64533 14.2554L6.44582 10.8188L6.34811 15.0928V15.0928ZM7.6001 10.2127C7.5206 10.2127 7.45383 10.2643 7.42964 10.3357L6.66714 10.3243C6.63788 10.2637 6.5764 10.2216 6.50468 10.2216C6.48942 10.2216 6.47481 10.2241 6.46071 10.2277L5.87288 9.39361C5.89027 9.3755 5.90355 9.35365 5.91221 9.32949L6.90166 9.30445C6.93138 9.36352 6.992 9.40446 7.06266 9.40446C7.13155 9.40443 7.19069 9.36544 7.22126 9.30876L8.14987 9.34447C8.15018 9.34684 8.14993 9.34915 8.15033 9.35161C8.15361 9.372 8.16093 9.39069 8.17029 9.40789L7.63122 10.2158C7.62098 10.214 7.61082 10.2127 7.60016 10.2127H7.6001ZM8.33625 14.3902C8.33625 14.4108 8.34117 14.43 8.34944 14.4475L7.76198 15.0962C7.75666 15.0947 7.75119 15.0934 7.74554 15.0926L7.63398 10.8626L8.39876 14.2768C8.3612 14.3008 8.33625 14.3424 8.33625 14.3901V14.3902ZM11.1555 8.76412L8.48078 9.22437C8.46404 9.19836 8.4407 9.17781 8.41384 9.16338L9.02573 7.86769C9.02992 7.868 9.03393 7.86894 9.03813 7.86894C9.10052 7.86894 9.15543 7.83746 9.18794 7.78953L11.1571 8.75318C11.1566 8.7568 11.1558 8.76044 11.1555 8.76412ZM8.85792 7.69514C8.86029 7.75443 8.89065 7.80649 8.93665 7.83773L8.32048 9.14244C8.31355 9.14271 8.3065 9.14259 8.29948 9.14372C8.23597 9.15414 8.1861 9.19659 8.16257 9.25163L7.24281 9.21619C7.23907 9.12311 7.16538 9.04875 7.07269 9.04358L7.06883 7.55256C7.11469 7.53636 7.15198 7.50263 7.1724 7.45886L8.85795 7.69511L8.85792 7.69514ZM6.84689 7.46196C6.87169 7.51238 6.91861 7.54961 6.97547 7.56027L6.97939 9.06373C6.92497 9.09218 6.88713 9.14703 6.88291 9.21158L5.92032 9.23598C5.90494 9.15156 5.83143 9.08743 5.7426 9.08743C5.72741 9.0874 5.71282 9.08993 5.69869 9.09345L5.07364 7.80421C5.09996 7.77683 5.1171 7.74112 5.12214 7.70152L6.84689 7.46196ZM1.4752 9.50945L2.65139 8.85602C2.68327 8.88404 2.72457 8.90157 2.77034 8.90157C2.82999 8.90157 2.88241 8.87237 2.91535 8.82782L5.56522 9.30308C5.58142 9.38638 5.6546 9.44934 5.74266 9.44934C5.76008 9.44934 5.77652 9.44612 5.79253 9.44153L6.37862 10.2731C6.35036 10.3007 6.3317 10.3375 6.32626 10.3786L5.72033 10.5819C5.68736 10.5376 5.635 10.5086 5.57552 10.5086C5.55881 10.5086 5.54292 10.5115 5.52763 10.5158L5.17782 10.096C5.19967 10.066 5.21307 10.0295 5.21307 9.98951C5.21307 9.88959 5.13199 9.80858 5.03207 9.80858C4.94011 9.80858 4.86502 9.87741 4.85347 9.96621L3.7968 10.0374C3.77462 9.96247 3.70612 9.90746 3.62394 9.90746C3.52402 9.90743 3.44307 9.98848 3.44307 10.0883C3.44307 10.0978 3.44446 10.1068 3.4458 10.1159L2.86005 10.3498C2.82759 10.3015 2.77243 10.2697 2.70992 10.2697C2.66683 10.2697 2.62775 10.2854 2.59663 10.3106L1.46702 9.62241C1.47605 9.60092 1.48106 9.57737 1.48106 9.55273C1.48106 9.53771 1.47869 9.52337 1.47529 9.50945H1.4752ZM3.94519 17.0289C3.93668 17.0289 3.92863 17.0303 3.92033 17.0314L2.57107 14.3036C2.59967 14.2716 2.61751 14.2299 2.61751 14.1837C2.61751 14.1271 2.59104 14.0772 2.55035 14.044L2.8392 13.2775C2.85673 13.2831 2.87509 13.287 2.89454 13.287C2.93058 13.287 2.96392 13.2762 2.99206 13.2581L4.4334 14.9796C4.41352 15.0087 4.40176 15.0437 4.40176 15.0816C4.40176 15.1397 4.42969 15.1909 4.47227 15.2239L3.95039 17.0294C3.94863 17.0293 3.94695 17.0289 3.94519 17.0289V17.0289ZM4.76169 15.0619C4.75176 14.9714 4.6759 14.9007 4.5827 14.9007C4.55462 14.9007 4.5283 14.9077 4.50454 14.9192L3.05511 13.1879C3.06767 13.1633 3.07548 13.1356 3.07548 13.106C3.07548 13.0061 2.99446 12.9252 2.89454 12.9252C2.88074 12.9252 2.8674 12.927 2.85445 12.9299L1.51349 10.9112C1.52665 10.8862 1.53479 10.8581 1.53479 10.8278C1.53479 10.8091 1.53124 10.7915 1.52595 10.7746L2.54108 10.5146C2.56706 10.5828 2.63249 10.6316 2.70983 10.6316C2.74107 10.6316 2.77003 10.6229 2.79577 10.609L3.24104 11.0536C3.23338 11.0735 3.22882 11.095 3.22882 11.1176C3.22882 11.2176 3.30975 11.2986 3.4097 11.2986C3.48652 11.2986 3.55177 11.2505 3.578 11.1829H4.70769C4.72623 11.2632 4.79777 11.3233 4.88368 11.3233C4.98369 11.3232 5.06462 11.2423 5.06462 11.1423C5.06462 11.1199 5.06 11.0987 5.05261 11.0789L5.45232 10.8213C5.4846 10.8515 5.52772 10.8704 5.5754 10.8704C5.67532 10.8704 5.75634 10.7894 5.75634 10.6894C5.75634 10.6824 5.75506 10.6757 5.7543 10.6689L6.33787 10.473C6.35273 10.5082 6.37872 10.5371 6.41099 10.5567L5.55306 14.2402C5.49128 14.2524 5.44467 14.3069 5.44467 14.3722C5.44467 14.4117 5.46202 14.4469 5.489 14.4715L5.2946 15.1008C5.29074 15.1005 5.28701 15.0996 5.28309 15.0996C5.23856 15.0996 5.19936 15.1215 5.1749 15.1548L4.7616 15.0619H4.76169ZM6.33161 15.7478C6.30782 15.7093 6.26564 15.6833 6.21704 15.6833C6.18477 15.6833 6.15557 15.6951 6.13235 15.714L5.46828 15.2829L6.26269 15.3063C6.28727 15.3387 6.32593 15.36 6.36975 15.36C6.39352 15.36 6.41555 15.3534 6.43497 15.3426L6.90512 15.6128L6.33164 15.7479L6.33161 15.7478ZM7.94547 15.7398C7.9211 15.716 7.88804 15.7012 7.8513 15.7012C7.80492 15.7012 7.76402 15.7247 7.7398 15.7605L7.17477 15.6192C7.17358 15.6135 7.17161 15.6082 7.16975 15.6028L7.63608 15.3253C7.65996 15.3466 7.69108 15.36 7.72567 15.36C7.77429 15.36 7.81641 15.3341 7.84008 15.2956L8.57882 15.3879L7.9455 15.7398L7.94547 15.7398ZM12.4939 11.0014L11.2514 12.9438C11.1574 12.9503 11.083 13.0278 11.083 13.1234C11.0831 13.1371 11.0848 13.1503 11.0876 13.1631L9.517 14.938C9.49865 14.9317 9.47926 14.9276 9.45868 14.9276C9.35882 14.9276 9.27781 15.0086 9.27781 15.1086C9.27781 15.1108 9.27835 15.1128 9.27841 15.1151L8.81321 15.2792C8.79474 15.2587 8.77039 15.2438 8.74262 15.2376L8.5491 14.4995C8.5832 14.4751 8.60562 14.4353 8.60562 14.3901C8.60565 14.3222 8.55524 14.2666 8.4899 14.2573L7.6624 10.5628C7.69984 10.549 7.73132 10.5237 7.7525 10.4906L8.36421 10.6872C8.36348 10.694 8.36211 10.7007 8.36211 10.7079C8.36214 10.8077 8.44313 10.8888 8.54305 10.8888C8.5862 10.8887 8.62534 10.873 8.6564 10.8478L9.02645 11.0861C9.02126 11.1029 9.01761 11.1204 9.01761 11.1388C9.01761 11.2388 9.09863 11.3198 9.19855 11.3198C9.28325 11.3198 9.35369 11.2614 9.37347 11.1828H10.519C10.5277 11.2747 10.6042 11.3467 10.6982 11.3467C10.7981 11.3467 10.8791 11.2657 10.8791 11.1658C10.8791 11.12 10.8616 11.0787 10.8335 11.0468L11.2668 10.6141C11.2927 10.6285 11.322 10.6374 11.3537 10.6374C11.4162 10.6374 11.4713 10.6057 11.5039 10.5575L12.4685 10.879C12.4673 10.8877 12.4659 10.8964 12.4659 10.9054C12.4659 10.9407 12.4764 10.9734 12.4939 11.0013L12.4939 11.0014ZM12.5192 9.63721L11.4762 10.324C11.4439 10.2942 11.4012 10.2755 11.3537 10.2755C11.2939 10.2755 11.2414 10.3048 11.2084 10.3495L10.6544 10.1268C10.6544 10.1259 10.6547 10.1251 10.6547 10.1242C10.6547 10.0243 10.5736 9.94326 10.4737 9.94326C10.4034 9.94326 10.3431 9.9838 10.3131 10.0423L9.22256 9.96709C9.19582 9.90056 9.13096 9.85352 9.05487 9.85352C8.95501 9.85349 8.87393 9.93451 8.87393 10.0345C8.87393 10.0576 8.8787 10.0796 8.88666 10.1L8.52977 10.5283C8.47589 10.5323 8.42876 10.5594 8.39837 10.6002L7.78034 10.4016C7.78034 10.3989 7.7811 10.3964 7.7811 10.3936C7.7811 10.3381 7.75566 10.2892 7.71637 10.256L8.23639 9.47691C8.27185 9.49812 8.31425 9.50802 8.35801 9.50085C8.44951 9.48581 8.51278 9.40461 8.50865 9.31423L11.1731 8.85584C11.207 8.92637 11.2837 8.96968 11.3647 8.95633C11.3997 8.95068 11.4302 8.93497 11.4548 8.91327L12.5191 9.53401C12.5141 9.55042 12.5107 9.5674 12.5107 9.58543C12.5107 9.60351 12.5142 9.62071 12.5192 9.63721ZM11.672 6.33877C11.6631 6.36035 11.658 6.38384 11.658 6.40842C11.658 6.47601 11.6955 6.53421 11.7504 6.56526L11.3151 8.59868C11.3121 8.59902 11.3092 8.59877 11.3061 8.59926C11.2594 8.60695 11.2202 8.63223 11.1932 8.66694L9.21782 7.70016C9.21815 7.69605 9.21909 7.69216 9.21909 7.68797C9.21909 7.63935 9.19968 7.59547 9.1685 7.56295L10.1598 5.42621C10.1712 5.42843 10.183 5.42976 10.195 5.42976C10.2401 5.42976 10.2811 5.41256 10.3127 5.38524L11.672 6.33877ZM8.39016 4.10974C8.43979 4.10974 8.48483 4.08962 8.51752 4.05713L10.0278 5.17969C10.0191 5.20099 10.0141 5.2243 10.0141 5.24876C10.0141 5.30307 10.0385 5.35118 10.0763 5.38436L9.0879 7.51484C9.07204 7.51028 9.05557 7.50703 9.03809 7.50703C8.96868 7.507 8.90924 7.54648 8.87885 7.60385L7.18802 7.36688C7.18391 7.3191 7.16146 7.27695 7.12748 7.24717L8.34911 4.10466C8.36233 4.1077 8.37591 4.10974 8.39016 4.10974ZM7.20029 3.95408L8.21077 3.94487C8.21482 3.99022 8.23496 4.03063 8.26629 4.06011L7.06971 7.1382L7.08649 4.05631C7.13775 4.04072 7.17948 4.00331 7.20026 3.95408H7.20029ZM6.86947 3.95712C6.89221 4.00802 6.93724 4.04692 6.99328 4.05987L6.97635 7.14327L5.80709 4.10889C5.84672 4.07366 5.86948 4.02185 5.86705 3.96621L6.86947 3.95709V3.95712ZM2.87597 2.87866C2.87299 2.85854 2.86609 2.8401 2.85731 2.82296L4.54888 1.93592C4.58619 1.99235 4.65336 2.02566 4.72474 2.01557L5.58695 3.82377C5.53276 3.86006 5.50061 3.92412 5.50791 3.99265L3.91164 5.15756C3.88304 5.13854 3.84883 5.12742 3.81199 5.12742C3.80139 5.12742 3.79115 5.12885 3.78106 5.13055L2.80711 3.04769C2.85707 3.00894 2.88591 2.94573 2.876 2.87869L2.87597 2.87866ZM1.36185 7.06839C1.36185 7.03855 1.35395 7.01077 1.34109 6.98591L2.0522 6.54569C2.08436 6.59608 2.14039 6.62972 2.20448 6.62972C2.20698 6.62972 2.2092 6.62911 2.21163 6.62905L2.6589 8.57911C2.61687 8.61221 2.58943 8.66298 2.58943 8.72066C2.58943 8.74084 2.5935 8.75999 2.59955 8.77804L1.43028 9.42761C1.40074 9.3968 1.36036 9.37708 1.31517 9.37322L1.23181 7.24113C1.30684 7.21909 1.36185 7.15053 1.36188 7.06836L1.36185 7.06839ZM3.077 17.7736C3.0498 17.7572 3.01837 17.7473 2.98434 17.7473C2.96434 17.7472 2.94547 17.7512 2.92751 17.7572L1.5464 14.0041C1.5688 13.9931 1.58834 13.9776 1.60429 13.9587L2.25809 14.1591C2.25703 14.1673 2.25563 14.1753 2.25563 14.1837C2.25563 14.2837 2.33671 14.3646 2.43657 14.3646C2.4562 14.3646 2.47477 14.3607 2.49242 14.355L3.83439 17.0677C3.792 17.1008 3.76422 17.1519 3.76422 17.2098C3.76422 17.2301 3.76829 17.2491 3.77443 17.2674L3.07703 17.7736H3.077ZM7.77079 20.6381C7.68883 20.6381 7.6204 20.693 7.59815 20.7676L6.52185 20.7924C6.51252 20.7011 6.43639 20.6297 6.34267 20.6297C6.33125 20.6297 6.32006 20.6311 6.30915 20.6331L5.70936 19.1336C5.77117 19.1047 5.81426 19.0425 5.81426 18.9699C5.81429 18.9405 5.8067 18.9132 5.79427 18.8887L6.17417 18.6237C6.20544 18.6497 6.24506 18.6658 6.28882 18.6658C6.37322 18.6658 6.44348 18.6079 6.46356 18.5298H7.51267C7.52956 18.6122 7.60247 18.6743 7.68993 18.6743C7.74588 18.6743 7.79523 18.6484 7.82844 18.6085L8.27936 18.8791C8.26389 18.9058 8.25432 18.9362 8.25432 18.9693C8.25432 19.0273 8.28222 19.0784 8.32464 19.1114L7.7718 20.6383C7.77146 20.6382 7.77113 20.6382 7.77083 20.6381H7.77079ZM9.15364 18.5099C9.05469 18.5099 8.97443 18.5895 8.97303 18.6881L8.55451 18.8341C8.5226 18.8059 8.48124 18.7884 8.43526 18.7884C8.40359 18.7884 8.37424 18.7973 8.34832 18.8116L7.86786 18.5234C7.86956 18.5136 7.8709 18.5037 7.8709 18.4933C7.8709 18.3934 7.78988 18.3124 7.68993 18.3124C7.61006 18.3124 7.54297 18.3646 7.51905 18.4365H6.46241C6.44113 18.3603 6.37188 18.304 6.28882 18.304C6.18896 18.304 6.10789 18.385 6.10789 18.485C6.10792 18.5072 6.11244 18.5282 6.11983 18.5479L5.73197 18.8184C5.70361 18.8 5.66979 18.789 5.63335 18.789C5.5672 18.789 5.50994 18.8248 5.4784 18.8778L5.04088 18.7125C5.04112 18.7084 5.0421 18.7046 5.0421 18.7005C5.0421 18.6006 4.96108 18.5196 4.86113 18.5196C4.84475 18.5196 4.82919 18.5224 4.81412 18.5266L4.08304 17.3258C4.10951 17.2943 4.12616 17.2542 4.12616 17.2099C4.12616 17.1448 4.0914 17.0882 4.03982 17.0562L4.55906 15.2602C4.56687 15.2612 4.57462 15.2627 4.58276 15.2627C4.65673 15.2627 4.72012 15.2181 4.74814 15.1546L5.14955 15.2447C5.1549 15.3141 5.2124 15.3691 5.28324 15.3691C5.3184 15.3691 5.35022 15.3552 5.37419 15.3331L6.08479 15.7944C6.08345 15.8021 6.08242 15.8099 6.08242 15.8181C6.08242 15.8924 6.14271 15.9527 6.21713 15.9527C6.28411 15.9527 6.33933 15.9036 6.34969 15.8395L6.9219 15.7048C6.94353 15.7504 6.98957 15.7822 7.04333 15.7822C7.09417 15.7822 7.13794 15.7536 7.16088 15.7119L7.71837 15.8512C7.726 15.9184 7.78234 15.9707 7.85148 15.9707C7.92587 15.9707 7.98626 15.9104 7.98626 15.836C7.98626 15.8322 7.98534 15.8284 7.98504 15.8246L8.62446 15.4694C8.64832 15.4905 8.67923 15.5038 8.7136 15.5038C8.78793 15.5038 8.84828 15.4434 8.84828 15.3691C8.84828 15.368 8.84798 15.367 8.84798 15.3661L9.30595 15.2045C9.33211 15.2462 9.37454 15.2765 9.42471 15.2861L9.94099 17.1262C9.87845 17.1547 9.83469 17.2174 9.83469 17.2908C9.83469 17.3365 9.85229 17.378 9.88049 17.4099L9.19056 18.5138C9.17868 18.5114 9.16649 18.51 9.15379 18.51L9.15364 18.5099ZM12.3581 13.8778C12.3581 13.8832 12.3592 13.8884 12.3597 13.8937L11.7963 14.0782C11.7634 14.0326 11.7103 14.0027 11.6497 14.0027C11.6326 14.0027 11.6163 14.0058 11.6005 14.0103L11.3321 13.2909C11.3982 13.2639 11.4448 13.1992 11.4448 13.1235C11.4448 13.1088 11.4426 13.0949 11.4394 13.0813L12.4519 12.804C12.4729 12.8435 12.5078 12.8741 12.5505 12.8892L12.5204 13.6987C12.4293 13.7082 12.358 13.7842 12.358 13.8778L12.3581 13.8778ZM12.998 7.08963C12.998 6.99807 12.9298 6.92316 12.8415 6.9111L12.5922 5.08202C12.6466 5.05087 12.6838 4.99282 12.6838 4.92548C12.6838 4.82559 12.6028 4.7446 12.5029 4.7446C12.494 4.7446 12.4855 4.74591 12.4769 4.74719L11.3852 3.04656C11.3997 3.02046 11.4087 2.99092 11.4087 2.95898C11.4087 2.85903 11.3277 2.77801 11.2277 2.77801C11.1945 2.77801 11.1637 2.78768 11.1368 2.80339L9.39414 1.847C9.39699 1.82922 9.39809 1.8109 9.39529 1.79212C9.38074 1.69323 9.28872 1.62495 9.18986 1.63953C9.13771 1.64725 9.0945 1.67679 9.06706 1.71724L7.15067 1.15993C7.15042 1.15807 7.15067 1.15637 7.15036 1.15461C7.13575 1.05569 7.04379 0.987375 6.94502 1.00196C6.86501 1.01378 6.80587 1.07642 6.79353 1.15218L4.83733 1.72009C4.79825 1.67393 4.73732 1.64798 4.67308 1.65746C4.57969 1.67123 4.51445 1.75428 4.51979 1.84679L2.79197 2.75197C2.75681 2.73024 2.71457 2.71957 2.6706 2.72605C2.57174 2.74063 2.50346 2.83268 2.51801 2.93151C2.52169 2.95649 2.53038 2.97946 2.54284 2.9997L1.48501 4.86148C1.47377 4.85926 1.46222 4.85799 1.45031 4.85799C1.35039 4.85799 1.26943 4.939 1.26943 5.03895C1.26943 5.11204 1.31295 5.17458 1.37537 5.20318L1.149 6.89064C1.06436 6.90578 1 6.97935 1 7.06836C1 7.15363 1.0592 7.22465 1.13864 7.2438L1.22242 9.38987C1.16152 9.41895 1.11904 9.48061 1.11904 9.55273C1.11904 9.62979 1.16754 9.69516 1.23543 9.72121L1.27235 10.6671C1.21364 10.697 1.17298 10.7574 1.17298 10.8278C1.17298 10.9034 1.21941 10.968 1.28517 10.9951L1.39017 13.6791C1.32875 13.708 1.28584 13.77 1.28584 13.8424C1.28584 13.9378 1.3599 14.0152 1.45359 14.022L2.8478 17.8106C2.82051 17.8423 2.80337 17.8831 2.80337 17.9283C2.80337 18.0281 2.88445 18.1092 2.98437 18.1092C2.99856 18.1092 3.01227 18.107 3.02555 18.1039L4.25459 19.5815C4.24532 19.6033 4.24018 19.6271 4.24018 19.6524C4.24018 19.7522 4.3212 19.8333 4.42112 19.8333C4.45753 19.8333 4.49138 19.8223 4.51986 19.8037L6.16386 20.7902C6.1631 20.797 6.16183 20.8037 6.16183 20.8107C6.16186 20.9106 6.24291 20.9916 6.3427 20.9916C6.41573 20.9916 6.47812 20.9482 6.50678 20.8861L7.5952 20.8611C7.6142 20.9406 7.68537 21 7.77083 21C7.87072 21 7.95176 20.919 7.95176 20.8191C7.95176 20.7987 7.9476 20.7794 7.94128 20.7611L9.61388 19.8151C9.64637 19.8636 9.70156 19.8955 9.76434 19.8955C9.8642 19.8955 9.94522 19.8144 9.94522 19.7145C9.94522 19.6624 9.92285 19.6158 9.8876 19.5828L11.0147 18.1671C11.0361 18.1759 11.0595 18.1809 11.084 18.1809C11.184 18.1809 11.265 18.1 11.265 18C11.265 17.938 11.2337 17.8834 11.1863 17.8508L12.5451 14.058C12.6422 14.0547 12.72 13.9756 12.72 13.8777C12.72 13.8043 12.6761 13.7413 12.6132 13.713L12.6436 12.897C12.7278 12.8816 12.7918 12.808 12.7918 12.7193C12.7918 12.6353 12.7343 12.5654 12.6566 12.5449L12.7115 11.0739C12.7793 11.0479 12.8277 10.9825 12.8277 10.9054C12.8277 10.8331 12.7851 10.7712 12.7238 10.7423L12.7606 9.75254C12.8263 9.72543 12.8726 9.66085 12.8726 9.5854C12.8726 9.5148 12.8317 9.4543 12.7728 9.42451L12.8531 7.26686C12.9359 7.25018 12.998 7.17715 12.998 7.0896V7.08963Z" fill="#06BAD1"/>
<path fill-rule="evenodd" clip-rule="evenodd" d="M11.0839 17.819C11.0344 17.819 10.9896 17.839 10.9569 17.8712L10.1866 17.3466C10.1924 17.3289 10.1964 17.3102 10.1964 17.2906C10.1964 17.2373 10.1729 17.1899 10.1362 17.1567L11.5835 14.3516C11.604 14.3597 11.6262 14.3645 11.6497 14.3645C11.7497 14.3645 11.8306 14.2835 11.8306 14.1836C11.8306 14.1775 11.8295 14.1717 11.8288 14.1657L12.3911 13.9815C12.4072 14.0045 12.4289 14.023 12.4537 14.0364L11.098 17.8205C11.0933 17.8201 11.0888 17.819 11.0839 17.819L11.0839 17.819ZM9.76425 19.5335C9.74602 19.5335 9.72872 19.5371 9.71216 19.542L9.28082 18.8193C9.31397 18.7866 9.33448 18.7411 9.33448 18.6908C9.33451 18.6372 9.31072 18.5895 9.27364 18.5564L9.95795 17.4613C9.97609 17.4674 9.99518 17.4715 10.0154 17.4715C10.0618 17.4715 10.1037 17.4535 10.1357 17.4248L10.9102 17.9524C10.906 17.9676 10.903 17.9834 10.903 18C10.903 18.0414 10.9175 18.0792 10.941 18.1096L9.80379 19.5382C9.79102 19.5354 9.77783 19.5335 9.76425 19.5335ZM7.88919 20.6833C7.88065 20.6758 7.87157 20.6692 7.86178 20.6635L8.41058 19.1477C8.41879 19.1488 8.42684 19.1501 8.4352 19.1501C8.53515 19.1501 8.61617 19.0692 8.61617 18.9693C8.61617 18.95 8.61237 18.932 8.60681 18.9146L8.99634 18.7788C9.02728 18.834 9.08571 18.8717 9.15351 18.8717C9.16947 18.8717 9.18472 18.869 9.19946 18.8653L9.63263 19.5911C9.60218 19.6234 9.58325 19.6666 9.58325 19.7145C9.58325 19.718 9.58401 19.7212 9.58419 19.7246L7.88913 20.6833L7.88919 20.6833ZM4.58252 19.7324C4.59458 19.7081 4.60194 19.6812 4.60194 19.6523C4.60194 19.5901 4.57061 19.5355 4.52302 19.5029L4.82515 18.8777C4.83673 18.88 4.84879 18.8814 4.86104 18.8814C4.92376 18.8814 4.97892 18.8495 5.01137 18.8009L5.45257 18.9676C5.45257 18.9684 5.45238 18.9691 5.45238 18.9698C5.45238 19.0634 5.5238 19.1396 5.61503 19.1489L6.2251 20.6741C6.21531 20.6826 6.2065 20.6919 6.19866 20.7022L4.58249 19.7323L4.58252 19.7324ZM3.16528 17.9282C3.16528 17.8966 3.15643 17.8673 3.14221 17.8415L3.82612 17.3451C3.85794 17.3732 3.89936 17.3907 3.94513 17.3907C3.9668 17.3907 3.98731 17.3863 4.00649 17.3793L4.73289 18.5726C4.70034 18.6053 4.6801 18.6506 4.6801 18.7004C4.6801 18.7544 4.70432 18.8024 4.74185 18.8355L4.43394 19.4726C4.42963 19.4723 4.42543 19.4713 4.42106 19.4713C4.38085 19.4713 4.34399 19.4849 4.314 19.507L3.10915 18.0587C3.14349 18.0257 3.16525 17.9796 3.16525 17.9282L3.16528 17.9282ZM2.6131 3.06474C2.64522 3.08169 2.68248 3.08935 2.7211 3.08412L3.69651 5.17005C3.65673 5.20318 3.63099 5.25244 3.63099 5.3083C3.63099 5.32276 3.63309 5.33668 3.63631 5.35023L2.2824 6.28605C2.25867 6.27465 2.2325 6.26775 2.20445 6.26775C2.10466 6.26775 2.02361 6.34883 2.02361 6.44869C2.02361 6.45021 2.02403 6.45167 2.02409 6.45325L1.27718 6.91562C1.26624 6.90869 1.25436 6.9031 1.24196 6.89867L1.46745 5.21807C1.5592 5.20932 1.63113 5.13295 1.63113 5.03892C1.63113 4.98447 1.60663 4.93627 1.56859 4.90305L2.61307 3.06474H2.6131ZM6.80301 1.24648C6.82316 1.29844 6.86622 1.33719 6.91819 1.35329L6.98793 3.70972C6.91728 3.7285 6.86355 3.78852 6.85513 3.8638L5.83696 3.87306C5.80195 3.8211 5.74142 3.78977 5.67587 3.7939L4.81032 1.97837C4.85985 1.93957 4.88824 1.87672 4.87839 1.81002C4.87815 1.8085 4.87757 1.8071 4.87724 1.80558L6.80298 1.24648H6.80301ZM9.03718 1.8449C9.04533 1.9 9.0779 1.94489 9.12185 1.97193L8.39062 3.74786C8.39043 3.74786 8.39025 3.7478 8.39013 3.7478C8.31796 3.74777 8.25611 3.79031 8.22706 3.85137L7.21309 3.86064C7.20376 3.78794 7.15143 3.72832 7.0812 3.70945L7.01155 1.35642C7.06892 1.34327 7.11432 1.30412 7.13672 1.25289L9.03612 1.80436C9.03512 1.81768 9.03512 1.8312 9.03715 1.8449H9.03718ZM11.0694 2.87283C11.0554 2.8986 11.0467 2.92762 11.0467 2.95895C11.0467 3.01508 11.0729 3.06468 11.113 3.09789L10.2202 5.07035C10.2119 5.06913 10.2037 5.06782 10.195 5.06782C10.1534 5.06782 10.1156 5.08238 10.0851 5.10593L8.56411 3.97545C8.56818 3.96046 8.57107 3.94503 8.57107 3.92877C8.57107 3.86215 8.53463 3.8046 8.48115 3.77324L9.21171 1.99895C9.22192 1.99916 9.23213 1.99904 9.24256 1.99755C9.28905 1.99065 9.32831 1.96631 9.35588 1.93252L11.0694 2.87283H11.0694ZM12.3924 5.06792L11.8592 6.22952C11.8525 6.22876 11.8458 6.22752 11.8389 6.22752C11.7977 6.22752 11.76 6.24195 11.7295 6.2652L10.3652 5.30805C10.3716 5.28939 10.376 5.26967 10.376 5.24873C10.376 5.19096 10.3483 5.14009 10.3061 5.107L11.1979 3.13694C11.2077 3.13852 11.2175 3.13992 11.2277 3.13992C11.2608 3.13992 11.2913 3.13038 11.3181 3.11482L12.3903 4.7849C12.3489 4.81805 12.3219 4.86841 12.3219 4.92545C12.3219 4.98365 12.3498 5.03479 12.3924 5.06788L12.3924 5.06792ZM12.7201 6.93732L12.0118 6.45914C12.0165 6.44295 12.02 6.4262 12.02 6.40839C12.02 6.34886 11.9907 6.29644 11.9463 6.26353L12.4785 5.10399C12.486 5.10499 12.4934 5.10621 12.5012 5.10627L12.7488 6.92219C12.7387 6.92638 12.7293 6.93149 12.7202 6.93729L12.7201 6.93732ZM12.5675 9.45433L11.5062 8.83517C11.5153 8.80809 11.5189 8.77871 11.514 8.74853C11.5037 8.6856 11.462 8.63594 11.4075 8.61224L11.8406 6.58924C11.8883 6.58885 11.9314 6.56982 11.9635 6.53916L12.6568 7.00716C12.6441 7.03201 12.6361 7.05979 12.6361 7.08963C12.6361 7.1695 12.6882 7.23654 12.76 7.26048L12.6801 9.40558C12.6365 9.40838 12.5973 9.42603 12.5675 9.45433H12.5675ZM12.5058 10.7932L11.5333 10.4689C11.5336 10.4647 11.5346 10.4607 11.5346 10.4564C11.5346 10.4377 11.5309 10.42 11.5256 10.4031L12.5679 9.71677C12.5946 9.74187 12.6288 9.75855 12.6668 9.76378L12.6309 10.726C12.5803 10.7305 12.5359 10.7555 12.5058 10.7931L12.5058 10.7932ZM12.4306 12.713L11.3932 12.9971C11.3803 12.984 11.3652 12.9734 11.3489 12.9646L12.5637 11.0653C12.5805 11.0741 12.5984 11.0804 12.6178 11.0834L12.5633 12.5455C12.4887 12.5659 12.4334 12.6325 12.4306 12.713ZM10.0336 17.1116L9.51934 15.2783C9.5893 15.2533 9.63962 15.1871 9.63962 15.1086C9.63962 15.0633 9.62239 15.0224 9.59507 14.9907L11.1351 13.2504C11.1619 13.2774 11.1972 13.2956 11.2366 13.3017L11.5191 14.0589C11.4882 14.0914 11.4688 14.1352 11.4688 14.1837C11.4688 14.2257 11.4837 14.264 11.508 14.2947L10.0536 17.1138C10.0472 17.1125 10.0403 17.1122 10.0337 17.1116H10.0336ZM1.44821 10.9815L2.77164 12.9738C2.73618 13.0069 2.7136 13.0537 2.7136 13.106C2.7136 13.1518 2.73116 13.1931 2.75921 13.225L2.4651 14.0056C2.45574 14.0041 2.44635 14.0027 2.43657 14.0027C2.37871 14.0027 2.3278 14.0303 2.29471 14.0726L1.64462 13.8735C1.64632 13.8633 1.64772 13.8531 1.64772 13.8425C1.64772 13.748 1.57515 13.6714 1.48292 13.6631L1.37902 11.0063C1.40412 11.0027 1.42749 10.9943 1.44821 10.9816V10.9815ZM1.40895 9.69629L2.54126 10.3862C2.53701 10.3972 2.53394 10.4087 2.5319 10.4207L1.47231 10.6921C1.44317 10.6666 1.40609 10.6505 1.36501 10.648L1.32909 9.73069C1.35881 9.72586 1.38588 9.71379 1.40892 9.69629H1.40895ZM3.81199 5.4893C3.82409 5.4893 3.83588 5.48796 3.84734 5.48568L4.83825 7.53232C4.79251 7.56517 4.76252 7.61847 4.76252 7.67904C4.76252 7.69262 4.76428 7.70587 4.76707 7.71857L2.91687 8.61537C2.88411 8.56969 2.83081 8.5397 2.77027 8.5397C2.76204 8.5397 2.75417 8.54109 2.74608 8.5421L2.30097 6.60137C2.35166 6.56931 2.38551 6.51315 2.38551 6.44875C2.38551 6.41183 2.37433 6.37761 2.3554 6.34901L3.68108 5.43274C3.71405 5.46745 3.76036 5.4893 3.81196 5.4893H3.81199ZM6.91023 7.23122C6.86404 7.26133 6.83307 7.31199 6.82909 7.37025L5.11023 7.60899C5.08291 7.54377 5.01849 7.49807 4.94339 7.49807C4.9375 7.49804 4.93188 7.49928 4.92613 7.49977L3.93079 5.44386C3.96859 5.41065 3.99293 5.36254 3.99293 5.30836C3.99293 5.2793 3.98546 5.25232 3.9733 5.22798L5.54346 4.08223C5.58212 4.1332 5.64594 4.16268 5.71367 4.15262C5.71696 4.15219 5.71993 4.15098 5.72328 4.15028L6.91026 7.23122H6.91023ZM8.94428 10.1766C8.97488 10.2005 9.01299 10.2153 9.05487 10.2153C9.1457 10.2153 9.22013 10.1482 9.2331 10.061L10.2936 10.1325C10.2979 10.2285 10.3766 10.3052 10.4737 10.3052C10.5396 10.3052 10.5966 10.2695 10.6283 10.2169L11.1748 10.4365C11.174 10.4431 11.1728 10.4497 11.1728 10.4564C11.1728 10.4907 11.1828 10.5224 11.1993 10.5496L10.7538 10.9945C10.7362 10.9888 10.7177 10.985 10.6982 10.985C10.6256 10.985 10.5634 11.0279 10.5347 11.0897H9.3718C9.35026 11.0139 9.28124 10.958 9.19852 10.958C9.15096 10.958 9.1079 10.9768 9.07556 11.007L8.71153 10.7724C8.71937 10.7523 8.72399 10.7307 8.72399 10.7079C8.72399 10.6405 8.6867 10.5824 8.63209 10.5513L8.94428 10.1767V10.1766ZM7.85819 15.2038C7.85506 15.1846 7.84826 15.1668 7.83799 15.1513L8.41611 14.513C8.42933 14.519 8.4438 14.5223 8.45893 14.5237L8.64966 15.251C8.62954 15.2619 8.61243 15.2774 8.60021 15.2965L7.85819 15.2038ZM6.49614 15.2702C6.50115 15.256 6.50441 15.2411 6.50441 15.2253C6.50441 15.1771 6.47894 15.1353 6.44098 15.1115L6.5447 10.5788C6.6204 10.5616 6.67732 10.497 6.68404 10.4178L7.42281 10.4289C7.43481 10.4893 7.47675 10.5387 7.53257 10.5612L7.65267 15.1124C7.61563 15.1363 7.59092 15.1779 7.59092 15.2253C7.59092 15.2312 7.59195 15.2368 7.59271 15.2424L7.10882 15.5304C7.08937 15.5195 7.06722 15.5126 7.04324 15.5126C7.01343 15.5126 6.9862 15.5227 6.96389 15.5389L6.49617 15.2702H6.49614ZM5.40911 15.1878C5.40258 15.1702 5.39273 15.1541 5.37988 15.1409L5.57601 14.5065C5.57716 14.5066 5.57829 14.5069 5.57944 14.5069C5.60087 14.5069 5.62074 14.5015 5.6387 14.4927L6.24616 15.1717C6.24072 15.1843 6.23771 15.1979 6.23625 15.2122L5.40908 15.1878H5.40911ZM4.99803 11.0032C4.96685 10.9775 4.92732 10.9614 4.88374 10.9614C4.80229 10.9614 4.73416 11.0156 4.71149 11.0897H3.5879C3.57435 11.0031 3.50008 10.9368 3.40973 10.9368C3.36673 10.9367 3.32783 10.9523 3.29677 10.9774L2.86366 10.5449C2.88056 10.5173 2.8908 10.4853 2.8908 10.4506C2.8908 10.4463 2.88977 10.4422 2.88946 10.4379L3.48224 10.1997C3.51533 10.2418 3.56617 10.2693 3.62385 10.2693C3.70913 10.2693 3.78008 10.2102 3.79929 10.1308L4.86493 10.059C4.89219 10.1245 4.95664 10.1705 5.03195 10.1705C5.05805 10.1705 5.08279 10.1647 5.10519 10.1548L5.44588 10.5635C5.41425 10.5961 5.39446 10.6405 5.39446 10.6895C5.39449 10.7079 5.39802 10.7253 5.40312 10.742L4.99803 11.0032V11.0032ZM4.94339 7.85997C4.96081 7.85997 4.97722 7.85675 4.99314 7.85217L5.61688 9.13864C5.59677 9.15815 5.58166 9.18249 5.57227 9.20963L2.94936 8.73914C2.95006 8.73297 2.95127 8.72708 2.95127 8.72066C2.95127 8.71474 2.95012 8.70909 2.94948 8.70331L4.81071 7.80114C4.84375 7.83712 4.89073 7.85997 4.94339 7.85997ZM6.34811 15.0928C6.33502 15.0949 6.32274 15.0989 6.31125 15.1045L5.7034 14.425C5.71033 14.4088 5.71416 14.391 5.71416 14.3722C5.71416 14.3219 5.68617 14.2786 5.64533 14.2554L6.44582 10.8188L6.34811 15.0928V15.0928ZM7.6001 10.2127C7.5206 10.2127 7.45383 10.2643 7.42964 10.3357L6.66714 10.3243C6.63788 10.2637 6.5764 10.2216 6.50468 10.2216C6.48942 10.2216 6.47481 10.2241 6.46071 10.2277L5.87288 9.39361C5.89027 9.3755 5.90355 9.35365 5.91221 9.32949L6.90166 9.30445C6.93138 9.36352 6.992 9.40446 7.06266 9.40446C7.13155 9.40443 7.19069 9.36544 7.22126 9.30876L8.14987 9.34447C8.15018 9.34684 8.14993 9.34915 8.15033 9.35161C8.15361 9.372 8.16093 9.39069 8.17029 9.40789L7.63122 10.2158C7.62098 10.214 7.61082 10.2127 7.60016 10.2127H7.6001ZM8.33625 14.3902C8.33625 14.4108 8.34117 14.43 8.34944 14.4475L7.76198 15.0962C7.75666 15.0947 7.75119 15.0934 7.74554 15.0926L7.63398 10.8626L8.39876 14.2768C8.3612 14.3008 8.33625 14.3424 8.33625 14.3901V14.3902ZM11.1555 8.76412L8.48078 9.22437C8.46404 9.19836 8.4407 9.17781 8.41384 9.16338L9.02573 7.86769C9.02992 7.868 9.03393 7.86894 9.03813 7.86894C9.10052 7.86894 9.15543 7.83746 9.18794 7.78953L11.1571 8.75318C11.1566 8.7568 11.1558 8.76044 11.1555 8.76412ZM8.85792 7.69514C8.86029 7.75443 8.89065 7.80649 8.93665 7.83773L8.32048 9.14244C8.31355 9.14271 8.3065 9.14259 8.29948 9.14372C8.23597 9.15414 8.1861 9.19659 8.16257 9.25163L7.24281 9.21619C7.23907 9.12311 7.16538 9.04875 7.07269 9.04358L7.06883 7.55256C7.11469 7.53636 7.15198 7.50263 7.1724 7.45886L8.85795 7.69511L8.85792 7.69514ZM6.84689 7.46196C6.87169 7.51238 6.91861 7.54961 6.97547 7.56027L6.97939 9.06373C6.92497 9.09218 6.88713 9.14703 6.88291 9.21158L5.92032 9.23598C5.90494 9.15156 5.83143 9.08743 5.7426 9.08743C5.72741 9.0874 5.71282 9.08993 5.69869 9.09345L5.07364 7.80421C5.09996 7.77683 5.1171 7.74112 5.12214 7.70152L6.84689 7.46196ZM1.4752 9.50945L2.65139 8.85602C2.68327 8.88404 2.72457 8.90157 2.77034 8.90157C2.82999 8.90157 2.88241 8.87237 2.91535 8.82782L5.56522 9.30308C5.58142 9.38638 5.6546 9.44934 5.74266 9.44934C5.76008 9.44934 5.77652 9.44612 5.79253 9.44153L6.37862 10.2731C6.35036 10.3007 6.3317 10.3375 6.32626 10.3786L5.72033 10.5819C5.68736 10.5376 5.635 10.5086 5.57552 10.5086C5.55881 10.5086 5.54292 10.5115 5.52763 10.5158L5.17782 10.096C5.19967 10.066 5.21307 10.0295 5.21307 9.98951C5.21307 9.88959 5.13199 9.80858 5.03207 9.80858C4.94011 9.80858 4.86502 9.87741 4.85347 9.96621L3.7968 10.0374C3.77462 9.96247 3.70612 9.90746 3.62394 9.90746C3.52402 9.90743 3.44307 9.98848 3.44307 10.0883C3.44307 10.0978 3.44446 10.1068 3.4458 10.1159L2.86005 10.3498C2.82759 10.3015 2.77243 10.2697 2.70992 10.2697C2.66683 10.2697 2.62775 10.2854 2.59663 10.3106L1.46702 9.62241C1.47605 9.60092 1.48106 9.57737 1.48106 9.55273C1.48106 9.53771 1.47869 9.52337 1.47529 9.50945H1.4752ZM3.94519 17.0289C3.93668 17.0289 3.92863 17.0303 3.92033 17.0314L2.57107 14.3036C2.59967 14.2716 2.61751 14.2299 2.61751 14.1837C2.61751 14.1271 2.59104 14.0772 2.55035 14.044L2.8392 13.2775C2.85673 13.2831 2.87509 13.287 2.89454 13.287C2.93058 13.287 2.96392 13.2762 2.99206 13.2581L4.4334 14.9796C4.41352 15.0087 4.40176 15.0437 4.40176 15.0816C4.40176 15.1397 4.42969 15.1909 4.47227 15.2239L3.95039 17.0294C3.94863 17.0293 3.94695 17.0289 3.94519 17.0289V17.0289ZM4.76169 15.0619C4.75176 14.9714 4.6759 14.9007 4.5827 14.9007C4.55462 14.9007 4.5283 14.9077 4.50454 14.9192L3.05511 13.1879C3.06767 13.1633 3.07548 13.1356 3.07548 13.106C3.07548 13.0061 2.99446 12.9252 2.89454 12.9252C2.88074 12.9252 2.8674 12.927 2.85445 12.9299L1.51349 10.9112C1.52665 10.8862 1.53479 10.8581 1.53479 10.8278C1.53479 10.8091 1.53124 10.7915 1.52595 10.7746L2.54108 10.5146C2.56706 10.5828 2.63249 10.6316 2.70983 10.6316C2.74107 10.6316 2.77003 10.6229 2.79577 10.609L3.24104 11.0536C3.23338 11.0735 3.22882 11.095 3.22882 11.1176C3.22882 11.2176 3.30975 11.2986 3.4097 11.2986C3.48652 11.2986 3.55177 11.2505 3.578 11.1829H4.70769C4.72623 11.2632 4.79777 11.3233 4.88368 11.3233C4.98369 11.3232 5.06462 11.2423 5.06462 11.1423C5.06462 11.1199 5.06 11.0987 5.05261 11.0789L5.45232 10.8213C5.4846 10.8515 5.52772 10.8704 5.5754 10.8704C5.67532 10.8704 5.75634 10.7894 5.75634 10.6894C5.75634 10.6824 5.75506 10.6757 5.7543 10.6689L6.33787 10.473C6.35273 10.5082 6.37872 10.5371 6.41099 10.5567L5.55306 14.2402C5.49128 14.2524 5.44467 14.3069 5.44467 14.3722C5.44467 14.4117 5.46202 14.4469 5.489 14.4715L5.2946 15.1008C5.29074 15.1005 5.28701 15.0996 5.28309 15.0996C5.23856 15.0996 5.19936 15.1215 5.1749 15.1548L4.7616 15.0619H4.76169ZM6.33161 15.7478C6.30782 15.7093 6.26564 15.6833 6.21704 15.6833C6.18477 15.6833 6.15557 15.6951 6.13235 15.714L5.46828 15.2829L6.26269 15.3063C6.28727 15.3387 6.32593 15.36 6.36975 15.36C6.39352 15.36 6.41555 15.3534 6.43497 15.3426L6.90512 15.6128L6.33164 15.7479L6.33161 15.7478ZM7.94547 15.7398C7.9211 15.716 7.88804 15.7012 7.8513 15.7012C7.80492 15.7012 7.76402 15.7247 7.7398 15.7605L7.17477 15.6192C7.17358 15.6135 7.17161 15.6082 7.16975 15.6028L7.63608 15.3253C7.65996 15.3466 7.69108 15.36 7.72567 15.36C7.77429 15.36 7.81641 15.3341 7.84008 15.2956L8.57882 15.3879L7.9455 15.7398L7.94547 15.7398ZM12.4939 11.0014L11.2514 12.9438C11.1574 12.9503 11.083 13.0278 11.083 13.1234C11.0831 13.1371 11.0848 13.1503 11.0876 13.1631L9.517 14.938C9.49865 14.9317 9.47926 14.9276 9.45868 14.9276C9.35882 14.9276 9.27781 15.0086 9.27781 15.1086C9.27781 15.1108 9.27835 15.1128 9.27841 15.1151L8.81321 15.2792C8.79474 15.2587 8.77039 15.2438 8.74262 15.2376L8.5491 14.4995C8.5832 14.4751 8.60562 14.4353 8.60562 14.3901C8.60565 14.3222 8.55524 14.2666 8.4899 14.2573L7.6624 10.5628C7.69984 10.549 7.73132 10.5237 7.7525 10.4906L8.36421 10.6872C8.36348 10.694 8.36211 10.7007 8.36211 10.7079C8.36214 10.8077 8.44313 10.8888 8.54305 10.8888C8.5862 10.8887 8.62534 10.873 8.6564 10.8478L9.02645 11.0861C9.02126 11.1029 9.01761 11.1204 9.01761 11.1388C9.01761 11.2388 9.09863 11.3198 9.19855 11.3198C9.28325 11.3198 9.35369 11.2614 9.37347 11.1828H10.519C10.5277 11.2747 10.6042 11.3467 10.6982 11.3467C10.7981 11.3467 10.8791 11.2657 10.8791 11.1658C10.8791 11.12 10.8616 11.0787 10.8335 11.0468L11.2668 10.6141C11.2927 10.6285 11.322 10.6374 11.3537 10.6374C11.4162 10.6374 11.4713 10.6057 11.5039 10.5575L12.4685 10.879C12.4673 10.8877 12.4659 10.8964 12.4659 10.9054C12.4659 10.9407 12.4764 10.9734 12.4939 11.0013L12.4939 11.0014ZM12.5192 9.63721L11.4762 10.324C11.4439 10.2942 11.4012 10.2755 11.3537 10.2755C11.2939 10.2755 11.2414 10.3048 11.2084 10.3495L10.6544 10.1268C10.6544 10.1259 10.6547 10.1251 10.6547 10.1242C10.6547 10.0243 10.5736 9.94326 10.4737 9.94326C10.4034 9.94326 10.3431 9.9838 10.3131 10.0423L9.22256 9.96709C9.19582 9.90056 9.13096 9.85352 9.05487 9.85352C8.95501 9.85349 8.87393 9.93451 8.87393 10.0345C8.87393 10.0576 8.8787 10.0796 8.88666 10.1L8.52977 10.5283C8.47589 10.5323 8.42876 10.5594 8.39837 10.6002L7.78034 10.4016C7.78034 10.3989 7.7811 10.3964 7.7811 10.3936C7.7811 10.3381 7.75566 10.2892 7.71637 10.256L8.23639 9.47691C8.27185 9.49812 8.31425 9.50802 8.35801 9.50085C8.44951 9.48581 8.51278 9.40461 8.50865 9.31423L11.1731 8.85584C11.207 8.92637 11.2837 8.96968 11.3647 8.95633C11.3997 8.95068 11.4302 8.93497 11.4548 8.91327L12.5191 9.53401C12.5141 9.55042 12.5107 9.5674 12.5107 9.58543C12.5107 9.60351 12.5142 9.62071 12.5192 9.63721ZM11.672 6.33877C11.6631 6.36035 11.658 6.38384 11.658 6.40842C11.658 6.47601 11.6955 6.53421 11.7504 6.56526L11.3151 8.59868C11.3121 8.59902 11.3092 8.59877 11.3061 8.59926C11.2594 8.60695 11.2202 8.63223 11.1932 8.66694L9.21782 7.70016C9.21815 7.69605 9.21909 7.69216 9.21909 7.68797C9.21909 7.63935 9.19968 7.59547 9.1685 7.56295L10.1598 5.42621C10.1712 5.42843 10.183 5.42976 10.195 5.42976C10.2401 5.42976 10.2811 5.41256 10.3127 5.38524L11.672 6.33877ZM8.39016 4.10974C8.43979 4.10974 8.48483 4.08962 8.51752 4.05713L10.0278 5.17969C10.0191 5.20099 10.0141 5.2243 10.0141 5.24876C10.0141 5.30307 10.0385 5.35118 10.0763 5.38436L9.0879 7.51484C9.07204 7.51028 9.05557 7.50703 9.03809 7.50703C8.96868 7.507 8.90924 7.54648 8.87885 7.60385L7.18802 7.36688C7.18391 7.3191 7.16146 7.27695 7.12748 7.24717L8.34911 4.10466C8.36233 4.1077 8.37591 4.10974 8.39016 4.10974ZM7.20029 3.95408L8.21077 3.94487C8.21482 3.99022 8.23496 4.03063 8.26629 4.06011L7.06971 7.1382L7.08649 4.05631C7.13775 4.04072 7.17948 4.00331 7.20026 3.95408H7.20029ZM6.86947 3.95712C6.89221 4.00802 6.93724 4.04692 6.99328 4.05987L6.97635 7.14327L5.80709 4.10889C5.84672 4.07366 5.86948 4.02185 5.86705 3.96621L6.86947 3.95709V3.95712ZM2.87597 2.87866C2.87299 2.85854 2.86609 2.8401 2.85731 2.82296L4.54888 1.93592C4.58619 1.99235 4.65336 2.02566 4.72474 2.01557L5.58695 3.82377C5.53276 3.86006 5.50061 3.92412 5.50791 3.99265L3.91164 5.15756C3.88304 5.13854 3.84883 5.12742 3.81199 5.12742C3.80139 5.12742 3.79115 5.12885 3.78106 5.13055L2.80711 3.04769C2.85707 3.00894 2.88591 2.94573 2.876 2.87869L2.87597 2.87866ZM1.36185 7.06839C1.36185 7.03855 1.35395 7.01077 1.34109 6.98591L2.0522 6.54569C2.08436 6.59608 2.14039 6.62972 2.20448 6.62972C2.20698 6.62972 2.2092 6.62911 2.21163 6.62905L2.6589 8.57911C2.61687 8.61221 2.58943 8.66298 2.58943 8.72066C2.58943 8.74084 2.5935 8.75999 2.59955 8.77804L1.43028 9.42761C1.40074 9.3968 1.36036 9.37708 1.31517 9.37322L1.23181 7.24113C1.30684 7.21909 1.36185 7.15053 1.36188 7.06836L1.36185 7.06839ZM3.077 17.7736C3.0498 17.7572 3.01837 17.7473 2.98434 17.7473C2.96434 17.7472 2.94547 17.7512 2.92751 17.7572L1.5464 14.0041C1.5688 13.9931 1.58834 13.9776 1.60429 13.9587L2.25809 14.1591C2.25703 14.1673 2.25563 14.1753 2.25563 14.1837C2.25563 14.2837 2.33671 14.3646 2.43657 14.3646C2.4562 14.3646 2.47477 14.3607 2.49242 14.355L3.83439 17.0677C3.792 17.1008 3.76422 17.1519 3.76422 17.2098C3.76422 17.2301 3.76829 17.2491 3.77443 17.2674L3.07703 17.7736H3.077ZM7.77079 20.6381C7.68883 20.6381 7.6204 20.693 7.59815 20.7676L6.52185 20.7924C6.51252 20.7011 6.43639 20.6297 6.34267 20.6297C6.33125 20.6297 6.32006 20.6311 6.30915 20.6331L5.70936 19.1336C5.77117 19.1047 5.81426 19.0425 5.81426 18.9699C5.81429 18.9405 5.8067 18.9132 5.79427 18.8887L6.17417 18.6237C6.20544 18.6497 6.24506 18.6658 6.28882 18.6658C6.37322 18.6658 6.44348 18.6079 6.46356 18.5298H7.51267C7.52956 18.6122 7.60247 18.6743 7.68993 18.6743C7.74588 18.6743 7.79523 18.6484 7.82844 18.6085L8.27936 18.8791C8.26389 18.9058 8.25432 18.9362 8.25432 18.9693C8.25432 19.0273 8.28222 19.0784 8.32464 19.1114L7.7718 20.6383C7.77146 20.6382 7.77113 20.6382 7.77083 20.6381H7.77079ZM9.15364 18.5099C9.05469 18.5099 8.97443 18.5895 8.97303 18.6881L8.55451 18.8341C8.5226 18.8059 8.48124 18.7884 8.43526 18.7884C8.40359 18.7884 8.37424 18.7973 8.34832 18.8116L7.86786 18.5234C7.86956 18.5136 7.8709 18.5037 7.8709 18.4933C7.8709 18.3934 7.78988 18.3124 7.68993 18.3124C7.61006 18.3124 7.54297 18.3646 7.51905 18.4365H6.46241C6.44113 18.3603 6.37188 18.304 6.28882 18.304C6.18896 18.304 6.10789 18.385 6.10789 18.485C6.10792 18.5072 6.11244 18.5282 6.11983 18.5479L5.73197 18.8184C5.70361 18.8 5.66979 18.789 5.63335 18.789C5.5672 18.789 5.50994 18.8248 5.4784 18.8778L5.04088 18.7125C5.04112 18.7084 5.0421 18.7046 5.0421 18.7005C5.0421 18.6006 4.96108 18.5196 4.86113 18.5196C4.84475 18.5196 4.82919 18.5224 4.81412 18.5266L4.08304 17.3258C4.10951 17.2943 4.12616 17.2542 4.12616 17.2099C4.12616 17.1448 4.0914 17.0882 4.03982 17.0562L4.55906 15.2602C4.56687 15.2612 4.57462 15.2627 4.58276 15.2627C4.65673 15.2627 4.72012 15.2181 4.74814 15.1546L5.14955 15.2447C5.1549 15.3141 5.2124 15.3691 5.28324 15.3691C5.3184 15.3691 5.35022 15.3552 5.37419 15.3331L6.08479 15.7944C6.08345 15.8021 6.08242 15.8099 6.08242 15.8181C6.08242 15.8924 6.14271 15.9527 6.21713 15.9527C6.28411 15.9527 6.33933 15.9036 6.34969 15.8395L6.9219 15.7048C6.94353 15.7504 6.98957 15.7822 7.04333 15.7822C7.09417 15.7822 7.13794 15.7536 7.16088 15.7119L7.71837 15.8512C7.726 15.9184 7.78234 15.9707 7.85148 15.9707C7.92587 15.9707 7.98626 15.9104 7.98626 15.836C7.98626 15.8322 7.98534 15.8284 7.98504 15.8246L8.62446 15.4694C8.64832 15.4905 8.67923 15.5038 8.7136 15.5038C8.78793 15.5038 8.84828 15.4434 8.84828 15.3691C8.84828 15.368 8.84798 15.367 8.84798 15.3661L9.30595 15.2045C9.33211 15.2462 9.37454 15.2765 9.42471 15.2861L9.94099 17.1262C9.87845 17.1547 9.83469 17.2174 9.83469 17.2908C9.83469 17.3365 9.85229 17.378 9.88049 17.4099L9.19056 18.5138C9.17868 18.5114 9.16649 18.51 9.15379 18.51L9.15364 18.5099ZM12.3581 13.8778C12.3581 13.8832 12.3592 13.8884 12.3597 13.8937L11.7963 14.0782C11.7634 14.0326 11.7103 14.0027 11.6497 14.0027C11.6326 14.0027 11.6163 14.0058 11.6005 14.0103L11.3321 13.2909C11.3982 13.2639 11.4448 13.1992 11.4448 13.1235C11.4448 13.1088 11.4426 13.0949 11.4394 13.0813L12.4519 12.804C12.4729 12.8435 12.5078 12.8741 12.5505 12.8892L12.5204 13.6987C12.4293 13.7082 12.358 13.7842 12.358 13.8778L12.3581 13.8778ZM12.998 7.08963C12.998 6.99807 12.9298 6.92316 12.8415 6.9111L12.5922 5.08202C12.6466 5.05087 12.6838 4.99282 12.6838 4.92548C12.6838 4.82559 12.6028 4.7446 12.5029 4.7446C12.494 4.7446 12.4855 4.74591 12.4769 4.74719L11.3852 3.04656C11.3997 3.02046 11.4087 2.99092 11.4087 2.95898C11.4087 2.85903 11.3277 2.77801 11.2277 2.77801C11.1945 2.77801 11.1637 2.78768 11.1368 2.80339L9.39414 1.847C9.39699 1.82922 9.39809 1.8109 9.39529 1.79212C9.38074 1.69323 9.28872 1.62495 9.18986 1.63953C9.13771 1.64725 9.0945 1.67679 9.06706 1.71724L7.15067 1.15993C7.15042 1.15807 7.15067 1.15637 7.15036 1.15461C7.13575 1.05569 7.04379 0.987375 6.94502 1.00196C6.86501 1.01378 6.80587 1.07642 6.79353 1.15218L4.83733 1.72009C4.79825 1.67393 4.73732 1.64798 4.67308 1.65746C4.57969 1.67123 4.51445 1.75428 4.51979 1.84679L2.79197 2.75197C2.75681 2.73024 2.71457 2.71957 2.6706 2.72605C2.57174 2.74063 2.50346 2.83268 2.51801 2.93151C2.52169 2.95649 2.53038 2.97946 2.54284 2.9997L1.48501 4.86148C1.47377 4.85926 1.46222 4.85799 1.45031 4.85799C1.35039 4.85799 1.26943 4.939 1.26943 5.03895C1.26943 5.11204 1.31295 5.17458 1.37537 5.20318L1.149 6.89064C1.06436 6.90578 1 6.97935 1 7.06836C1 7.15363 1.0592 7.22465 1.13864 7.2438L1.22242 9.38987C1.16152 9.41895 1.11904 9.48061 1.11904 9.55273C1.11904 9.62979 1.16754 9.69516 1.23543 9.72121L1.27235 10.6671C1.21364 10.697 1.17298 10.7574 1.17298 10.8278C1.17298 10.9034 1.21941 10.968 1.28517 10.9951L1.39017 13.6791C1.32875 13.708 1.28584 13.77 1.28584 13.8424C1.28584 13.9378 1.3599 14.0152 1.45359 14.022L2.8478 17.8106C2.82051 17.8423 2.80337 17.8831 2.80337 17.9283C2.80337 18.0281 2.88445 18.1092 2.98437 18.1092C2.99856 18.1092 3.01227 18.107 3.02555 18.1039L4.25459 19.5815C4.24532 19.6033 4.24018 19.6271 4.24018 19.6524C4.24018 19.7522 4.3212 19.8333 4.42112 19.8333C4.45753 19.8333 4.49138 19.8223 4.51986 19.8037L6.16386 20.7902C6.1631 20.797 6.16183 20.8037 6.16183 20.8107C6.16186 20.9106 6.24291 20.9916 6.3427 20.9916C6.41573 20.9916 6.47812 20.9482 6.50678 20.8861L7.5952 20.8611C7.6142 20.9406 7.68537 21 7.77083 21C7.87072 21 7.95176 20.919 7.95176 20.8191C7.95176 20.7987 7.9476 20.7794 7.94128 20.7611L9.61388 19.8151C9.64637 19.8636 9.70156 19.8955 9.76434 19.8955C9.8642 19.8955 9.94522 19.8144 9.94522 19.7145C9.94522 19.6624 9.92285 19.6158 9.8876 19.5828L11.0147 18.1671C11.0361 18.1759 11.0595 18.1809 11.084 18.1809C11.184 18.1809 11.265 18.1 11.265 18C11.265 17.938 11.2337 17.8834 11.1863 17.8508L12.5451 14.058C12.6422 14.0547 12.72 13.9756 12.72 13.8777C12.72 13.8043 12.6761 13.7413 12.6132 13.713L12.6436 12.897C12.7278 12.8816 12.7918 12.808 12.7918 12.7193C12.7918 12.6353 12.7343 12.5654 12.6566 12.5449L12.7115 11.0739C12.7793 11.0479 12.8277 10.9825 12.8277 10.9054C12.8277 10.8331 12.7851 10.7712 12.7238 10.7423L12.7606 9.75254C12.8263 9.72543 12.8726 9.66085 12.8726 9.5854C12.8726 9.5148 12.8317 9.4543 12.7728 9.42451L12.8531 7.26686C12.9359 7.25018 12.998 7.17715 12.998 7.0896V7.08963Z" stroke="#06BAD1" stroke-width="0.161168" mask="url(#path-1-outside-1_595_4331)"/>
<path d="M8.19287 16.2715C8.28955 16.2715 8.36767 16.3498 8.36768 16.4463C8.36768 16.451 8.36516 16.4555 8.36475 16.46L9.19092 16.9395C9.20978 16.9321 9.23019 16.9268 9.25244 16.9268L9.3208 16.9404C9.38343 16.967 9.42712 17.0292 9.42725 17.1016C9.42725 17.1982 9.34905 17.2763 9.25244 17.2764C9.2383 17.2764 9.22542 17.2717 9.2124 17.2686L8.51709 17.8682C8.51079 17.9592 8.43763 18.0312 8.34521 18.0312C8.29183 18.0312 8.24528 18.0062 8.21338 17.9688L5.81494 18.0107C5.784 18.0597 5.73186 18.0938 5.66943 18.0938C5.57279 18.0937 5.49463 18.0155 5.49463 17.9189C5.49463 17.915 5.49533 17.9111 5.49561 17.9072L4.74951 17.2588C4.73383 17.2637 4.71745 17.2676 4.69971 17.2676C4.60309 17.2676 4.5249 17.1894 4.5249 17.0928C4.52494 16.9961 4.60315 16.918 4.69971 16.918C4.73405 16.918 4.76483 16.9294 4.7915 16.9463L5.74658 16.4688C5.768 16.3968 5.83232 16.3429 5.91162 16.3428C5.98429 16.3428 6.04435 16.3884 6.0708 16.4512L6.85498 16.6416C6.88674 16.6025 6.93479 16.5771 6.98975 16.5771C7.04395 16.5772 7.09078 16.6023 7.12256 16.6406L8.02295 16.418C8.03671 16.3351 8.10609 16.2715 8.19287 16.2715ZM7.14307 17.3994C7.11211 17.4283 7.07177 17.4471 7.02588 17.4473C6.98046 17.4473 6.93952 17.4294 6.90869 17.4014L6.03662 17.833L7.99463 17.7988L7.14307 17.3994ZM5.59521 17.7627C5.61777 17.7518 5.64242 17.7442 5.66943 17.7441C5.70434 17.7441 5.73514 17.7569 5.76221 17.7744L6.63135 17.3438L4.94971 17.2021L5.59521 17.7627ZM7.40771 17.3311L8.23584 17.7197C8.25565 17.7037 8.27935 17.6917 8.30518 17.6855V17.6807H8.34521C8.37854 17.6807 8.40859 17.6928 8.43506 17.709L9.02393 17.2012L7.40771 17.3311ZM6.04834 16.624C6.01659 16.6651 5.96812 16.6934 5.91162 16.6934C5.86367 16.6933 5.82103 16.6729 5.78955 16.6416L5.0083 17.0332L6.87451 17.1885C6.88495 17.1697 6.89911 17.1543 6.91553 17.1406C6.91237 17.0649 6.9077 16.9755 6.90479 16.9023C6.86952 16.8826 6.84236 16.8518 6.82764 16.8135L6.04834 16.624ZM7.15186 16.8115C7.13804 16.8488 7.11294 16.8791 7.07959 16.8994C7.082 16.9603 7.08425 17.0348 7.0874 17.1094C7.12161 17.1224 7.15032 17.1458 7.17041 17.1758L8.99756 17.0293L8.26416 16.6035C8.24213 16.6136 8.21859 16.6211 8.19287 16.6211C8.15218 16.6211 8.11687 16.605 8.0874 16.582L7.15186 16.8115Z" fill="#06BAD1" stroke="#06BAD1" stroke-width="0.0805838"/>
</svg>
